<svg width="176" height="64" viewBox="0 0 176 64" fill="none" xmlns="http://www.w3.org/2000/svg">
<g clip-path="url(#clip0)">
<path d="M69.665 13.758H78.896C85.083 13.758 88.913 15.427 91.319 17.834C93.676 20.191 94.756 23.284 94.756 27.114C94.7685 29.4424 94.3149 31.7498 93.4218 33.9002C92.5287 36.0506 91.2143 38.0005 89.556 39.635C85.726 43.465 80.276 45.478 72.91 45.478H61.121L69.665 13.758ZM73.741 39.242C77.6494 39.3976 81.4612 38.0035 84.347 35.363C85.3805 34.3153 86.195 33.0723 86.7431 31.7065C87.2911 30.3407 87.5617 28.8795 87.539 27.408C87.581 26.4831 87.4376 25.5591 87.1171 24.6904C86.7967 23.8218 86.3056 23.026 85.673 22.35C84.249 20.926 81.941 20.042 78.357 20.042H74.969L69.813 39.192H73.741V39.242Z" fill="white"/>
<path d="M100.748 27.115H97.848L99.419 21.223H102.267L102.562 19.897C103.986 14.497 107.325 12.09 112.383 12.09C113.981 12.0618 115.573 12.2939 117.097 12.777L115.624 18.477C114.665 18.1115 113.65 17.9123 112.624 17.888C111.831 17.8315 111.045 18.0715 110.419 18.5615C109.793 19.0516 109.372 19.7566 109.236 20.54L109.036 21.227H114.879L113.308 27.119H107.608L102.6 45.533H95.739L100.748 27.115Z" fill="white"/>
<path d="M110.42 51.224L114.103 46.216C114.875 46.7836 115.798 47.1084 116.755 47.149C117.288 47.1601 117.814 47.0295 118.28 46.7707C118.746 46.512 119.135 46.1342 119.407 45.676L116.407 21.176H123.429L124.558 37.676L133.695 21.173H141.11L126.035 46.073C122.843 51.032 120.143 52.898 116.018 52.898C114.013 53.0146 112.032 52.422 110.42 51.224V51.224Z" fill="white"/>
<path d="M144.253 21.222H151.127L150.685 22.793C152.404 21.271 154.319 20.78 157.068 20.78C161.438 20.78 164.237 23.432 164.237 27.851C164.161 29.4195 163.881 30.9713 163.402 32.467L159.916 45.528H153.042L156.627 32.172C156.815 31.4668 156.914 30.7408 156.922 30.011C156.922 28.047 155.694 27.011 153.583 27.011C150.883 27.011 149.115 28.975 148.329 31.872L144.646 45.523H137.771L144.253 21.222Z" fill="white"/>
<path d="M28.271 40.077L29.106 36.787C29.106 36.687 29.057 36.587 28.959 36.587H13.147C13.047 36.587 13 36.487 13 36.387L21.151 6.087C21.151 6.038 21.251 5.987 21.298 5.987H30.087C36.028 5.987 39.76 7.607 42.068 9.915C43.2023 11.0998 44.0834 12.5033 44.6575 14.0398C45.2315 15.5763 45.4866 17.2137 45.407 18.852C45.4129 20.6885 45.1142 22.5133 44.523 24.252C44.0391 25.744 43.327 27.152 42.412 28.426C42.363 28.526 42.412 28.672 42.512 28.672H54.2C54.2299 28.6687 54.26 28.6752 54.2858 28.6906C54.3116 28.706 54.3317 28.7294 54.343 28.7572C54.3543 28.785 54.3562 28.8158 54.3485 28.8448C54.3407 28.8738 54.3237 28.8995 54.3 28.918L23.7 58.884C23.6764 58.9062 23.6462 58.9201 23.614 58.9236C23.5818 58.927 23.5493 58.9199 23.5215 58.9033C23.4937 58.8867 23.4721 58.8615 23.4599 58.8315C23.4477 58.8015 23.4456 58.7683 23.454 58.737L28.271 40.077Z" fill="white"/>
</g>
<defs>
<clipPath id="clip0">
<rect width="151.237" height="52.923" fill="white" transform="translate(13 6)"/>
</clipPath>
</defs>
</svg>
