<svg width="175" height="64" viewBox="0 0 175 64" fill="none" xmlns="http://www.w3.org/2000/svg">
<path fill-rule="evenodd" clip-rule="evenodd" d="M34.3753 47.6026L23.7207 33.1431L34.3753 16.3974L45.0339 33.1407L34.3753 47.6026ZM33.9544 6.30762L17 6.30841L17.0008 57.6873L33.9552 57.6921C48.0817 57.6889 59.6455 46.2167 59.6471 31.9995C59.6431 17.7822 48.0865 6.31001 33.9544 6.30762V6.30762Z" fill="white"/>
<path opacity="0.496652" fill-rule="evenodd" clip-rule="evenodd" d="M45.0339 33.1403L34.3753 47.6022L23.7207 33.1435L34.3777 39.233L45.0339 33.1403Z" fill="white"/>
<mask id="mask0" mask-type="alpha" maskUnits="userSpaceOnUse" x="68" y="18" width="11" height="11">
<path fill-rule="evenodd" clip-rule="evenodd" d="M68.3845 18.1584H78.1783V28.7229H68.3845V18.1584Z" fill="white"/>
</mask>
<g mask="url(#mask0)">
<path fill-rule="evenodd" clip-rule="evenodd" d="M73.4026 19.6986C71.7738 19.6986 70.4095 20.7331 70.2331 22.3838H76.2639C76.0879 20.7991 75.1634 19.6986 73.4026 19.6986M73.4026 27.0722C74.8773 27.0722 75.8896 26.3459 76.5721 25.2455L78.0023 26.1477C76.99 27.6884 75.8018 28.7229 73.1821 28.7229C70.4313 28.7229 68.3845 26.4997 68.3845 23.4406C68.3845 20.3815 70.4313 18.1584 73.4026 18.1584C76.2638 18.1584 78.1783 20.1611 78.1783 23.3524C78.1783 23.5288 78.1783 23.7048 78.1568 23.8808H70.1893C70.3435 25.928 71.554 27.0722 73.4026 27.0722" fill="white"/>
</g>
<path fill-rule="evenodd" clip-rule="evenodd" d="M82.4697 12.5092V18.3782H84.1204V20.0294H82.4697V28.503H80.7089V20.0294H79.0582V18.3782H80.7089V12.5092H82.4697Z" fill="white"/>
<path fill-rule="evenodd" clip-rule="evenodd" d="M87.6412 28.503H85.8801V12.5092H87.6412V19.7429C88.3452 18.7529 89.4239 18.1585 90.6566 18.1585C92.7475 18.1585 94.134 19.5014 94.134 22.1202V28.503H92.3733V22.3399C92.3733 20.6674 91.6467 19.8093 90.216 19.8093C88.6758 19.8093 87.6412 20.8875 87.6412 22.3399V28.503Z" fill="white"/>
<path fill-rule="evenodd" clip-rule="evenodd" d="M101.792 27.0719C103.333 27.0719 105.028 25.7736 105.028 23.4403C105.028 21.1075 103.333 19.8092 101.792 19.8092C99.9217 19.8092 98.3369 21.1075 98.3369 23.4403C98.3369 25.7736 99.9217 27.0719 101.792 27.0719M101.572 18.1582C103.069 18.1582 104.279 18.8625 105.028 20.1172V12.5092H106.788V28.503H105.028V26.7641C104.279 28.0187 103.069 28.7227 101.572 28.7227C98.8207 28.7227 96.5538 26.72 96.5538 23.4404C96.5538 20.1609 98.8207 18.1582 101.572 18.1582" fill="white"/>
<path fill-rule="evenodd" clip-rule="evenodd" d="M114.117 19.6986C112.488 19.6986 111.124 20.7331 110.947 22.3838H116.978C116.802 20.7991 115.877 19.6986 114.117 19.6986M114.116 27.0722C115.591 27.0722 116.603 26.3459 117.286 25.2455L118.716 26.1477C117.703 27.6884 116.515 28.7229 113.896 28.7229C111.145 28.7229 109.098 26.4997 109.098 23.4406C109.098 20.3815 111.145 18.1584 114.116 18.1584C116.977 18.1584 118.892 20.1611 118.892 23.3524C118.892 23.5288 118.892 23.7048 118.87 23.8808H110.903C111.057 25.928 112.267 27.0722 114.116 27.0722" fill="white"/>
<path fill-rule="evenodd" clip-rule="evenodd" d="M124.393 27.0722C125.494 27.0722 126.154 26.6761 126.154 25.7957C126.154 24.6956 125.032 24.2332 123.865 23.7708C122.479 23.2209 120.96 22.5161 120.96 20.8217C120.96 19.1492 122.611 18.1584 124.239 18.1584C125.846 18.1584 127.497 19.0173 127.893 20.1396L126.485 21.0418C126.044 20.2056 125.076 19.8309 124.261 19.8309C123.381 19.8309 122.721 20.1396 122.721 20.8217C122.721 21.6143 124.063 22.1864 125.186 22.6484C126.617 23.2428 127.981 24.1673 127.981 25.6416C127.981 27.8207 126.462 28.7229 124.284 28.7229C122.413 28.7229 120.63 27.4464 120.322 25.7957L121.774 24.9594C122.039 26.1918 123.139 27.0722 124.393 27.0722" fill="white"/>
<path fill-rule="evenodd" clip-rule="evenodd" d="M130.622 28.5031H132.383V18.3787H130.622V28.5031ZM131.502 12.9859C132.162 12.9859 132.713 13.5365 132.713 14.1968C132.713 14.8571 132.162 15.4073 131.502 15.4073C130.842 15.4073 130.291 14.8571 130.291 14.1968C130.291 13.5365 130.842 12.9859 131.502 12.9859V12.9859Z" fill="white"/>
<path fill-rule="evenodd" clip-rule="evenodd" d="M140.371 27.0721C141.912 27.0721 143.607 25.7737 143.607 23.4405C143.607 21.1077 141.912 19.8093 140.371 19.8093C138.501 19.8093 136.916 21.1077 136.916 23.4405C136.916 25.7737 138.501 27.0721 140.371 27.0721M140.151 18.1584C141.648 18.1584 142.858 18.8627 143.606 20.1174V18.3785H145.367V28.2831C145.367 31.7824 142.88 33.5654 140.349 33.5654C137.378 33.5654 135.331 31.7824 135.331 29.1635H137.114C137.114 30.6159 138.368 31.9143 140.349 31.9143C141.89 31.9143 143.606 30.836 143.606 28.2831V26.7643C142.858 28.0189 141.648 28.7229 140.151 28.7229C137.4 28.7229 135.133 26.7202 135.133 23.4406C135.133 20.1611 137.4 18.1584 140.151 18.1584" fill="white"/>
<path fill-rule="evenodd" clip-rule="evenodd" d="M150.318 28.5028H148.558V18.3785H150.318V19.7427C151.023 18.7527 152.101 18.1584 153.334 18.1584C155.425 18.1584 156.812 19.5012 156.812 22.1201V28.5028H155.051V22.3398C155.051 20.6672 154.324 19.8091 152.893 19.8091C151.353 19.8091 150.318 20.8873 150.318 22.3398V28.5028Z" fill="white"/>
<path d="M76.8049 44.5182H75.1145C74.9391 45.7143 74.2055 46.687 72.9138 46.687C71.5424 46.687 70.6175 45.4591 70.6175 43.7209C70.6175 41.9667 71.5424 40.7707 72.9138 40.7707C74.1896 40.7707 74.955 41.7116 75.1145 42.9235H76.8049C76.5178 40.8026 75.0348 39.3355 72.8979 39.3355C70.6015 39.3355 68.959 41.1853 68.959 43.7209C68.959 46.2405 70.6015 48.1222 72.8979 48.1222C75.0348 48.1222 76.5338 46.6392 76.8049 44.5182Z" fill="white"/>
<path d="M83.5573 47.9468H84.8968V42.5249C84.8968 40.5156 83.6848 39.3355 81.5958 39.3355C79.6822 39.3355 78.2469 40.6591 78.1832 42.493H79.6503C79.6662 41.281 80.4157 40.6112 81.5958 40.6112C82.7121 40.6112 83.3659 41.297 83.3659 42.5089V43.1309C82.744 43.0671 82.2975 43.0352 81.7872 43.0352C79.2675 43.0352 77.944 43.8963 77.944 45.5548C77.944 47.1016 79.0921 48.1063 80.8463 48.1063C82.1061 48.1063 83.047 47.5641 83.5573 46.6392V47.9468ZM79.4908 45.5069C79.4908 44.5182 80.2722 44.0398 81.8828 44.0398C82.3772 44.0398 82.8556 44.0717 83.3659 44.1355V44.8212C83.3659 46.1289 82.5048 46.9581 81.1652 46.9581C80.1287 46.9581 79.4908 46.384 79.4908 45.5069Z" fill="white"/>
<path d="M91.2792 48.1063C93.5436 48.1063 94.9948 46.2724 94.9948 43.7209C94.9948 41.1694 93.5277 39.3355 91.2792 39.3355C90.0832 39.3355 89.0626 39.9574 88.4566 41.0418V39.495H86.9576V51.0246H88.5523V46.5116C89.1582 47.5322 90.131 48.1063 91.2792 48.1063ZM88.5523 43.7209C88.5842 41.8232 89.6048 40.7548 90.9443 40.7548C92.3317 40.7548 93.3363 41.8232 93.3363 43.7209C93.3363 45.6186 92.3317 46.6711 90.9443 46.6711C89.5888 46.6711 88.5363 45.5867 88.5523 43.7209Z" fill="white"/>
<path d="M98.7009 37.5335C98.7009 36.9116 98.2224 36.465 97.5367 36.465C96.851 36.465 96.3567 36.9116 96.3567 37.5335C96.3567 38.1395 96.851 38.6019 97.5367 38.6019C98.2224 38.6019 98.7009 38.1395 98.7009 37.5335ZM98.35 47.9468V39.495H96.7394V47.9468H98.35Z" fill="white"/>
<path d="M105.337 47.8033V46.384C105.002 46.5435 104.683 46.6073 104.3 46.6073C103.423 46.6073 102.865 46.1927 102.865 45.0285V40.8664H105.416V39.495H102.865V36.9913H101.254V39.495H99.4044V40.8664H101.254V45.3953C101.254 47.2611 102.339 48.1063 103.901 48.1063C104.428 48.1063 104.858 48.0266 105.337 47.8033Z" fill="white"/>
<path d="M112.087 47.9468H113.427V42.5249C113.427 40.5156 112.215 39.3355 110.126 39.3355C108.212 39.3355 106.777 40.6591 106.713 42.493H108.18C108.196 41.281 108.946 40.6112 110.126 40.6112C111.242 40.6112 111.896 41.297 111.896 42.5089V43.1309C111.274 43.0671 110.827 43.0352 110.317 43.0352C107.798 43.0352 106.474 43.8963 106.474 45.5548C106.474 47.1016 107.622 48.1063 109.376 48.1063C110.636 48.1063 111.577 47.5641 112.087 46.6392V47.9468ZM108.021 45.5069C108.021 44.5182 108.802 44.0398 110.413 44.0398C110.907 44.0398 111.386 44.0717 111.896 44.1355V44.8212C111.896 46.1289 111.035 46.9581 109.695 46.9581C108.659 46.9581 108.021 46.384 108.021 45.5069Z" fill="white"/>
<path d="M117.178 47.9468V36.4969H115.567V47.9468H117.178Z" fill="white"/>
</svg>
