<svg width="175" height="64" viewBox="0 0 175 64" fill="none" xmlns="http://www.w3.org/2000/svg">
<path fill-rule="evenodd" clip-rule="evenodd" d="M27.0371 31.5C27.0371 38.9661 20.9846 45.0185 13.5186 45.0185C6.05246 45.0185 0 38.9661 0 31.5C0 24.0339 6.05246 17.9814 13.5186 17.9814C20.9846 17.9814 27.0371 24.0339 27.0371 31.5ZM17.6251 33.2406H12.9277C12.5057 33.2406 12.2179 33.5449 12.2179 33.9167V38.6478C12.2179 39.0535 12.5395 39.3577 12.9277 39.3577H17.6251C18.0307 39.3577 18.3349 39.036 18.3349 38.6478V33.9505C18.3349 33.5449 18.0132 33.2406 17.6251 33.2406ZM15.2413 30.1646L18.0796 26.3962C18.3325 26.092 18.7557 26.008 19.0598 26.261L22.8282 29.0992C23.1324 29.3523 23.2163 29.7753 22.9634 30.0795L20.1252 33.8141C19.8721 34.1183 19.4491 34.2023 19.1449 33.9492L15.3766 31.111C15.0723 30.8919 15.0221 30.4688 15.2413 30.1646ZM11.5255 34.3893L7.31768 32.2598C6.9633 32.0734 6.55768 32.2086 6.38868 32.5641L4.25916 36.7719C4.07379 37.0924 4.209 37.5318 4.56338 37.7008L8.77116 39.8303C9.09173 40.0158 9.53116 39.8806 9.70017 39.5262L11.8297 35.3184C12.0151 34.9978 11.8799 34.5584 11.5255 34.3893Z" fill="white"/>
<path d="M32.521 39.9144V21.7697H35.8389V39.9144H32.521Z" fill="white"/>
<path d="M45.5767 40.2254C44.2633 40.2254 43.1055 39.9403 42.1033 39.3701C41.101 38.7998 40.3061 38.0049 39.7185 36.9853C39.1483 35.9658 38.8631 34.7993 38.8631 33.486C38.8631 32.1727 39.1483 31.0062 39.7185 29.9867C40.3061 28.9671 41.101 28.1722 42.1033 27.602C43.1055 27.0317 44.2633 26.7466 45.5767 26.7466C47.2183 26.7466 48.6008 27.1786 49.724 28.0426C50.8473 28.8894 51.5644 30.0644 51.8755 31.5679H48.3761C48.2033 30.9458 47.8577 30.4619 47.3393 30.1163C46.8382 29.7534 46.242 29.5719 45.5507 29.5719C44.6349 29.5719 43.8572 29.9176 43.2179 30.6088C42.5785 31.3 42.2588 32.2591 42.2588 33.486C42.2588 34.7129 42.5785 35.672 43.2179 36.3632C43.8572 37.0545 44.6349 37.4001 45.5507 37.4001C46.242 37.4001 46.8382 37.2273 47.3393 36.8816C47.8577 36.536 48.2033 36.0435 48.3761 35.4042H51.8755C51.5644 36.8557 50.8473 38.0222 49.724 38.9035C48.6008 39.7848 47.2183 40.2254 45.5767 40.2254Z" fill="white"/>
<path d="M61.0673 40.2254C59.7712 40.2254 58.622 39.949 57.6198 39.396C56.6175 38.843 55.8312 38.0654 55.261 37.0631C54.6907 36.0608 54.4056 34.903 54.4056 33.5897C54.4056 32.2591 54.6821 31.0754 55.235 30.0385C55.8053 29.0017 56.5829 28.1981 57.5679 27.6279C58.5702 27.0403 59.7453 26.7466 61.0932 26.7466C62.3547 26.7466 63.4693 27.0231 64.437 27.576C65.4047 28.129 66.1564 28.8894 66.6921 29.8571C67.2451 30.8075 67.5216 31.8703 67.5216 33.0453C67.5216 33.2354 67.5129 33.4342 67.4956 33.6415C67.4956 33.8489 67.487 34.0649 67.4697 34.2896H57.6975C57.7667 35.2918 58.1123 36.0781 58.7344 36.6484C59.3738 37.2186 60.1427 37.5037 61.0413 37.5037C61.7153 37.5037 62.2769 37.3569 62.7262 37.0631C63.1928 36.752 63.5384 36.3546 63.763 35.8707H67.1327C66.8908 36.6829 66.4847 37.426 65.9145 38.0999C65.3615 38.7566 64.6703 39.275 63.8408 39.6552C63.0286 40.0354 62.1041 40.2254 61.0673 40.2254ZM61.0932 29.4423C60.281 29.4423 59.5638 29.6756 58.9417 30.1422C58.3196 30.5915 57.9222 31.2827 57.7494 32.2159H64.1518C64.1 31.3691 63.789 30.6952 63.2187 30.194C62.6484 29.6929 61.9399 29.4423 61.0932 29.4423Z" fill="white"/>
<path d="M75.8128 39.9144C74.4649 39.9144 73.3849 39.5861 72.5727 38.9294C71.7605 38.2727 71.3544 37.1063 71.3544 35.4301V29.8312H69.1511V27.0576H71.3544L71.7432 23.6101H74.6723V27.0576H78.1457V29.8312H74.6723V35.456C74.6723 36.0781 74.8019 36.5101 75.0611 36.752C75.3376 36.9767 75.8042 37.089 76.4608 37.089H78.0679V39.9144H75.8128Z" fill="white"/>
<path d="M86.9122 40.2254C85.6162 40.2254 84.467 39.949 83.4648 39.396C82.4625 38.843 81.6762 38.0654 81.1059 37.0631C80.5357 36.0608 80.2506 34.903 80.2506 33.5897C80.2506 32.2591 80.527 31.0754 81.08 30.0385C81.6503 29.0017 82.4279 28.1981 83.4129 27.6279C84.4152 27.0403 85.5903 26.7466 86.9382 26.7466C88.1996 26.7466 89.3142 27.0231 90.282 27.576C91.2497 28.129 92.0014 28.8894 92.5371 29.8571C93.0901 30.8075 93.3665 31.8703 93.3665 33.0453C93.3665 33.2354 93.3579 33.4342 93.3406 33.6415C93.3406 33.8489 93.332 34.0649 93.3147 34.2896H83.5425C83.6116 35.2918 83.9573 36.0781 84.5794 36.6484C85.2187 37.2186 85.9877 37.5037 86.8863 37.5037C87.5603 37.5037 88.1219 37.3569 88.5712 37.0631C89.0378 36.752 89.3834 36.3546 89.608 35.8707H92.9777C92.7358 36.6829 92.3297 37.426 91.7594 38.0999C91.2065 38.7566 90.5152 39.275 89.6858 39.6552C88.8736 40.0354 87.9491 40.2254 86.9122 40.2254ZM86.9382 29.4423C86.126 29.4423 85.4088 29.6756 84.7867 30.1422C84.1646 30.5915 83.7672 31.2827 83.5944 32.2159H89.9968C89.945 31.3691 89.6339 30.6952 89.0637 30.194C88.4934 29.6929 87.7849 29.4423 86.9382 29.4423Z" fill="white"/>
<path d="M100.59 40.2254C99.4836 40.2254 98.5764 40.0526 97.8679 39.707C97.1594 39.3441 96.6323 38.8689 96.2867 38.2814C95.9411 37.6938 95.7683 37.0458 95.7683 36.3373C95.7683 35.1449 96.2349 34.1772 97.168 33.4342C98.1012 32.6911 99.5009 32.3196 101.367 32.3196H104.633V32.0085C104.633 31.1272 104.383 30.4792 103.882 30.0644C103.38 29.6497 102.758 29.4423 102.015 29.4423C101.341 29.4423 100.754 29.6065 100.253 29.9348C99.7515 30.2459 99.4404 30.7125 99.3195 31.3346H96.0793C96.1657 30.4014 96.4768 29.5892 97.0125 28.898C97.5655 28.2068 98.274 27.6797 99.138 27.3168C100.002 26.9367 100.97 26.7466 102.041 26.7466C103.873 26.7466 105.316 27.2045 106.37 28.1204C107.424 29.0362 107.951 30.3323 107.951 32.0085V39.9144H105.126L104.815 37.8407C104.435 38.5319 103.899 39.1022 103.208 39.5515C102.534 40.0008 101.661 40.2254 100.59 40.2254ZM101.341 37.6334C102.292 37.6334 103.026 37.3223 103.545 36.7002C104.08 36.0781 104.417 35.3091 104.555 34.3932H101.73C100.849 34.3932 100.218 34.5574 99.8379 34.8857C99.4577 35.1968 99.2676 35.5856 99.2676 36.0522C99.2676 36.5533 99.4577 36.9421 99.8379 37.2186C100.218 37.4951 100.719 37.6334 101.341 37.6334Z" fill="white"/>
<path d="M117.372 39.9144V21.7697H120.689V37.3223H128.725V39.9144H117.372Z" fill="white"/>
<path d="M136.003 40.2254C134.897 40.2254 133.99 40.0526 133.281 39.707C132.573 39.3441 132.046 38.8689 131.7 38.2814C131.355 37.6938 131.182 37.0458 131.182 36.3373C131.182 35.1449 131.648 34.1772 132.581 33.4342C133.515 32.6911 134.914 32.3196 136.781 32.3196H140.047V32.0085C140.047 31.1272 139.796 30.4792 139.295 30.0644C138.794 29.6497 138.172 29.4423 137.429 29.4423C136.755 29.4423 136.167 29.6065 135.666 29.9348C135.165 30.2459 134.854 30.7125 134.733 31.3346H131.493C131.579 30.4014 131.89 29.5892 132.426 28.898C132.979 28.2068 133.687 27.6797 134.551 27.3168C135.415 26.9367 136.383 26.7466 137.455 26.7466C139.286 26.7466 140.729 27.2045 141.783 28.1204C142.838 29.0362 143.365 30.3323 143.365 32.0085V39.9144H140.539L140.228 37.8407C139.848 38.5319 139.312 39.1022 138.621 39.5515C137.947 40.0008 137.074 40.2254 136.003 40.2254ZM136.755 37.6334C137.705 37.6334 138.44 37.3223 138.958 36.7002C139.494 36.0781 139.831 35.3091 139.969 34.3932H137.144C136.262 34.3932 135.631 34.5574 135.251 34.8857C134.871 35.1968 134.681 35.5856 134.681 36.0522C134.681 36.5533 134.871 36.9421 135.251 37.2186C135.631 37.4951 136.133 37.6334 136.755 37.6334Z" fill="white"/>
<path d="M154.152 40.2254C153.184 40.2254 152.337 40.044 151.611 39.6811C150.885 39.3182 150.298 38.8084 149.849 38.1518L149.486 39.9144H146.531V21.2513H149.849V28.898C150.263 28.3277 150.808 27.8266 151.482 27.3946C152.173 26.9626 153.063 26.7466 154.152 26.7466C155.361 26.7466 156.441 27.0403 157.392 27.6279C158.342 28.2154 159.094 29.019 159.647 30.0385C160.2 31.0581 160.476 32.2159 160.476 33.5119C160.476 34.808 160.2 35.9658 159.647 36.9853C159.094 37.9876 158.342 38.7825 157.392 39.3701C156.441 39.9403 155.361 40.2254 154.152 40.2254ZM153.452 37.3223C154.506 37.3223 155.378 36.968 156.07 36.2595C156.761 35.551 157.107 34.6352 157.107 33.5119C157.107 32.3887 156.761 31.4642 156.07 30.7384C155.378 30.0126 154.506 29.6497 153.452 29.6497C152.38 29.6497 151.499 30.0126 150.808 30.7384C150.134 31.4469 149.797 32.3628 149.797 33.486C149.797 34.6092 150.134 35.5338 150.808 36.2595C151.499 36.968 152.38 37.3223 153.452 37.3223Z" fill="white"/>
<path d="M168.754 40.2254C167.613 40.2254 166.611 40.044 165.747 39.6811C164.883 39.3009 164.192 38.7825 163.673 38.1259C163.155 37.4692 162.844 36.7088 162.74 35.8448H166.084C166.188 36.3459 166.464 36.778 166.914 37.1409C167.38 37.4865 167.976 37.6593 168.702 37.6593C169.428 37.6593 169.955 37.5124 170.283 37.2186C170.629 36.9248 170.802 36.5879 170.802 36.2077C170.802 35.6547 170.56 35.2832 170.076 35.0931C169.592 34.8857 168.918 34.687 168.054 34.4969C167.501 34.376 166.939 34.2291 166.369 34.0563C165.799 33.8835 165.272 33.6675 164.788 33.4082C164.321 33.1318 163.941 32.7861 163.647 32.3714C163.354 31.9394 163.207 31.4123 163.207 30.7902C163.207 29.6497 163.656 28.6906 164.555 27.913C165.471 27.1354 166.749 26.7466 168.391 26.7466C169.912 26.7466 171.121 27.1008 172.02 27.8093C172.936 28.5178 173.48 29.4942 173.653 30.7384H170.517C170.326 29.788 169.609 29.3127 168.365 29.3127C167.743 29.3127 167.259 29.4337 166.914 29.6756C166.585 29.9176 166.421 30.22 166.421 30.5829C166.421 30.963 166.672 31.2654 167.173 31.4901C167.674 31.7147 168.339 31.9221 169.169 32.1122C170.067 32.3196 170.888 32.5529 171.631 32.8121C172.391 33.054 172.996 33.4255 173.446 33.9267C173.895 34.4105 174.12 35.1104 174.12 36.0263C174.137 36.8212 173.929 37.5383 173.497 38.1777C173.065 38.8171 172.443 39.3182 171.631 39.6811C170.819 40.044 169.86 40.2254 168.754 40.2254Z" fill="white"/>
</svg>
