<svg width="175" height="64" viewBox="0 0 175 64" fill="none" xmlns="http://www.w3.org/2000/svg">
<path fill-rule="evenodd" clip-rule="evenodd" d="M140.202 43.0805C140.11 43.3003 139.973 43.4985 139.785 43.6595C139.598 43.8251 139.361 43.9551 139.075 44.0449C138.788 44.1409 138.449 44.1858 138.06 44.1858H135.788V40.596H138.006C138.782 40.596 139.366 40.7462 139.757 41.0573C140.143 41.3654 140.341 41.7957 140.341 42.3499C140.341 42.6146 140.295 42.8576 140.202 43.0805ZM141.092 41.3514C140.959 41.0542 140.76 40.7988 140.494 40.5852C140.225 40.3793 139.894 40.2168 139.498 40.0976C139.104 39.9815 138.64 39.9211 138.113 39.9211H134.854V48.1191H135.788V44.8498H138.197C138.713 44.8498 139.165 44.7833 139.553 44.6455C139.94 44.5077 140.266 44.3235 140.524 44.0929C140.778 43.8715 140.973 43.6037 141.103 43.3003C141.227 42.9985 141.295 42.678 141.295 42.3452C141.295 41.9784 141.226 41.6502 141.092 41.3514ZM119.763 48.0448C120.222 47.9132 120.617 47.7198 120.953 47.4612C121.292 47.2012 121.56 46.8715 121.756 46.4767C121.951 46.0805 122.047 45.6083 122.047 45.0681V39.9211H121.11V45.0371C121.11 45.4706 121.03 45.8405 120.874 46.1548C120.718 46.4721 120.509 46.7337 120.251 46.9349C119.989 47.1408 119.695 47.2894 119.362 47.3869C119.028 47.4907 118.681 47.5355 118.326 47.5355C117.958 47.5355 117.616 47.4907 117.294 47.3947C116.973 47.3003 116.695 47.1547 116.455 46.9566C116.212 46.7631 116.026 46.5123 115.889 46.2059C115.75 45.9009 115.685 45.534 115.685 45.1083V39.9211H114.739V45.1873C114.739 45.7182 114.835 46.1764 115.021 46.5619C115.204 46.9427 115.455 47.2569 115.775 47.5077C116.094 47.7523 116.469 47.9396 116.9 48.0588C117.337 48.178 117.801 48.2383 118.299 48.2383C118.823 48.2383 119.31 48.1718 119.763 48.0448ZM101.205 45.4071C101.072 45.8452 100.869 46.2229 100.593 46.5356C100.323 46.8483 99.9729 47.099 99.5517 47.2708C99.1258 47.4473 98.6257 47.5355 98.0404 47.5355C97.4914 47.5355 97.0071 47.4504 96.5891 47.2786C96.1726 47.1021 95.8192 46.8575 95.5321 46.5402C95.2482 46.226 95.0321 45.8514 94.8838 45.4148C94.7386 44.983 94.6661 44.5031 94.6661 43.9814C94.6661 43.4582 94.7371 42.983 94.879 42.5511C95.0194 42.1208 95.2308 41.757 95.5132 41.4521C95.7972 41.1533 96.1474 40.9165 96.5702 40.7508C96.9898 40.5852 97.4804 40.5032 98.0404 40.5032C98.5894 40.5032 99.0721 40.5852 99.4902 40.7508C99.913 40.9165 100.262 41.1533 100.549 41.4521C100.831 41.757 101.046 42.1208 101.189 42.5511C101.331 42.983 101.401 43.4582 101.401 43.9814C101.401 44.4969 101.339 44.9737 101.205 45.4071ZM102.093 42.2586C101.902 41.7462 101.623 41.3081 101.255 40.9443C100.885 40.5821 100.434 40.2942 99.8925 40.0976C99.3545 39.8995 98.7377 39.8004 98.0404 39.8004C97.3432 39.8004 96.7216 39.8964 96.1868 40.093C95.6489 40.2911 95.1993 40.5713 94.8317 40.9304C94.4657 41.2942 94.1865 41.7322 93.9972 42.2477C93.8063 42.7663 93.7132 43.3452 93.7132 43.9814C93.7132 44.5975 93.8031 45.1672 93.983 45.6873C94.1628 46.2058 94.4373 46.6579 94.8001 47.0356C95.1614 47.4133 95.6126 47.7089 96.1521 47.921C96.6948 48.13 97.3226 48.2383 98.0404 48.2383C98.7172 48.2383 99.3245 48.1331 99.8625 47.9287C100.397 47.7259 100.852 47.4365 101.225 47.0665C101.596 46.6996 101.883 46.2507 102.081 45.7244C102.278 45.1981 102.376 44.6192 102.376 43.9814C102.376 43.3452 102.284 42.774 102.093 42.2586ZM80.5786 42.904C80.4903 43.113 80.353 43.2957 80.1748 43.4474C79.9902 43.6037 79.7567 43.7229 79.4712 43.8158C79.1841 43.8994 78.8465 43.9505 78.4537 43.9505H76.1662V40.596H78.4095C78.7708 40.596 79.0878 40.627 79.3702 40.6982C79.6542 40.7679 79.894 40.87 80.0959 41.0124C80.2994 41.1502 80.4524 41.322 80.5597 41.5233C80.6654 41.7245 80.7174 41.9613 80.7174 42.226C80.7174 42.4675 80.6733 42.6889 80.5786 42.904ZM81.981 48.1191L79.3055 44.5C79.7252 44.4443 80.0833 44.3437 80.3814 44.1966C80.6812 44.0557 80.9273 43.8793 81.115 43.6672C81.3043 43.4582 81.4415 43.2322 81.5362 42.983C81.6229 42.7338 81.6687 42.4768 81.6687 42.226C81.6687 41.8592 81.5993 41.5341 81.4557 41.2477C81.3074 40.966 81.0992 40.7261 80.8247 40.5326C80.5565 40.3344 80.2221 40.1858 79.8293 40.0821C79.4349 39.9769 78.9869 39.9211 78.4899 39.9211H75.2292V48.1191H76.1662V44.6084H78.3653L80.8673 48.1191H81.981ZM60.1211 48.13C60.4886 48.0557 60.8294 47.955 61.1323 47.8281C61.4446 47.7089 61.7191 47.5634 61.9668 47.3947C62.2129 47.2291 62.4274 47.0479 62.6151 46.8684V44.1223H58.9742V44.7786H61.7365V46.5464C61.6213 46.6625 61.4762 46.7817 61.2995 46.8978C61.1244 47.0092 60.9161 47.1191 60.6795 47.2151C60.4444 47.3095 60.181 47.3869 59.8907 47.4473C59.6005 47.5077 59.2802 47.5355 58.93 47.5355C58.3873 47.5355 57.9078 47.4504 57.4992 47.2786C57.0859 47.1021 56.7451 46.8575 56.4738 46.5402C56.2009 46.226 56.0005 45.8514 55.8601 45.4148C55.7229 44.983 55.655 44.5031 55.655 43.9814C55.655 43.4582 55.7181 42.983 55.8412 42.5511C55.9674 42.1208 56.1598 41.757 56.4217 41.4521C56.6836 41.1533 57.0149 40.9165 57.4219 40.7508C57.8241 40.5852 58.3069 40.5032 58.8669 40.5032C59.2424 40.5032 59.5736 40.5419 59.8608 40.6162C60.1494 40.6905 60.4019 40.7895 60.6211 40.9227C60.8357 41.0542 61.0234 41.2028 61.178 41.3716C61.3295 41.5372 61.4604 41.7183 61.5661 41.9041L62.4164 41.6394C62.2886 41.4103 62.1277 41.1812 61.9352 40.9583C61.7428 40.74 61.5046 40.5419 61.2222 40.3731C60.9366 40.1967 60.6022 40.062 60.2141 39.9552C59.8324 39.8499 59.3828 39.8004 58.8669 39.8004C58.1633 39.8004 57.5512 39.8964 57.0338 40.093C56.5179 40.2911 56.0825 40.5713 55.7355 40.9304C55.3884 41.2942 55.1297 41.7322 54.9562 42.2477C54.7874 42.7663 54.7006 43.3452 54.7006 43.9814C54.7006 44.5975 54.7874 45.1672 54.9562 45.6873C55.1297 46.2058 55.3884 46.6579 55.7386 47.0356C56.0889 47.4133 56.529 47.7089 57.059 47.921C57.5907 48.13 58.2138 48.2383 58.93 48.2383C59.3544 48.2383 59.7519 48.1996 60.1211 48.13ZM162.19 27.9384C161.936 27.9384 161.731 27.7201 161.731 27.4554V17.3441C161.731 17.0748 161.527 16.8581 161.271 16.8581H159.126C158.872 16.8581 158.667 17.0748 158.667 17.3441V30.155C158.667 30.4244 158.872 30.6427 159.126 30.6427H169.541C169.793 30.6427 170 30.4244 170 30.155V28.426C170 28.1566 169.793 27.9384 169.541 27.9384H162.19ZM149.686 20.1181C149.634 19.858 149.38 19.6413 149.129 19.6413H146.701C146.45 19.6413 146.203 19.858 146.157 20.1181L145.815 22.005C145.764 22.2651 145.938 22.4772 146.189 22.4772H149.706C149.96 22.4772 150.125 22.2651 150.071 22.005L149.686 20.1181ZM151.456 16.8581C151.707 16.8581 151.954 17.0717 152.013 17.3333L154.665 30.251C154.718 30.5126 154.557 30.7247 154.302 30.7247H152.308C152.057 30.7247 151.803 30.5126 151.748 30.251L150.781 25.7356C150.726 25.4787 150.473 25.2666 150.218 25.2666H145.69C145.441 25.2666 145.192 25.4787 145.141 25.7387L144.243 30.251C144.193 30.5126 143.942 30.7247 143.691 30.7247H141.694C141.44 30.7247 141.278 30.5126 141.33 30.251L143.896 17.3333C143.95 17.0717 144.198 16.8581 144.453 16.8581H151.456ZM127.083 18.9958C127.083 19.2636 127.286 19.4803 127.539 19.4803H131.379C131.631 19.4803 131.838 19.7001 131.838 19.9664V30.155C131.838 30.4244 132.044 30.6427 132.297 30.6427H134.277C134.529 30.6427 134.736 30.4244 134.736 30.155V19.9664C134.736 19.7001 134.941 19.4803 135.196 19.4803H139.038C139.293 19.4803 139.498 19.2636 139.498 18.9958V17.3441C139.498 17.0748 139.293 16.8581 139.038 16.8581H127.539C127.286 16.8581 127.083 17.0748 127.083 17.3441V18.9958ZM120.263 30.155C120.263 30.4244 120.47 30.6427 120.722 30.6427H122.871C123.122 30.6427 123.327 30.4244 123.327 30.155V17.3441C123.327 17.0748 123.122 16.8581 122.871 16.8581H120.722C120.47 16.8581 120.263 17.0748 120.263 17.3441V30.155ZM106.867 19.5624C106.614 19.5624 106.408 19.7791 106.408 20.0484V22.3967C106.408 22.6645 106.614 22.8827 106.867 22.8827H112.155C112.407 22.8827 112.615 22.6645 112.615 22.3967V20.0484C112.615 19.7791 112.407 19.5624 112.155 19.5624H106.867ZM103.426 17.3441C103.426 17.0748 103.631 16.8581 103.885 16.8581H115.135C115.39 16.8581 115.597 17.0748 115.597 17.3441V25.101C115.597 25.3657 115.39 25.5839 115.135 25.5839H106.867C106.614 25.5839 106.408 25.8022 106.408 26.0715V30.155C106.408 30.4244 106.201 30.6427 105.949 30.6427H103.885C103.631 30.6427 103.426 30.4244 103.426 30.155V17.3441ZM93.434 22.293C93.292 22.5159 93.0633 22.5159 92.9245 22.2899L89.8009 17.2621C89.6637 17.0438 89.345 16.8581 89.0926 16.8581H86.6979C86.4455 16.8581 86.3524 17.0407 86.4944 17.2621L91.4305 25.1211C91.5693 25.344 91.6829 25.7434 91.6829 26.0112V30.155C91.6829 30.4244 91.8912 30.6427 92.142 30.6427H94.2038C94.4578 30.6427 94.6661 30.4244 94.6661 30.155V25.9338C94.6661 25.6691 94.7812 25.2697 94.9248 25.0483L99.9445 17.2621C100.086 17.0407 99.9997 16.8581 99.7458 16.8581H97.3432C97.0923 16.8581 96.7705 17.0407 96.6269 17.2621L93.434 22.293ZM73.3598 19.5624C73.1074 19.5624 72.8991 19.7791 72.8991 20.0484V21.9942C72.8991 22.262 73.1074 22.4772 73.3598 22.4772H78.8954C79.1525 22.4772 79.3592 22.262 79.3592 21.9942V20.0484C79.3592 19.7791 79.1525 19.5624 78.8954 19.5624H73.3598ZM79.6889 25.1815C79.4349 25.1815 79.3544 25.3626 79.5027 25.5731L82.7982 30.2541C82.9497 30.4708 82.8676 30.6427 82.6136 30.6427H80.0186C79.7646 30.6427 79.4349 30.4708 79.285 30.2541L75.988 25.5731C75.8397 25.3626 75.51 25.1815 75.256 25.1815H73.3598C73.1074 25.1815 72.8991 25.4044 72.8991 25.6691V30.155C72.8991 30.4244 72.6941 30.6427 72.4417 30.6427H70.3767C70.1274 30.6427 69.9207 30.4244 69.9207 30.155V17.3441C69.9207 17.0748 70.1274 16.8581 70.3767 16.8581H81.7965C82.0457 16.8581 82.2587 17.0748 82.2587 17.3441V24.6985C82.2587 24.9632 82.0457 25.1815 81.7965 25.1815H79.6889ZM65.7292 17.2389C65.887 17.033 65.8065 16.8581 65.5557 16.8581H62.9385C62.6861 16.8581 62.3501 17.0268 62.1924 17.2389L58.7581 21.7806C58.6019 21.9865 58.2611 22.1552 58.0119 22.1552H56.9391C56.6883 22.1552 56.4801 21.9416 56.4801 21.6722V17.3441C56.4801 17.0748 56.275 16.8581 56.0226 16.8581H54.0412C53.7888 16.8581 53.5821 17.0748 53.5821 17.3441V30.155C53.5821 30.4244 53.7888 30.6427 54.0412 30.6427H56.0226C56.275 30.6427 56.4801 30.4244 56.4801 30.155V25.3517C56.4801 25.0824 56.6883 24.8626 56.9391 24.8626H57.8462C58.1002 24.8626 58.4378 25.0298 58.5987 25.2387L62.5252 30.2727C62.6861 30.4724 63.0237 30.6427 63.2761 30.6427H65.8933C66.1457 30.6427 66.223 30.4724 66.0684 30.2619L61.3058 23.9322C61.1465 23.7202 61.1465 23.3765 61.3026 23.1691L65.7292 17.2389ZM25.6502 33.9259C24.2951 32.172 25.2653 30.5978 25.5666 30.1845L25.6502 30.0746L38.6807 13.2173C39.0467 12.7467 38.8526 12.3581 38.25 12.3581H29.4836C28.881 12.3581 28.0764 12.7359 27.6963 13.1956L18.7831 23.9059C18.4061 24.3657 17.6 24.7403 16.9989 24.7403H5.09166C4.49219 24.7403 4 25.2202 4 25.8099V26.3146C4 26.9043 4.49219 27.3904 5.09166 27.3904H18.2815C18.8825 27.3904 19.6871 27.0142 20.0688 26.5576L28.9788 15.8473C29.359 15.3875 30.1667 15.0129 30.7646 15.0129H32.8075C33.4085 15.0129 33.6042 15.3983 33.2413 15.8689L22.4557 29.8176C22.0944 30.2897 21.3025 30.6705 20.6999 30.6705H5.09166C4.49219 30.6705 4 31.155 4 31.7448V32.2525C4 32.8423 4.49219 33.3253 5.09166 33.3253H20.6999C21.3025 33.3253 22.0944 33.7107 22.4557 34.1797L33.2413 48.13C33.6042 48.5974 33.4085 48.9829 32.8075 48.9829H30.7646C30.1667 48.9829 29.359 48.6083 28.9788 48.1501L20.0688 37.4382C19.6871 36.98 18.8825 36.6085 18.2815 36.6085H5.09166C4.49219 36.6085 4 37.093 4 37.6828V38.1874C4 38.7772 4.49219 39.2602 5.09166 39.2602H16.9989C17.6 39.2602 18.4061 39.6348 18.7831 40.093L27.6963 50.8048C28.0764 51.2599 28.881 51.6345 29.4836 51.6345H38.25C38.8526 51.6345 39.0467 51.2491 38.6807 50.7816L25.6502 33.9259ZM16.9784 43.6486C16.6124 43.178 15.8205 42.7972 15.2179 42.7972H5.09166C4.49219 42.7972 4 43.2787 4 43.8715V50.438C4 51.0277 4.49219 51.5076 5.09166 51.5076H11.0753C11.6779 51.5076 12.1701 51.0277 12.1701 50.438V49.9333C12.1701 49.3405 11.6779 48.856 11.0753 48.856H7.79557C7.19452 48.856 6.70233 48.3761 6.70233 47.7832V46.5232C6.70233 45.9303 7.19452 45.4489 7.79557 45.4489H13.8833C14.4859 45.4489 15.2778 45.8297 15.6423 46.3034L19.523 51.2754C19.8906 51.7445 20.5784 51.8327 21.0564 51.4767L21.465 51.1655C21.9445 50.8079 22.0345 50.1315 21.6685 49.6609L16.9784 43.6486ZM4 20.1258V13.564C4 12.9696 4.49219 12.4897 5.09166 12.4897H11.0753C11.6779 12.4897 12.1701 12.9696 12.1701 13.564V14.0686C12.1701 14.6584 11.6779 15.1414 11.0753 15.1414H7.79557C7.19452 15.1414 6.70233 15.6259 6.70233 16.2157V17.4742C6.70233 18.0686 7.19452 18.5515 7.79557 18.5515H13.8833C14.4859 18.5515 15.2778 18.1661 15.6423 17.6971L19.523 12.7266C19.8906 12.2575 20.5784 12.1647 21.0564 12.5253L21.465 12.8287C21.9445 13.1879 22.0345 13.8659 21.6685 14.3364L16.9784 20.3472C16.6124 20.8178 15.8205 21.1985 15.2179 21.1985H5.09166C4.49219 21.1985 4 20.7202 4 20.1258Z" fill="white"/>
</svg>
