<svg width="175" height="64" viewBox="0 0 175 64" fill="none" xmlns="http://www.w3.org/2000/svg">
<path d="M68.945 25.7084C69.9634 26.3364 70.8251 27.1998 71.3735 28.3773C72.0002 29.5547 72.3136 30.9676 72.3136 32.5375C72.3136 34.1074 72.0002 35.4419 71.2952 36.6193C70.6685 37.7967 69.7284 38.6602 68.5533 39.2097C67.3782 39.8376 65.9681 40.1516 64.4797 40.1516C63.618 40.1516 62.8346 39.9946 62.0512 39.6806C61.2678 39.4451 60.5627 38.9742 60.0144 38.4247V46.5882H55.4707V25.0804H59.3877L59.7794 26.8073C61.5028 25.3944 63.3829 24.688 65.3414 24.688C66.6732 24.688 67.9266 25.0019 68.945 25.7084ZM66.4382 35.4419C67.2215 34.7354 67.6132 33.7935 67.6132 32.616C67.6132 31.4386 67.2216 30.4966 66.5165 29.7117C65.8114 28.9267 64.8714 28.6127 63.853 28.6127C62.9912 28.6127 62.2079 28.7697 61.5811 29.1622C60.9544 29.4762 60.4844 30.0257 60.0927 30.7321V34.2644C60.3277 34.9709 60.7978 35.5204 61.3461 35.9128C61.9728 36.3053 62.6779 36.5408 63.5396 36.5408C64.7147 36.5408 65.6548 36.1483 66.4382 35.4419Z" fill="white"/>
<path d="M74.9799 28.4541C75.6849 27.3552 76.625 26.4132 77.8784 25.7853C79.1318 25.1573 80.5419 24.7648 82.1087 24.7648C83.6755 24.7648 85.0856 25.0788 86.339 25.7853C87.5141 26.4132 88.4542 27.3552 89.1592 28.5326C89.8643 29.7101 90.1776 30.966 90.1776 32.4574C90.1776 33.9488 89.8643 35.2048 89.1592 36.3822C88.4542 37.5596 87.5924 38.5016 86.339 39.1295C85.1639 39.7575 83.6755 40.15 82.1087 40.15C80.5419 40.15 79.1318 39.836 77.8784 39.208C76.625 38.5801 75.6849 37.7166 74.9799 36.5392C74.3531 35.3617 73.9615 34.0273 73.9615 32.4574C73.9615 30.966 74.3531 29.6316 74.9799 28.4541ZM79.6019 35.2832C80.2286 36.0682 81.0903 36.3822 82.1087 36.3822C83.1271 36.3822 83.9888 35.9897 84.6155 35.2832C85.2423 34.5768 85.5556 33.5563 85.5556 32.4574C85.5556 31.28 85.2423 30.338 84.6155 29.6316C83.9105 28.8466 83.1271 28.4541 82.0304 28.4541C81.012 28.4541 80.2286 28.8466 79.5235 29.5531C78.8968 30.338 78.5835 31.28 78.5835 32.4574C78.5835 33.5563 78.8968 34.4983 79.6019 35.2832Z" fill="white"/>
<path d="M97.539 13.9333V39.7584H92.9953V13.9333H97.539Z" fill="white"/>
<path d="M116.186 25.4738L106.942 46.6676H102.555L106.002 39.0536L99.421 25.4738H104.591L108.352 33.9513L112.112 25.4738H116.186Z" fill="white"/>
<path d="M133.572 25.4713V39.7575C133.572 41.0919 133.18 42.3479 132.397 43.4468C131.613 44.5457 130.595 45.4092 129.263 46.0372C127.931 46.6651 126.521 46.9791 124.955 46.9791C123.779 46.9791 122.761 46.8221 121.899 46.5866C121.038 46.2726 120.333 45.9587 119.784 45.6447C119.157 45.2522 118.531 44.7812 117.826 44.1533L120.489 41.0134C121.116 41.6414 121.821 42.1124 122.448 42.4264C123.074 42.7403 123.936 42.9758 124.876 42.9758C126.051 42.9758 126.991 42.6618 127.775 42.1124C128.558 41.5629 128.95 40.6994 128.95 39.679V37.6381C128.48 38.3446 127.853 38.9725 126.913 39.4435C125.973 39.9145 124.876 40.15 123.623 40.15C122.369 40.15 121.116 39.836 120.019 39.1295C118.922 38.5016 118.061 37.5596 117.356 36.3822C116.729 35.2048 116.337 33.9488 116.337 32.5359C116.337 31.123 116.651 29.7886 117.356 28.6111C118.061 27.4337 118.922 26.4917 120.098 25.7853C121.194 25.0788 122.369 24.7648 123.623 24.7648C124.798 24.7648 125.816 24.9218 126.756 25.2358C127.696 25.5498 128.401 26.0208 128.871 26.5702L129.342 25.4713H133.572ZM128.95 34.2628V30.7305C128.636 30.024 128.166 29.4746 127.461 29.0821C126.756 28.6896 125.973 28.4541 125.033 28.4541C123.936 28.4541 122.996 28.8466 122.213 29.5531C121.429 30.2595 121.038 31.2015 121.038 32.3789C121.038 33.4778 121.429 34.4983 122.213 35.2832C122.996 36.0682 123.936 36.4607 125.033 36.4607C126.835 36.3822 128.166 35.6757 128.95 34.2628Z" fill="white"/>
<path d="M137.337 28.4557C138.042 27.2783 138.982 26.4149 140.236 25.7084C141.489 25.0804 142.899 24.688 144.466 24.688C146.033 24.688 147.443 25.0019 148.696 25.7084C149.871 26.3364 150.811 27.2783 151.516 28.4557C152.143 29.6332 152.535 30.8891 152.535 32.3805C152.535 33.8719 152.221 35.1279 151.516 36.3053C150.89 37.4827 149.95 38.4247 148.696 39.0527C147.521 39.6806 146.033 40.0731 144.466 40.0731C142.899 40.0731 141.489 39.7591 140.236 39.1312C138.982 38.5032 138.042 37.6397 137.337 36.4623C136.632 35.2849 136.319 33.9504 136.319 32.302C136.319 30.9676 136.632 29.6332 137.337 28.4557ZM141.881 35.2849C142.507 36.0698 143.369 36.3838 144.388 36.3838C145.406 36.3838 146.268 35.9913 146.894 35.2849C147.521 34.5784 147.834 33.558 147.834 32.459C147.834 31.2816 147.521 30.3396 146.894 29.6332C146.268 28.9267 145.406 28.5342 144.388 28.5342C143.369 28.5342 142.586 28.9267 141.881 29.6332C141.176 30.3396 140.862 31.3601 140.862 32.459C140.941 33.558 141.254 34.4999 141.881 35.2849Z" fill="white"/>
<path d="M168.594 25.9423C169.534 26.7272 169.926 27.7477 170.004 29.0036V39.7575H165.382V30.7305C165.304 29.3176 164.599 28.6111 163.267 28.6111C162.248 28.6111 161.387 29.0821 160.76 30.1025C160.133 31.123 159.82 32.3789 159.82 33.8703V39.7575H155.276V25.4713H159.428L159.741 27.7477C160.29 26.8057 160.995 26.0993 161.935 25.5498C162.875 25.0003 163.972 24.7648 165.225 24.7648C166.557 24.7648 167.732 25.1573 168.594 25.9423Z" fill="white"/>
<path d="M36.0406 25.2373C35.2572 24.7663 34.2388 24.7663 33.3771 25.2373L27.2667 28.8481L23.1147 31.2029L17.0043 34.8137C16.2209 35.2847 15.2025 35.2847 14.3407 34.8137L9.48372 31.9879C8.70034 31.5169 8.15196 30.6535 8.15196 29.7115V24.1383C8.15196 23.1964 8.622 22.3329 9.48372 21.8619L14.2624 19.1146C15.0458 18.6436 16.0642 18.6436 16.9259 19.1146L21.7046 21.8619C22.488 22.3329 23.0364 23.1964 23.0364 24.1383V27.7491L27.1883 25.3158V21.705C27.1883 20.763 26.7183 19.8996 25.8566 19.4286L17.0043 14.2479C16.2209 13.7769 15.2025 13.7769 14.3407 14.2479L5.33176 19.4286C4.47003 19.8996 4 20.763 4 21.705V32.1449C4 33.0868 4.47003 33.9503 5.33176 34.4213L14.3407 39.602C15.1241 40.0729 16.1425 40.0729 17.0043 39.602L23.1147 36.0697L27.2667 33.6363L33.3771 30.104C34.1605 29.633 35.1789 29.633 36.0406 30.104L40.8193 32.8513C41.6027 33.3223 42.1511 34.1858 42.1511 35.1277V40.7009C42.1511 41.6429 41.681 42.5063 40.8193 42.9773L36.0406 45.8031C35.2572 46.2741 34.2388 46.2741 33.3771 45.8031L28.5984 43.0558C27.815 42.5848 27.2667 41.7214 27.2667 40.7794V37.1686L23.1147 39.602V43.2128C23.1147 44.1547 23.5847 45.0182 24.4465 45.4891L33.4554 50.6699C34.2388 51.1408 35.2572 51.1408 36.119 50.6699L45.1279 45.4891C45.9113 45.0182 46.4597 44.1547 46.4597 43.2128V32.7728C46.4597 31.8309 45.9897 30.9674 45.1279 30.4965L36.0406 25.2373Z" fill="white"/>
</svg>
