<svg width="175" height="64" viewBox="0 0 175 64" fill="none" xmlns="http://www.w3.org/2000/svg">
<g clip-path="url(#clip0)">
<path d="M33.6471 39.9999C33.4794 40.0206 33.3092 40.0037 33.1489 39.9505C32.9886 39.8972 32.8422 39.809 32.7206 39.6921L27.7788 34.7692C27.6616 34.648 27.573 34.5021 27.5196 34.3424C27.4661 34.1826 27.4492 34.013 27.47 33.8459C27.4492 33.6788 27.4661 33.5091 27.5196 33.3494C27.573 33.1896 27.6616 33.0438 27.7788 32.9225L40.1288 20.9231C40.2505 20.8063 40.3968 20.718 40.5572 20.6648C40.7175 20.6115 40.8877 20.5946 41.0554 20.6153C41.2231 20.5946 41.3933 20.6115 41.5536 20.6648C41.7139 20.718 41.8603 20.8063 41.982 20.9231L47.2308 25.846C47.5397 25.846 47.5397 26.4616 47.5397 26.7694C47.5605 26.9365 47.5435 27.1061 47.4901 27.2659C47.4367 27.4256 47.3481 27.5715 47.2308 27.6927L34.5711 39.6921C34.4497 39.8086 34.3038 39.8967 34.144 39.9499C33.9841 40.0031 33.8144 40.0202 33.6471 39.9999V39.9999Z" fill="white"/>
<path d="M47.2308 16.0002L37.042 6.15365C35.494 4.81862 33.5306 4.05779 31.4842 4C29.2812 4.0255 27.1756 4.90895 25.6177 6.46144C25 6.76922 25 7.07786 25 7.38479C24.9792 7.55191 24.9961 7.72155 25.0496 7.8813C25.103 8.04106 25.1916 8.18689 25.3088 8.30815L39.2074 21.5387C39.5162 21.8465 39.8251 21.8465 39.8251 22.1543C41.3259 23.7012 42.215 25.7366 42.3286 27.8854C42.4421 30.0341 41.7723 32.1513 40.4428 33.8467L47.2359 27.3849C48.0266 26.6959 48.6571 25.8435 49.0837 24.8871C49.5102 23.9306 49.7226 22.893 49.7059 21.8465C49.679 19.6503 48.7906 17.5519 47.2308 16.0002V16.0002Z" fill="white"/>
<path d="M35.1896 38.154C32.1019 34.7692 31.7948 29.8463 34.8833 26.4615L28.0876 32.9234C26.5289 34.4767 25.6423 36.5764 25.6176 38.773C25.6432 40.9684 26.5297 43.0667 28.0876 44.6192L42.9085 59.6922C43.0301 59.8091 43.1765 59.8973 43.3368 59.9506C43.4971 60.0038 43.6673 60.0207 43.835 60C44.0027 60.0207 44.173 60.0038 44.3333 59.9506C44.4936 59.8973 44.6399 59.8091 44.7616 59.6922C45.5435 58.9309 46.1648 58.0216 46.5889 57.0176C47.0131 56.0136 47.2316 54.9353 47.2316 53.846C47.2316 52.7566 47.0131 51.6783 46.5889 50.6743C46.1648 49.6704 45.5435 48.761 44.7616 47.9997L35.4959 38.7662C35.4976 38.4618 35.1896 38.4618 35.1896 38.154Z" fill="white"/>
<path d="M65.1247 27.1481C64.7173 27.1539 64.3119 27.207 63.9167 27.3063V27.3063C63.5317 27.4318 63.1585 27.5909 62.8014 27.7816C62.4728 27.97 62.1731 28.2047 61.9117 28.4784C61.8172 28.5651 61.7311 28.6604 61.6544 28.7631V27.3097H58.5452V39.3741H61.6604V34.1477C61.555 33.0382 61.8726 31.93 62.55 31.0433C62.8851 30.7096 63.2885 30.4519 63.7328 30.288C64.177 30.1241 64.6515 30.0577 65.1238 30.0935C65.2941 30.0848 65.4648 30.0954 65.6326 30.1251C65.7596 30.1567 65.95 30.1883 66.1414 30.22L66.3636 30.2833V27.4328L66.2366 27.4012C65.9001 27.2069 65.5125 27.1187 65.1247 27.1481V27.1481Z" fill="white"/>
<path d="M147.761 27.1481C147.354 27.1539 146.948 27.207 146.553 27.3063V27.3063C146.168 27.4318 145.795 27.5909 145.438 27.7816C145.109 27.97 144.809 28.2047 144.548 28.4784C144.454 28.5651 144.367 28.6604 144.291 28.7631V27.3097H141.182V39.3741H144.297V34.1477C144.191 33.0382 144.509 31.93 145.186 31.0433C145.521 30.7096 145.925 30.4519 146.369 30.288C146.813 30.1241 147.288 30.0577 147.76 30.0935C147.93 30.0848 148.101 30.0954 148.269 30.1251C148.396 30.1567 148.586 30.1883 148.778 30.22L149 30.2833V27.4328L148.873 27.4012C148.536 27.2069 148.149 27.1187 147.761 27.1481V27.1481Z" fill="white"/>
<path d="M82.7004 28.7323C82.116 28.1448 81.426 27.6721 80.6663 27.3387C79.8318 26.9887 78.9333 26.816 78.0281 26.8317C77.1329 26.8129 76.2441 26.9858 75.4217 27.3387C74.6651 27.6611 73.9835 28.1355 73.4193 28.7323C72.8653 29.3177 72.4332 30.0067 72.1478 30.7594C71.5544 32.3206 71.5544 34.0442 72.1478 35.6053C72.4344 36.3656 72.8721 37.0604 73.4347 37.6481C73.9972 38.2357 74.6731 38.7041 75.4217 39.0252C76.2441 39.3782 77.1329 39.551 78.0281 39.5322C78.9333 39.5478 79.8318 39.3752 80.6663 39.0252C81.4323 38.7033 82.1245 38.2291 82.7004 37.6316C83.2641 37.0476 83.7069 36.3588 84.0036 35.6045C84.2978 34.8246 84.4486 33.9984 84.4489 33.1653C84.4486 32.3424 84.2977 31.5266 84.0036 30.7577C83.7067 30.0039 83.2639 29.3158 82.7004 28.7323V28.7323ZM79.3948 36.4269C78.9761 36.618 78.5204 36.7152 78.0598 36.7117C77.599 36.7186 77.1425 36.6213 76.7249 36.4269C76.3414 36.2391 75.9965 35.9813 75.7082 35.6669C75.4195 35.3401 75.1933 34.9634 75.0408 34.5554C74.8874 34.1179 74.8121 33.6569 74.8186 33.1935C74.8097 32.7299 74.8849 32.2685 75.0408 31.8315C75.1933 31.4236 75.4196 31.0469 75.7082 30.7201C75.9965 30.4056 76.3413 30.1478 76.7249 29.96C77.1447 29.7722 77.5997 29.6752 78.0598 29.6752C78.52 29.6752 78.975 29.7722 79.3948 29.96C79.7931 30.1391 80.1502 30.3978 80.444 30.7201C80.7327 31.0469 80.959 31.4236 81.1115 31.8315C81.2764 32.2671 81.3635 32.728 81.3689 33.1935C81.3664 33.6592 81.2792 34.1207 81.1115 34.5554C80.9665 34.967 80.7394 35.345 80.444 35.6669C80.1504 35.9898 79.7933 36.2491 79.3948 36.4287V36.4269Z" fill="white"/>
<path d="M99.8634 33.3243C99.8898 34.1855 99.6574 35.035 99.1959 35.7635C98.9772 36.0781 98.6805 36.3308 98.3347 36.4973C97.9889 36.6637 97.6058 36.7382 97.2226 36.7134C96.8263 36.7184 96.4342 36.6305 96.0781 36.4569C95.7916 36.2871 95.5429 36.0607 95.3472 35.7918C95.1447 35.4753 95.0144 35.1183 94.9654 34.7461C94.873 34.2982 94.8304 33.8414 94.8384 33.3842V27.143H91.7267V34.3007C91.7219 34.9902 91.775 35.6788 91.8854 36.3595C91.9913 36.904 92.2076 37.4213 92.5211 37.8796C92.8815 38.4009 93.3753 38.8165 93.9513 39.0834C94.6514 39.3916 95.4108 39.5431 96.176 39.5271C97.4157 39.5271 99.0071 39.3373 99.8308 38.3233V39.2099H102.946V27.1481H99.8308V33.3243H99.8634Z" fill="white"/>
<path d="M117.376 36.5869H116.646C116.422 36.5846 116.198 36.5634 115.978 36.5236C115.805 36.4902 115.648 36.3999 115.533 36.2671C115.389 36.0947 115.29 35.8889 115.247 35.6686C115.174 35.2823 115.142 34.8895 115.152 34.4965V29.872H117.853V27.2114H115.152V23.6641H112.037V27.2114H110.034V29.872H112.037V35.13C111.998 35.9527 112.139 36.7739 112.45 37.5367C112.686 38.0502 113.046 38.4967 113.499 38.8354C113.897 39.1093 114.355 39.2833 114.834 39.3424C115.224 39.4006 115.617 39.4323 116.011 39.4373C116.424 39.4373 116.805 39.4057 117.187 39.374C117.569 39.3424 117.854 39.3108 118.077 39.2791L118.235 39.2475V36.4261L117.978 36.521C117.782 36.5745 117.579 36.5967 117.376 36.5869V36.5869Z" fill="white"/>
<path d="M134.125 28.4152C133.606 27.9069 132.99 27.5082 132.313 27.243C131.616 26.9636 130.871 26.8236 130.12 26.8309C129.249 26.8142 128.383 26.976 127.577 27.3063C126.862 27.608 126.222 28.062 125.702 28.6366C125.18 29.2238 124.79 29.9148 124.557 30.6637C124.018 32.2758 124.006 34.0173 124.526 35.6362C124.766 36.3819 125.155 37.0715 125.67 37.6633C126.203 38.2456 126.853 38.7096 127.577 39.0252C128.425 39.3692 129.332 39.5415 130.247 39.5322C131.593 39.5651 132.912 39.153 133.997 38.3601C134.459 38.0176 134.848 37.5869 135.142 37.093C135.425 36.6258 135.619 36.1104 135.714 35.5729L135.746 35.3515H132.631L132.6 35.478C132.434 35.8656 132.184 36.2118 131.869 36.492C131.405 36.8127 130.842 36.9587 130.28 36.9041C129.814 36.9239 129.349 36.8486 128.913 36.6826C128.578 36.5473 128.275 36.3434 128.023 36.0842C127.806 35.8189 127.634 35.5193 127.515 35.1976C127.415 34.8893 127.351 34.5706 127.324 34.2477H135.683L135.715 34.0895C135.778 33.7091 135.81 33.3611 135.842 33.0764V32.348C135.842 31.6074 135.69 30.8747 135.397 30.1943C135.082 29.5308 134.651 28.9284 134.125 28.4152V28.4152ZM130.057 29.2701C130.774 29.248 131.471 29.5099 131.996 29.9985C132.464 30.4841 132.726 31.1309 132.727 31.8042H127.26C127.247 31.4584 127.312 31.114 127.449 30.7962C127.586 30.4784 127.793 30.1951 128.054 29.9669C128.605 29.482 129.324 29.2321 130.058 29.271L130.057 29.2701Z" fill="white"/>
</g>
<defs>
<clipPath id="clip0">
<rect width="124" height="56" fill="white" transform="translate(25 4)"/>
</clipPath>
</defs>
</svg>
