<svg xmlns="http://www.w3.org/2000/svg" xmlns:xlink="http://www.w3.org/1999/xlink" viewBox="0 0 283.598 461.277"><defs><radialGradient id="b" cx="144.825" cy="39.064" r="259.248" gradientTransform="matrix(1.2656 0 0 1 -36.796 0)" gradientUnits="userSpaceOnUse"><stop offset=".059" stop-color="#4b0057"/><stop offset=".878" stop-color="#4b00b3" stop-opacity="0"/></radialGradient><radialGradient id="a" cx="144.03" cy="274.944" r="224.598" gradientUnits="userSpaceOnUse"><stop offset=".059" stop-color="#000e57"/><stop offset=".889" stop-color="#0079b3"/></radialGradient><radialGradient id="i" cx="49.295" cy="162.536" r="17.625" xlink:href="#a"/><radialGradient id="j" cx="245.774" cy="78.766" r="17.626" gradientTransform="rotate(175.137 235.048 87.711)" xlink:href="#a"/><radialGradient id="k" cx="142.22" cy="332.345" r="77.779" xlink:href="#b"/><radialGradient id="c" cx="80.03" cy="250.916" r="247.98" gradientUnits="userSpaceOnUse"><stop offset=".007" stop-color="#d30059"/><stop offset="1" stop-color="#682980"/></radialGradient><radialGradient id="l" cx="107.111" cy="370.344" r="119.866" xlink:href="#c"/><radialGradient id="m" cx="106.388" cy="370.344" r="117.692" xlink:href="#c"/><radialGradient id="n" cx="64.5" cy="334.719" r="69.461" gradientTransform="matrix(.9241 .3822 .3594 -.869 -99.343 510.95)" xlink:href="#c"/><radialGradient id="d" cx="58.814" cy="292.268" r="26.1" gradientUnits="userSpaceOnUse"><stop offset=".059" stop-color="#2c70dd" stop-opacity="0"/><stop offset=".889" stop-color="#51dfff"/></radialGradient><radialGradient id="o" cx="227.687" cy="250.916" r="247.98" gradientTransform="matrix(-1 0 0 1 426.364 0)" xlink:href="#c"/><radialGradient id="p" cx="254.768" cy="370.344" r="119.866" gradientTransform="matrix(-1 0 0 1 426.364 0)" xlink:href="#c"/><radialGradient id="q" cx="254.044" cy="370.344" r="117.692" gradientTransform="matrix(-1 0 0 1 426.364 0)" xlink:href="#c"/><radialGradient id="r" cx="200.945" cy="394.73" r="69.461" gradientTransform="matrix(-.9241 .3822 -.3594 -.869 525.708 510.95)" xlink:href="#c"/><radialGradient id="s" cx="206.471" cy="292.268" r="26.1" gradientTransform="matrix(-1 0 0 1 426.364 0)" xlink:href="#d"/><radialGradient id="t" cx="139.209" cy="199.793" r="103.586" xlink:href="#c"/><radialGradient id="e" cx="169.96" cy="185.129" r="97.207" gradientUnits="userSpaceOnUse"><stop offset="0" stop-color="#d30059"/><stop offset="1" stop-color="#682980" stop-opacity=".6"/></radialGradient><radialGradient id="u" cx="139.986" cy="184.141" r="106.191" xlink:href="#e"/><radialGradient id="v" cx="138.744" cy="79.905" r="40.316" xlink:href="#e"/><radialGradient id="w" cx="148.057" cy="51.793" r="240.162" xlink:href="#c"/><radialGradient id="x" cx="140.339" cy="215.308" r="75.534" xlink:href="#c"/><radialGradient id="f" cx="121.241" cy="174.046" r="95.435" gradientTransform="rotate(45 139.317 212.244)" gradientUnits="userSpaceOnUse"><stop offset=".059" stop-color="#2c70dd"/><stop offset="1" stop-color="#682980"/></radialGradient><radialGradient id="y" cx="120.83" cy="173.025" r="75.524" xlink:href="#f"/><radialGradient id="z" cx="121.614" cy="204.554" r="73.734" xlink:href="#f"/><radialGradient id="A" cx="169.693" cy="265.722" r="100.924" gradientTransform="rotate(81.032 139.686 213.718)" xlink:href="#f"/><radialGradient id="B" cx="168.956" cy="262.406" r="100.925" xlink:href="#f"/><radialGradient id="g" cx="169.325" cy="264.248" r="100.924" gradientTransform="rotate(45 139.317 212.244)" gradientUnits="userSpaceOnUse"><stop offset=".059" stop-color="#2c70dd"/><stop offset=".889" stop-color="#51dfff"/></radialGradient><radialGradient id="h" cx="147.935" cy="211.421" r="77.045" gradientUnits="userSpaceOnUse"><stop offset=".111" stop-color="#51dfff"/><stop offset=".941" stop-color="#2c70dd" stop-opacity="0"/></radialGradient><radialGradient id="C" cx="159.991" cy="240.456" r="71.055" xlink:href="#d"/><radialGradient id="D" cx="169.336" cy="257.415" r="65.083" xlink:href="#g"/><radialGradient id="E" cx="128.772" cy="264.468" r="55.674" gradientTransform="rotate(50.412 139.317 286.752)" xlink:href="#f"/><radialGradient id="F" cx="128.532" cy="263.873" r="44.059" xlink:href="#f"/><radialGradient id="G" cx="128.99" cy="282.266" r="43.014" xlink:href="#f"/><radialGradient id="H" cx="157.038" cy="317.949" r="58.877" xlink:href="#f"/><radialGradient id="I" cx="156.608" cy="316.015" r="58.877" xlink:href="#f"/><radialGradient id="J" cx="156.823" cy="317.09" r="58.877" xlink:href="#g"/><radialGradient id="K" cx="144.344" cy="286.272" r="44.946" xlink:href="#h"/><radialGradient id="L" cx="151.378" cy="303.21" r="41.451" xlink:href="#d"/><radialGradient id="M" cx="156.829" cy="313.103" r="37.968" xlink:href="#g"/><radialGradient id="N" cx="128.772" cy="115.452" r="55.674" gradientTransform="rotate(75.532 139.317 137.736)" xlink:href="#f"/><radialGradient id="O" cx="128.532" cy="114.857" r="44.059" xlink:href="#f"/><radialGradient id="P" cx="128.99" cy="133.25" r="43.014" xlink:href="#f"/><radialGradient id="Q" cx="157.038" cy="168.934" r="58.877" xlink:href="#f"/><radialGradient id="R" cx="156.608" cy="166.999" r="58.877" xlink:href="#f"/><radialGradient id="S" cx="156.823" cy="168.074" r="58.877" xlink:href="#g"/><radialGradient id="T" cx="144.344" cy="137.256" r="44.946" xlink:href="#h"/><radialGradient id="U" cx="151.378" cy="154.194" r="41.451" xlink:href="#d"/><radialGradient id="V" cx="156.829" cy="164.087" r="37.968" xlink:href="#g"/><radialGradient id="W" cx="170.46" cy="105.486" fx="187.384" fy="116.519" r="60.763" xlink:href="#c"/><radialGradient id="X" cx="170.46" cy="102.956" fx="185.609" fy="112.832" r="54.391" xlink:href="#c"/><radialGradient id="Y" cx="60.104" cy="57.547" r="14.022" gradientTransform="rotate(36.276 72.062 167.552)" xlink:href="#d"/><radialGradient id="Z" cx="56.596" cy="72.333" r="8.563" gradientTransform="rotate(32.865 69.395 180.394)" xlink:href="#d"/><radialGradient id="aa" cx="124.258" cy="74.482" r="19.983" xlink:href="#c"/><radialGradient id="ab" cx="122.835" cy="72.989" r="22.649" xlink:href="#c"/><radialGradient id="ac" cx="158.909" cy="71.859" r="23.253" xlink:href="#c"/><radialGradient id="ad" cx="161.69" cy="74.973" r="19.137" xlink:href="#c"/><radialGradient id="ae" cx="131.028" cy="333.612" r="16.816" xlink:href="#c"/></defs><g style="isolation:isolate"><path d="M221.434 359.038l.046-.02.506-.224q.3-.135.665-.305l.005-.002c9.54-4.434 51.132-26.57 40.69-71.359-5.946-25.504-18.897-40.948-30.263-49.992-10.442-8.31-19.545-11.217-20.641-11.547l-.003-.001-.108-.032c.062-.049-.038.405-.268 1.265 3.996-28.345 5.851-57.889 1.38-79.263a136.568 136.568 0 00-14.856-38.832c-.441-.786-.885-1.568-1.336-2.338l-.01-.02c.2-.017.404-.03.604-.048a159.735 159.735 0 00-2.713-4.49q-1.074-1.72-2.168-3.385v-.002l-.11-.168q-.837-1.267-1.683-2.498h.007c-.092-.136-.186-.266-.28-.401-.218-.316-.437-.627-.656-.94-.253-.362-.506-.728-.76-1.085-.12-.168-.239-.33-.358-.496-.23-.323-.463-.641-.694-.96-.219-.3-.437-.603-.655-.9l-.45-.605q-.344-.462-.688-.918l-.577-.764-.536-.698c-.222-.288-.443-.576-.665-.86q-.26-.335-.52-.665l-.61-.768c-.214-.269-.428-.54-.642-.806-.156-.194-.312-.384-.468-.576q-.34-.42-.68-.833-.529-.644-1.056-1.274-.354-.424-.706-.84c-.156-.184-.314-.375-.47-.557-.215-.253-.428-.498-.643-.747l-.085-.1-.041-.048-.445-.51c-.165-.19-.331-.384-.496-.572-.245-.279-.488-.553-.732-.827l-.435-.488-.515-.576-.093-.103-.029-.033a162.358 162.358 0 00-.999-1.095l-.53-.577q-.46-.496-.913-.981l-.141-.15-.144-.154-.408-.43c-.34-.358-.678-.714-1.014-1.062l-.04-.042-.49-.504c-.194-.2-.39-.406-.584-.603l-.002-.003-.486-.493-.354-.356a184.628 184.628 0 00-5.01-4.866l-.276-.26c-.33-.307-.651-.603-.97-.895l-.34-.312c-.305-.277-.6-.545-.894-.809l-.353-.317q-.428-.382-.837-.744a180.402 180.402 0 00-1.129-.987l-.23-.198-.808-.693-.083-.07a134.084 134.084 0 00-2.304-1.913l-.158-.129-.49-.393-.215-.172-.39-.308-.218-.171a86.45 86.45 0 00-.496-.385l-.223-.17a53.49 53.49 0 00-.159-.122l-.145-.11-.11-.081-.081-.061-.058-.042-1.06-.714c-3.904-3.62-6.342-5.542-6.342-5.542.648.838 1.27 1.695 1.898 2.549l-9.641-6.493v-.042l-.032.02-.03-.02v.042l-15.146 10.2-.058.042-.08.06-.11.082-.146.11-.16.121-.222.171a76.904 76.904 0 00-.496.385l-.218.171-.39.308-.215.172-.49.393-.158.129c-.665.539-1.435 1.176-2.303 1.913l-.084.07c-.26.22-.532.455-.807.693l-.231.198a169.211 169.211 0 00-1.129.987q-.41.362-.836.744l-.354.317c-.293.264-.59.532-.894.81l-.34.31-.166.154-.117.107-.687.636-.277.259a183.915 183.915 0 00-4.413 4.266l-.057.058-.539.542-.354.356c-.315.319-.633.646-.952.975l-.162.166c-.155.16-.309.318-.464.48-.344.356-.69.72-1.038 1.086l-.585.62q-.507.54-1.02 1.095-.316.341-.633.689c-.339.37-.677.74-1.019 1.12-.22.244-.443.495-.665.744-.338.38-.676.758-1.017 1.146-.229.261-.459.53-.689.794-.34.392-.68.781-1.022 1.183-.206.242-.415.494-.622.74l-.09.106-.096.114q-.715.85-1.433 1.724c-.056.067-.111.137-.167.205l-.058.07c-.304.372-.608.742-.913 1.12-.276.344-.552.695-.828 1.043-.315.397-.629.793-.944 1.196-.268.345-.537.696-.805 1.046-.274.356-.547.71-.82 1.072l-.26.346c-.225.298-.448.6-.671.9-.21.283-.419.562-.628.847-.157.214-.314.433-.47.649q-.325.448-.65.9c-.148.207-.297.41-.445.62-.237.333-.472.674-.708 1.012-.19.273-.382.544-.572.819-.096.14-.194.276-.29.417h.007q-.945 1.377-1.877 2.797c-.335.509-.669 1.018-1 1.535l-.001.001c-.134.21-.269.416-.403.627a140.55 140.55 0 00-19.652 46.821c-4.13 19.737-2.863 46.44.501 72.733l.002.012q.365 2.853.76 5.697a69.986 69.986 0 00-19.401 11.134l-.003.002c-11.366 9.044-24.317 24.488-30.263 49.992-3.25 13.938-1.454 25.677 2.84 35.377h.001c9.155 20.677 29.682 32.066 37.057 35.607l.01.005c.278.133.537.256.775.366l.016.008q.36.167.657.3l.013.007.491.218.057.024c.291.127.492.211.597.254l.026.011.066.027s-7.668-35.24 26.67-42.984a8.941 8.941 0 001.684.815c.228.086.471.172.727.257l.073.025q.372.123.782.243l.105.03.076.023c.717 3.04 1.193 4.97 1.342 5.565l.007.029.047.187h.062c.117.57.747 1.122 1.831 1.649a14.46 14.46 0 001.514.618c.847.298 1.846.585 2.979.86.69 3.396 1.1 5.29 1.1 5.29h.053c.006.035.026.07.035.106.371 1.35 3.212 2.596 7.828 3.627l.014.003q.568.127 1.171.25l.047.009q.588.119 1.207.233l.094.017c.402.074.811.146 1.233.217l.125.02c.414.07.834.137 1.266.203l.17.026c.421.063.848.126 1.286.188l.218.029c.426.059.856.117 1.297.173l.292.035c.422.053.847.105 1.282.155l.366.04c.42.048.84.095 1.271.14l.411.041c.422.043.845.086 1.276.127l.49.044c.415.038.83.075 1.253.111.184.016.373.03.558.045.409.033.816.066 1.232.097.21.016.425.03.637.045.4.029.8.058 1.206.085l.71.044c.39.024.777.049 1.172.071.281.016.57.03.854.045.356.02.71.039 1.071.057l.927.04c.35.016.697.033 1.05.047.324.013.652.024.979.035.341.013.68.026 1.025.037l1.029.029c.34.01.68.02 1.024.028.374.009.753.015 1.13.023.313.006.624.013.94.018.408.007.822.01 1.235.015.294.003.585.008.88.01q1.06.009 2.132.009c23.04 0 41.78-2.927 42.422-6.575h.053l.008-.035c.04-.188.463-2.15 1.153-5.55 3.124-.856 4.968-1.816 5.176-2.831h.062s.475-1.884 1.274-5.265c.812-.122 1.597-.248 2.337-.377.09-.406.187-.853.289-1.32a4.488 4.488 0 00.688-.463 43.56 43.56 0 0110.631 3.51q1.322.65 2.52 1.369 1.2.717 2.28 1.497 1.081.778 2.05 1.61.97.833 1.832 1.712.864.878 1.627 1.796a29.497 29.497 0 012.078 2.823q.624.962 1.162 1.946.269.491.517.987a36.36 36.36 0 013.37 10.905q.144.955.242 1.882a45.812 45.812 0 01-.473 13.198l.074-.03.013-.005c.105-.043.308-.129.607-.259z" style="mix-blend-mode:screen" fill="url(#b)"/><path d="M60.722 207.832a17.467 17.467 0 001.82 3.328 17.468 17.468 0 003.329 1.82 17.468 17.468 0 00-3.329 1.821 17.467 17.467 0 00-1.82 3.329 17.47 17.47 0 00-1.82-3.329 17.47 17.47 0 00-3.33-1.82 17.47 17.47 0 003.33-1.82 17.47 17.47 0 001.82-3.33zM75.031 87.06a17.465 17.465 0 001.82 3.329 17.465 17.465 0 003.33 1.82 17.467 17.467 0 00-3.33 1.82 17.462 17.462 0 00-1.82 3.329 17.464 17.464 0 00-1.82-3.329 17.467 17.467 0 00-3.329-1.82 17.465 17.465 0 003.329-1.82 17.467 17.467 0 001.82-3.329zM230.697 189.324a17.468 17.468 0 001.82 3.329 17.467 17.467 0 003.33 1.82 17.465 17.465 0 00-3.33 1.82 17.47 17.47 0 00-1.82 3.33 17.467 17.467 0 00-1.82-3.33 17.462 17.462 0 00-3.329-1.82 17.464 17.464 0 003.329-1.82 17.464 17.464 0 001.82-3.329zM242.738 131.705s1.916 4.431 3.034 5.55 5.549 3.034 5.549 3.034-4.43 1.916-5.549 3.034-3.034 5.549-3.034 5.549-1.917-4.43-3.035-5.549-5.549-3.034-5.549-3.034 4.431-1.917 5.55-3.035 3.034-5.549 3.034-5.549zM249.034 233.589s1.916 4.43 3.034 5.548 5.55 3.035 5.55 3.035-4.432 1.917-5.55 3.035-3.034 5.548-3.034 5.548-1.917-4.43-3.035-5.548-5.548-3.035-5.548-3.035 4.43-1.917 5.548-3.035 3.035-5.548 3.035-5.548zM29.241 121.403s1.917 4.43 3.035 5.548 5.548 3.035 5.548 3.035-4.43 1.917-5.548 3.035-3.035 5.548-3.035 5.548-1.917-4.43-3.035-5.548-5.548-3.035-5.548-3.035 4.43-1.917 5.548-3.035 3.035-5.548 3.035-5.548z" fill="#fff"/><path d="M70.452 116.251a9.705 9.705 0 001.011 1.849 9.705 9.705 0 001.849 1.01 9.703 9.703 0 00-1.849 1.012 9.705 9.705 0 00-1.01 1.848 9.703 9.703 0 00-1.012-1.848 9.703 9.703 0 00-1.848-1.011 9.705 9.705 0 001.848-1.011 9.703 9.703 0 001.011-1.849zm144.27 43.738a9.696 9.696 0 01-1.849 1.011 9.696 9.696 0 011.849 1.011 9.696 9.696 0 011.01 1.849 9.696 9.696 0 011.012-1.849 9.696 9.696 0 011.848-1.011 9.696 9.696 0 01-1.848-1.011 9.696 9.696 0 01-1.011-1.849 9.696 9.696 0 01-1.011 1.849zm39.36-39.058a9.7 9.7 0 01-1.849 1.011 9.7 9.7 0 011.849 1.011 9.7 9.7 0 011.01 1.849 9.701 9.701 0 011.012-1.849 9.699 9.699 0 011.848-1.01 9.699 9.699 0 01-1.848-1.012 9.704 9.704 0 01-1.011-1.848 9.703 9.703 0 01-1.011 1.848zM36.274 247.427a9.696 9.696 0 01-1.849 1.01 9.702 9.702 0 011.849 1.011 9.7 9.7 0 011.01 1.849 9.705 9.705 0 011.012-1.849 9.705 9.705 0 011.848-1.01 9.7 9.7 0 01-1.848-1.011 9.702 9.702 0 01-1.011-1.849 9.696 9.696 0 01-1.011 1.849zm138.82-181.444a9.696 9.696 0 01-1.849 1.011 9.696 9.696 0 011.849 1.011 9.696 9.696 0 011.01 1.849 9.696 9.696 0 011.012-1.849 9.696 9.696 0 011.848-1.011 9.696 9.696 0 01-1.848-1.011 9.7 9.7 0 01-1.011-1.849 9.7 9.7 0 01-1.011 1.849zM-14.772 434.872a8.207 8.207 0 00-8.207 8.207 8.207 8.207 0 008.207 8.207 8.207 8.207 0 008.207-8.207 8.207 8.207 0 00-8.207-8.207zm6.976 27.903a2.052 2.052 0 00-2.052 2.052 2.052 2.052 0 002.052 2.051 2.052 2.052 0 002.051-2.051 2.052 2.052 0 00-2.051-2.052zm-35.7-11.49a4.924 4.924 0 00-4.924 4.925 4.924 4.924 0 004.924 4.924 4.924 4.924 0 004.924-4.924 4.924 4.924 0 00-4.924-4.924zm-12.31-82.068a3.283 3.283 0 00-3.283 3.283 3.283 3.283 0 003.283 3.283 3.283 3.283 0 003.282-3.283 3.283 3.283 0 00-3.282-3.283zm193.27 44.317a3.693 3.693 0 103.693 3.693 3.693 3.693 0 00-3.693-3.693zm-3.693 22.159a4.103 4.103 0 104.104 4.103 4.103 4.103 0 00-4.104-4.103zm187.936-18.876a9.848 9.848 0 109.848 9.848 9.848 9.848 0 00-9.848-9.848zm-17.645 51.703a2.872 2.872 0 102.873 2.872 2.872 2.872 0 00-2.873-2.872zm.41-26.262a4.103 4.103 0 104.104 4.103 4.103 4.103 0 00-4.103-4.103zm-13.95-60.73a3.283 3.283 0 103.282 3.282 3.283 3.283 0 00-3.283-3.282zm77.964 51.703a13.13 13.13 0 1013.13 13.13 13.13 13.13 0 00-13.13-13.13zm-15.593 43.496a3.283 3.283 0 103.283 3.282 3.283 3.283 0 00-3.283-3.282zm14.772-70.579a2.462 2.462 0 102.462 2.462 2.462 2.462 0 00-2.462-2.462zm6.566-25.441a4.103 4.103 0 104.103 4.103 4.103 4.103 0 00-4.103-4.103zm-27.493 62.372a2.872 2.872 0 102.872 2.872 2.872 2.872 0 00-2.872-2.872zM27.493 473.444a6.155 6.155 0 106.155 6.155 6.155 6.155 0 00-6.155-6.155zM-48.83 302.742a4.514 4.514 0 00-4.514 4.514 4.514 4.514 0 004.514 4.514 4.514 4.514 0 004.513-4.514 4.514 4.514 0 00-4.514-4.514zm10.668 30.365a2.052 2.052 0 00-2.051 2.052 2.052 2.052 0 002.051 2.052 2.052 2.052 0 002.052-2.052 2.052 2.052 0 00-2.052-2.051zm-34.468-5.744a8.617 8.617 0 00-8.617 8.617 8.617 8.617 0 008.617 8.617 8.617 8.617 0 008.617-8.617 8.617 8.617 0 00-8.617-8.617zm18.055-5.745a2.052 2.052 0 00-2.052 2.052 2.052 2.052 0 002.052 2.051 2.052 2.052 0 002.052-2.051 2.052 2.052 0 00-2.052-2.052zm-31.596 76.323a7.386 7.386 0 00-7.387 7.387 7.386 7.386 0 007.387 7.386 7.386 7.386 0 007.386-7.387 7.386 7.386 0 00-7.386-7.386zm35.7 0a2.052 2.052 0 00-2.052 2.052 2.052 2.052 0 002.051 2.052 2.052 2.052 0 002.052-2.052 2.052 2.052 0 00-2.052-2.052zm-26.673 77.144a4.103 4.103 0 00-4.103 4.104 4.103 4.103 0 004.103 4.103 4.103 4.103 0 004.103-4.103 4.103 4.103 0 00-4.103-4.104zM2.872 407.79a2.872 2.872 0 102.873 2.873 2.872 2.872 0 00-2.873-2.873zm155.93 4.925a4.514 4.514 0 104.514 4.513 4.514 4.514 0 00-4.514-4.513zm-9.848-14.773a2.052 2.052 0 102.051 2.052 2.052 2.052 0 00-2.051-2.052zm0 25.441a3.693 3.693 0 103.693 3.694 3.693 3.693 0 00-3.693-3.694zm-33.648.821a2.872 2.872 0 102.872 2.873 2.872 2.872 0 00-2.872-2.873zm107.509-202.708a2.872 2.872 0 102.872 2.872 2.872 2.872 0 00-2.872-2.872zm24.62-45.138a1.231 1.231 0 101.231 1.231 1.231 1.231 0 00-1.23-1.23zm2.873 34.469a.82.82 0 10.82.82.82.82 0 00-.82-.82z" style="mix-blend-mode:screen" opacity=".5" fill="url(#a)"/><path d="M53.437 164.448a.956.956 0 11-.956-.956.956.956 0 01.956.956zm7.645-17.522a1.911 1.911 0 101.912 1.912 1.911 1.911 0 00-1.912-1.912zm3.823 22.937a3.823 3.823 0 103.823 3.823 3.823 3.823 0 00-3.823-3.823zm-33.131 4.46a1.911 1.911 0 101.911 1.912 1.911 1.911 0 00-1.911-1.912z" style="mix-blend-mode:screen" fill="url(#i)"/><path d="M220.83 95.98a.956.956 0 111.034.872.956.956 0 01-1.033-.871zm-6.131 18.108a1.911 1.911 0 10-2.067-1.743 1.912 1.912 0 002.067 1.743zm-5.755-22.53a3.823 3.823 0 10-4.134-3.485 3.823 3.823 0 004.134 3.484zm32.634-7.255a1.911 1.911 0 10-2.067-1.743 1.911 1.911 0 002.067 1.743z" style="mix-blend-mode:screen" fill="url(#j)"/><path d="M141.408 395.758c-59.194-26.903-24.404-63.3-24.404-63.3l43.097.527c34.79 31.65-18.693 62.773-18.693 62.773z" style="mix-blend-mode:screen" fill="url(#k)"/><path d="M157.303 337.604l-37.285-.45s-30.097 30.996 21.113 53.906c0 0 46.27-26.503 16.172-53.456z" fill="#f9bd00"/><path d="M157.303 337.604l-37.285-.45s-30.097 30.996 21.113 53.906c0 0 46.27-26.503 16.172-53.456z" style="mix-blend-mode:multiply" fill="#f9bd00"/><path d="M149.932 348.488l-21.973-.264S110.222 366.49 140.4 379.99c0 0 27.267-15.619 9.53-31.502z" style="mix-blend-mode:multiply" fill="#f9bd00"/><path d="M150.013 337.476l-22.142-.321s-17.873 22.183 12.538 38.58c0 0 27.477-18.969 9.604-38.259z" fill="#f9bd00"/><path d="M145.485 337.545l-12.736-.22s-10.282 15.17 7.212 26.382c0 0 15.805-12.971 5.524-26.162z" style="mix-blend-mode:multiply" fill="#f9bd00"/><path d="M144.143 337.545l-9.948-.22s-8.03 15.17 5.633 26.382c0 0 12.346-12.971 4.315-26.162z" style="mix-blend-mode:screen" fill="#f9bd00"/><path d="M157.303 337.604l-37.285-.45a36.01 36.01 0 00-6.007 9.106l32.436.39c17.636 15.794 9.05 31.43-1.082 41.674 10.692-7.436 36.27-28.93 11.938-50.72z" style="mix-blend-mode:multiply" fill="#f9bd00"/><path d="M127.837 350.64a24.783 24.783 0 00-16.569 6.239c-.533 10.387 5.34 23.21 29.863 34.181 0 0 2.429-1.392 5.808-3.858a21.809 21.809 0 004.986-13.837c0-12.55-10.785-22.724-24.088-22.724z" style="mix-blend-mode:screen" fill="#f9bd00" opacity=".4"/><path d="M81.69 225.556s-31.007 11.074-40.31 61.572 33.666 72.204 33.666 72.204-7.088-41.196 28.35-44.297c0 0-22.37-90.144-21.706-89.48z" fill="url(#c)"/><path d="M103.396 315.035s-22.37-90.144-21.706-89.48c0 0-7.597 2.718-16.397 11.581 3.844 1.088 9.335 5.102 10.653 18.934 2.077 21.816-9.87 44.152-11.428 67.526-1.045 15.675-12.134 10.559-20.893-1.091 8.902 25.445 31.421 36.827 31.421 36.827s-7.088-41.196 28.35-44.297z" style="mix-blend-mode:multiply" opacity=".25" fill="url(#l)"/><path d="M103.396 315.035s-22.37-90.144-21.706-89.48a41.08 41.08 0 00-9.492 5.562c1.106 1.343 3.545 4.96 5.318 12.35 2.362 9.84 7.48 57.473 6.299 63.771S70.43 321.804 68.069 346.21c0 0-4.269 2.601-12.8-3.402a70.405 70.405 0 0019.777 16.524s-7.088-41.196 28.35-44.297z" style="mix-blend-mode:multiply" opacity=".25" fill="url(#m)"/><path d="M48.14 320.151s-8.09-18.742-.447-44.883 18.267-32.673 20.196-28.398-15.486 23.393-19.749 73.281z" style="mix-blend-mode:screen" fill="url(#n)"/><path d="M57.103 260.28c1.417.504 1.365 4.286-.116 8.448s-3.83 7.127-5.247 6.623-1.365-4.286.116-8.448 3.83-7.127 5.247-6.623zM47.5 284.6c-.609 2.673-.364 5.008.546 5.216s2.141-1.792 2.75-4.465.365-5.01-.545-5.216-2.142 1.791-2.75 4.465z" style="mix-blend-mode:screen" fill="url(#d)"/><path d="M197.017 225.556s31.008 11.074 40.31 61.572-33.665 72.204-33.665 72.204 7.087-41.196-28.35-44.297c0 0 22.37-90.144 21.705-89.48z" fill="url(#o)"/><path d="M175.312 315.035s22.37-90.144 21.705-89.48c0 0 7.597 2.718 16.398 11.581-3.844 1.088-9.336 5.102-10.653 18.934-2.078 21.816 9.869 44.152 11.427 67.526 1.045 15.675 12.135 10.559 20.894-1.091-8.902 25.445-31.421 36.827-31.421 36.827s7.087-41.196-28.35-44.297z" style="mix-blend-mode:multiply" opacity=".25" fill="url(#p)"/><path d="M175.312 315.035s22.37-90.144 21.705-89.48a41.082 41.082 0 019.492 5.562c-1.105 1.343-3.544 4.96-5.318 12.35-2.362 9.84-7.48 57.473-6.298 63.771s13.384 14.566 15.746 38.972c0 0 4.269 2.601 12.8-3.402a70.405 70.405 0 01-19.777 16.524s7.087-41.196-28.35-44.297z" style="mix-blend-mode:multiply" opacity=".25" fill="url(#q)"/><path d="M230.567 320.151s8.091-18.742.448-44.883-18.267-32.673-20.196-28.398 15.485 23.393 19.748 73.281z" style="mix-blend-mode:screen" fill="url(#r)"/><path d="M226.851 266.903c1.481 4.162 1.533 7.944.116 8.448s-3.766-2.46-5.246-6.623-1.533-7.944-.116-8.448 3.766 2.46 5.246 6.623zm1.605 13.232c-.91.207-1.154 2.542-.545 5.216s1.84 4.672 2.75 4.465 1.154-2.543.545-5.216-1.84-4.673-2.75-4.465z" style="mix-blend-mode:screen" fill="url(#s)"/><path d="M185.132 162.935c-7.145-56.334-36.44-91.543-36.44-91.543l-9.25-10.277v-.042l-.019.021-.019-.021v.042l-9.25 10.277s-29.295 35.209-36.44 91.543 12.147 169.003 12.147 169.003h.042c.508 3.648 15.315 6.575 33.52 6.575s33.013-2.927 33.52-6.575h.043s19.292-112.668 12.147-169.003z" fill="#d30059"/><path d="M185.545 166.574a158.014 158.014 0 00-.412-3.639c-7.146-56.334-36.44-91.543-36.44-91.543l-9.25-10.277v-.042l-.02.021-.019-.021v.042l-9.25 10.277s-29.295 35.209-36.44 91.543c-2.806 22.128-1.533 52.947 1.047 82.216 4.047 43.378 10.672 82.08 10.672 82.08h.042c.508 3.649 15.315 6.575 33.52 6.575a141.159 141.159 0 0018.999-1.192 7.087 7.087 0 01-2.847 3.384c-3.13 1.937-37.14 2.576-49.216-3.953.78 3.598 15.466 6.468 33.492 6.468 18.206 0 33.013-2.927 33.52-6.575h.043s.508-2.972 1.327-8.169l-1.269.538c2.792-17.064 16.574-105.174 12.5-157.733z" style="mix-blend-mode:multiply" opacity=".25" fill="url(#t)"/><path d="M192.174 154.519c-8.313-56.335-42.396-91.544-42.396-91.544L139.016 52.7v-.043l-.022.022-.022-.022v.043l-10.763 10.276s-34.082 35.21-42.395 91.544 14.132 169.003 14.132 169.003h.049c.59 3.648 17.818 6.574 38.999 6.574s38.408-2.926 38.999-6.574h.049s22.445-112.669 14.132-169.003z" fill="#f9bd00"/><path d="M191.908 152.892c-8.724-55.377-42.13-89.917-42.13-89.917L139.016 52.7v-.043l-.022.022-.022-.022v.043l-10.763 10.276s-34.082 35.21-42.395 91.544c-4.588 31.094.194 79.344 5.4 116.344 4.005 27.522 8.02 47.677 8.02 47.677h.049c.59 3.648 17.818 6.575 38.999 6.575a191.828 191.828 0 0021.775-1.153 4.214 4.214 0 01-1.526 2.795c-1.698 1.018-44.761 4.487-58.628-3.45l.043.215h.049c.59 3.648 17.818 6.574 38.999 6.574s38.408-2.926 38.999-6.574h.049s.983-4.94 2.46-13.247l-1.8 1.028c4.638-25.164 19.118-109.985 13.206-158.411z" style="mix-blend-mode:multiply" fill="#f9bd00" opacity=".5"/><path d="M197.895 147.558c-9.243-55.914-47.142-90.861-47.142-90.861l-11.967-10.2v-.042l-.025.02-.024-.02v.042l-11.968 10.2s-37.898 34.947-47.142 90.861S95.34 315.303 95.34 315.303h.054c.657 3.62 19.814 6.525 43.366 6.525s42.71-2.905 43.366-6.525h.054s24.958-111.83 15.714-167.745z" fill="#fbe6c4"/><g style="mix-blend-mode:screen" opacity=".5" fill="#fbe6c4"><path d="M144.327 52.038l8.91 7.594a45.164 45.164 0 00-.175-.164l-8.735-7.445z"/><path d="M144.278 51.996l.025.021.009-.008-3.217-2.741v-.042l-.025.02-.025-.02v.042l-11.967 10.2S91.18 94.414 81.936 150.329c-8.76 52.99 13.193 156.183 15.514 166.834a19.268 19.268 0 002.864 1.059C96.666 301.164 76.756 203.99 85.168 153.1c9.244-55.915 47.143-90.862 47.143-90.862l11.967-10.2z" style="mix-blend-mode:screen"/></g><path d="M124.926 321.421c-8.207-41.583-33.194-191.493 15.039-270.433 0 0-41.652 41.53-48.244 102.885-5.86 54.542 9.115 145.541 12.514 165.082a137.742 137.742 0 0020.691 2.466z" style="mix-blend-mode:screen" fill="#fbe6c4" opacity=".5"/><path d="M160.204 320.346c8.207-41.584 33.194-191.494-15.039-270.433 0 0 41.653 41.529 48.244 102.885 5.86 54.542-9.115 145.54-12.514 165.082a137.742 137.742 0 01-20.691 2.466z" style="mix-blend-mode:multiply" opacity=".25" fill="url(#e)"/><path d="M150.753 56.697l-11.967-10.2v-.042l-.025.02-.024-.02v.042l-.71.605c30.06 26.345 56.502 125.694 43.44 182.69-9.442 41.204-35.094 68.957-67.11 51.102-20.604-11.491-29.784-41.587-34.334-60.604 4.872 48.196 15.318 95.013 15.318 95.013h.054c.657 3.62 19.814 6.525 43.366 6.525s42.71-2.905 43.366-6.525h.054s24.958-111.83 15.714-167.745-47.142-90.861-47.142-90.861z" style="mix-blend-mode:multiply" opacity=".25" fill="url(#u)"/><path d="M138.344 111.34c16.535 0 32.583-.803 47.967-2.275a180.163 180.163 0 00-20.496-34.983 138.568 138.568 0 00-14.561-15.37l-12.883-10.2v-.041l-.027.02-.026-.02v.042l-12.883 10.2s-2.436 2.092-6.253 6.053a180.03 180.03 0 00-28.004 44.374 504.399 504.399 0 0047.166 2.2z" style="mix-blend-mode:multiply" opacity=".25" fill="url(#v)"/><path d="M139.023 108.796a434.803 434.803 0 0046.548-2.476c-14.491-31.628-34.556-50.151-34.556-50.151l-11.968-10.2v-.042l-.024.02-.025-.02v.042l-11.967 10.2s-20.065 18.523-34.557 50.151a434.806 434.806 0 0046.549 2.476z" fill="#f9bd00"/><path d="M138.424 100.893a378.151 378.151 0 0043.29-2.448 182.132 182.132 0 00-17.411-27.219 132.89 132.89 0 00-12.611-12.662l-13.24-10.2v-.042l-.028.02-.027-.02v.042l-13.24 10.2s-1.318 1.1-3.534 3.212a178.943 178.943 0 00-25.359 36.798 378.896 378.896 0 0042.16 2.319z" style="mix-blend-mode:screen" fill="#f9bd00"/><path d="M139.023 98.497a308.27 308.27 0 0041.28-2.72c-13.64-25.156-29.288-39.608-29.288-39.608l-11.968-10.2v-.042l-.024.02-.025-.02v.042l-11.967 10.2S111.38 70.62 97.74 95.777a308.27 308.27 0 0041.282 2.72z" fill="url(#w)"/><path d="M181.552 215.308a41.26 41.26 0 01-25.171 37.974q-1.85.782-3.787 1.386a41.199 41.199 0 01-12.255 1.853c-.68 0-1.354-.019-2.025-.052-.221-.01-.44-.03-.66-.045a41.85 41.85 0 01-1.339-.102c-.262-.025-.522-.059-.782-.09a41.43 41.43 0 01-1.19-.15c-.275-.04-.547-.087-.82-.133a40.868 40.868 0 01-1.126-.2 40.426 40.426 0 01-.829-.173q-.546-.118-1.086-.25a40.25 40.25 0 01-1.886-.512c-.27-.08-.54-.16-.806-.246a41.029 41.029 0 01-1.055-.356c-.258-.09-.517-.178-.774-.274-.36-.134-.716-.278-1.072-.422-.238-.097-.478-.188-.714-.289a40.936 40.936 0 01-1.229-.556c-.17-.079-.344-.152-.513-.234q-.838-.405-1.654-.847c-.235-.127-.463-.263-.695-.394-.317-.18-.635-.357-.946-.544-.258-.156-.51-.319-.765-.48-.277-.174-.555-.349-.828-.53-.261-.174-.518-.355-.775-.534-.257-.18-.513-.359-.765-.544a41.603 41.603 0 01-.774-.584q-.358-.276-.71-.558-.388-.312-.767-.632-.333-.282-.658-.57a41.56 41.56 0 01-.759-.683c-.204-.189-.403-.382-.603-.575-.253-.244-.506-.488-.753-.738-.18-.184-.356-.373-.534-.56-.255-.27-.511-.536-.759-.812-.138-.154-.27-.313-.406-.469a41.377 41.377 0 01-2.712-3.462c-.088-.125-.18-.247-.266-.374-.237-.346-.463-.7-.69-1.054-.11-.172-.223-.343-.33-.517a41.143 41.143 0 01-.624-1.049c-.109-.189-.22-.377-.326-.567-.197-.353-.386-.71-.573-1.068a41.832 41.832 0 01-.301-.59q-.272-.544-.528-1.097-.137-.297-.27-.596a40.83 40.83 0 01-.487-1.14c-.078-.192-.153-.385-.228-.577a40.82 40.82 0 01-.451-1.2c-.061-.172-.117-.346-.176-.519a40.995 40.995 0 01-.425-1.302l-.088-.312a40.941 40.941 0 01-1.035-4.414c-.032-.18-.067-.36-.097-.541-.009-.057-.02-.113-.03-.17v-.005c-.048-.298-.087-.599-.128-.9q-.06-.442-.112-.887c-.035-.305-.069-.61-.097-.916a40.841 40.841 0 01-.088-1.163c-.015-.24-.034-.478-.045-.719a41.326 41.326 0 01-.05-1.936 41.545 41.545 0 01.475-6.277 41.105 41.105 0 0111.597-22.866q1.398-1.398 2.926-2.66 1.527-1.26 3.173-2.372a41.021 41.021 0 0123.043-7.039c.659 0 1.313.02 1.965.05.21.01.418.027.627.04.443.027.884.06 1.323.1.241.023.48.05.72.077q.615.069 1.224.155c.24.035.48.069.72.107.418.068.834.144 1.249.223.214.042.429.08.641.123q.833.175 1.654.382l.269.067q.858.223 1.701.483c.224.069.445.145.667.217.37.12.74.243 1.105.374.25.09.498.183.746.277q.5.19.992.391c.256.105.51.21.764.32.32.139.636.284.952.43.247.116.496.228.74.347.344.168.682.345 1.02.522q.588.308 1.165.634c.312.177.626.352.933.537.275.165.545.339.816.51.238.151.476.301.711.456.282.187.56.378.836.571q.319.223.634.45c.285.208.568.417.848.631.184.14.365.285.546.43.295.233.59.467.88.709.105.088.207.18.312.27a41.405 41.405 0 013.105 2.948c.097.1.194.2.29.302.295.318.584.642.87.97q.146.165.29.333.434.507.852 1.027l.202.257a41.275 41.275 0 013.536 5.27l.037.063q.375.667.723 1.35l.097.188q.346.682.668 1.377l.048.106a40.894 40.894 0 012.269 6.246v.003q.183.667.342 1.344v.001q.261 1.1.461 2.22c.013.067.025.133.036.2q.175 1 .3 2.016c.017.133.035.265.05.399.071.62.126 1.246.169 1.875.011.167.028.334.038.502.043.768.07 1.541.07 2.32zm-17.212 73.145c-.005-.097-.015-.192-.022-.289a24.147 24.147 0 00-.098-1.097c-.009-.078-.02-.154-.03-.231q-.073-.594-.174-1.178l-.021-.115a23.86 23.86 0 00-1.805-5.754l-.01-.023q-.405-.878-.876-1.716l-.008-.014a24.077 24.077 0 00-2.122-3.154l-.052-.067q-.58-.723-1.21-1.4l-.07-.073a24.169 24.169 0 00-2.718-2.478c-.048-.038-.095-.076-.144-.113q-.702-.54-1.444-1.03l-.174-.11a23.986 23.986 0 00-3.153-1.717c-.083-.038-.164-.076-.248-.112q-.79-.346-1.61-.636c-.092-.033-.185-.063-.277-.094a23.855 23.855 0 00-3.48-.896c-.108-.02-.215-.04-.323-.058q-.862-.142-1.743-.221c-.112-.01-.224-.017-.336-.026a24.324 24.324 0 00-1.853-.078 23.955 23.955 0 00-16.166 6.246q-.854.776-1.631 1.63a23.97 23.97 0 00-6.246 16.166c0 .62.031 1.232.077 1.839.008.1.014.201.023.301.05.561.116 1.117.203 1.666v.002l.024.132.023.13a23.873 23.873 0 00.94 3.695c.014.043.027.085.042.127l.04.12q.33.933.735 1.828l.079.175q.406.884.879 1.729l.085.148c.327.573.673 1.132 1.044 1.674l.035.05a24.156 24.156 0 002.544 3.103c.04.04.078.082.117.123q.661.673 1.375 1.292l.19.164q.707.603 1.46 1.152c.068.05.137.097.206.146.513.365 1.038.714 1.58 1.038.049.03.098.056.147.085.567.334 1.145.65 1.74.937l.008.004c.586.283 1.187.538 1.798.774.072.028.144.058.217.085.583.219 1.18.412 1.784.586.1.028.2.058.301.085q.899.246 1.824.422c.104.02.209.038.313.056.629.111 1.265.202 1.91.263.079.007.159.011.239.018.68.058 1.366.094 2.06.094a24.029 24.029 0 0019.267-9.657q.692-.926 1.296-1.919.3-.495.579-1.006a23.936 23.936 0 002.901-11.46c0-.458-.015-.912-.04-1.363zM116.396 142.94c.05.561.116 1.117.203 1.666v.002l.024.132.023.13a23.881 23.881 0 00.94 3.696l.042.126.04.12q.33.933.735 1.828l.079.175q.406.884.879 1.729l.085.149c.327.572.673 1.132 1.044 1.674l.034.047a24.159 24.159 0 002.546 3.106l.116.122q.661.673 1.375 1.292l.19.164q.707.603 1.46 1.152c.068.05.137.097.206.146.513.366 1.039.714 1.58 1.039.048.029.097.055.145.083.568.335 1.148.651 1.744.94l.005.002c.587.284 1.189.538 1.8.774.072.028.143.058.214.085.585.219 1.182.412 1.787.586.1.029.199.058.299.085q.9.246 1.827.423c.103.02.206.037.31.055.63.111 1.266.202 1.911.263.079.008.158.012.237.018.68.058 1.367.094 2.063.094a24.044 24.044 0 0021.671-13.619q.254-.525.482-1.065.456-1.079.808-2.209a24.034 24.034 0 001.081-7.15 24.4 24.4 0 00-.04-1.362c-.006-.097-.016-.192-.022-.289a24.278 24.278 0 00-.099-1.097c-.009-.077-.02-.154-.03-.23q-.073-.594-.174-1.179l-.021-.115a23.863 23.863 0 00-1.805-5.753l-.01-.024q-.405-.878-.876-1.716l-.009-.014a24.076 24.076 0 00-2.12-3.152l-.054-.069q-.578-.723-1.21-1.4l-.07-.073a24.176 24.176 0 00-2.717-2.478c-.048-.037-.095-.076-.144-.113q-.702-.54-1.444-1.029c-.057-.038-.116-.074-.174-.111a23.974 23.974 0 00-3.153-1.717c-.083-.037-.164-.076-.248-.112q-.79-.346-1.61-.636l-.277-.094a23.868 23.868 0 00-3.48-.896c-.108-.02-.215-.04-.323-.057q-.862-.142-1.743-.222c-.112-.01-.224-.017-.336-.026a24.272 24.272 0 00-1.853-.078 24.043 24.043 0 00-24.043 24.043c0 .619.031 1.23.077 1.838.008.1.014.201.023.301z" style="mix-blend-mode:multiply" opacity=".25" fill="url(#x)"/><circle cx="139.317" cy="212.244" r="41.213" transform="rotate(-45 139.317 212.244)" fill="url(#f)"/><path d="M98.849 214.664a41.212 41.212 0 0180.216-13.31 41.213 41.213 0 10-78.75 24.201 41.233 41.233 0 01-1.466-10.891z" style="mix-blend-mode:screen" fill="url(#y)"/><path d="M179.407 202.697a41.212 41.212 0 01-80.784 16.069 41.213 41.213 0 1080.784-16.069z" style="mix-blend-mode:multiply" opacity=".5" fill="url(#z)"/><circle cx="139.686" cy="213.718" r="33.737" transform="rotate(-81.032 139.686 213.718)" style="mix-blend-mode:screen" fill="url(#A)"/><circle cx="138.949" cy="210.402" r="33.737" style="mix-blend-mode:multiply" opacity=".5" fill="url(#B)"/><circle cx="139.317" cy="212.244" r="33.737" transform="rotate(-45 139.317 212.244)" fill="url(#g)"/><path d="M140.152 202.308a30.367 30.367 0 0114.399 3.63c3.79 2.048 8.45 8.875 13.1 7.952 7-1.389-.394-18.537-5.667-23.97-6.23-6.419-13.88-9.983-22.826-9.983-16.76 0-30.546 12.56-30.548 29.319 0 2.35 1.62 6.092 4.387 6.256 3.193.19 4.834-3.62 7.052-5.585a30.454 30.454 0 0120.103-7.619z" style="mix-blend-mode:screen" fill="url(#h)"/><path d="M162.91 201.268a26.266 26.266 0 00-3.793-13.635 31.248 31.248 0 00-48.95 12.217c-.025.47-.039.942-.039 1.418a26.39 26.39 0 0052.781 0z" style="mix-blend-mode:screen" fill="url(#C)"/><path d="M171.975 203.75a34.086 34.086 0 01.2 3.656 33.741 33.741 0 01-66.394 8.495 33.738 33.738 0 1066.194-12.152z" style="mix-blend-mode:multiply" fill="url(#D)"/><ellipse cx="151.42" cy="186.37" rx="2.369" ry="6.449" transform="rotate(-71.8 151.42 186.37)" fill="#fff"/><path d="M141.892 184.104c-.048.934-2.15 1.585-4.694 1.454s-4.568-.995-4.52-1.93 2.15-1.585 4.695-1.454 4.567.995 4.519 1.93z" fill="#fff"/><path d="M133.18 223.686a15.368 15.368 0 001.6 2.928 15.37 15.37 0 002.929 1.602 15.368 15.368 0 00-2.928 1.6 15.368 15.368 0 00-1.601 2.929 15.37 15.37 0 00-1.602-2.928 15.368 15.368 0 00-2.928-1.601 15.37 15.37 0 002.928-1.602 15.37 15.37 0 001.602-2.928zm3.384-12.537a8.49 8.49 0 01-1.618.884 8.485 8.485 0 011.618.885 8.485 8.485 0 01.884 1.618 8.49 8.49 0 01.885-1.618 8.488 8.488 0 011.618-.885 8.492 8.492 0 01-1.618-.884 8.492 8.492 0 01-.885-1.618 8.488 8.488 0 01-.884 1.618zm4.545-13.955a8.485 8.485 0 01-1.618.885 8.49 8.49 0 011.618.885 8.488 8.488 0 01.885 1.617 8.492 8.492 0 01.884-1.617 8.492 8.492 0 011.618-.885 8.488 8.488 0 01-1.618-.885 8.49 8.49 0 01-.884-1.618 8.485 8.485 0 01-.885 1.618zm12.241 32.06a7.725 7.725 0 01-1.472.805 7.725 7.725 0 011.472.806 7.724 7.724 0 01.805 1.472 7.728 7.728 0 01.805-1.472 7.725 7.725 0 011.472-.806 7.725 7.725 0 01-1.472-.805 7.725 7.725 0 01-.805-1.472 7.721 7.721 0 01-.805 1.472zm-34.159-15.225a7.725 7.725 0 01-1.472.805 7.725 7.725 0 011.472.805 7.728 7.728 0 01.805 1.473 7.728 7.728 0 01.805-1.473 7.725 7.725 0 011.473-.805 7.725 7.725 0 01-1.473-.805 7.725 7.725 0 01-.805-1.472 7.725 7.725 0 01-.805 1.472zm38.744-10.367a11.588 11.588 0 01-2.209 1.208 11.588 11.588 0 012.209 1.208 11.588 11.588 0 011.207 2.208 11.588 11.588 0 011.208-2.208 11.588 11.588 0 012.208-1.208 11.588 11.588 0 01-2.208-1.208 11.588 11.588 0 01-1.208-2.208 11.588 11.588 0 01-1.207 2.208z" fill="#fff" opacity=".5"/><circle cx="139.317" cy="286.752" r="24.043" transform="rotate(-50.412 139.317 286.752)" fill="url(#E)"/><path d="M115.71 288.163a24.042 24.042 0 0146.795-7.764 24.042 24.042 0 10-45.94 14.118 24.054 24.054 0 01-.856-6.354z" style="mix-blend-mode:screen" fill="url(#F)"/><path d="M162.704 281.183a24.042 24.042 0 01-47.127 9.374 24.042 24.042 0 1047.127-9.374z" style="mix-blend-mode:multiply" opacity=".5" fill="url(#G)"/><circle cx="139.532" cy="287.611" r="19.681" style="mix-blend-mode:screen" fill="url(#H)"/><circle cx="139.102" cy="285.677" r="19.681" style="mix-blend-mode:multiply" opacity=".5" fill="url(#I)"/><circle cx="139.317" cy="286.752" r="19.681" fill="url(#J)"/><path d="M139.804 280.956a17.715 17.715 0 018.4 2.117c2.211 1.195 4.93 5.177 7.642 4.64 4.084-.811-.23-10.815-3.306-13.985a18.082 18.082 0 00-13.316-5.823c-9.777 0-17.82 7.327-17.82 17.104 0 1.37.945 3.554 2.559 3.65 1.863.11 2.82-2.113 4.114-3.259a17.766 17.766 0 0111.727-4.444z" style="mix-blend-mode:screen" fill="url(#K)"/><path d="M153.08 280.349a15.323 15.323 0 00-2.212-7.955 18.23 18.23 0 00-28.556 7.128c-.015.274-.023.55-.023.827a15.396 15.396 0 0030.791 0z" style="mix-blend-mode:screen" fill="url(#L)"/><path d="M158.369 281.796a19.885 19.885 0 01.117 2.134 19.684 19.684 0 01-38.733 4.955 19.682 19.682 0 1038.616-7.089z" style="mix-blend-mode:multiply" fill="url(#M)"/><path d="M149.952 272.832c-.239.725-2.032.787-4.006.138s-3.38-1.763-3.142-2.488 2.031-.786 4.005-.137 3.38 1.762 3.143 2.487zM140.82 270.336c-.029.545-1.255.925-2.739.848s-2.665-.58-2.636-1.126 1.254-.925 2.738-.848 2.665.58 2.636 1.126z" fill="#fff"/><path d="M135.737 293.427a8.963 8.963 0 00.934 1.708 8.96 8.96 0 001.708.934 8.96 8.96 0 00-1.708.934 8.963 8.963 0 00-.934 1.708 8.968 8.968 0 00-.934-1.708 8.963 8.963 0 00-1.709-.934 8.963 8.963 0 001.709-.934 8.968 8.968 0 00.934-1.708zm1.974-7.314a4.953 4.953 0 01-.944.516 1.914 1.914 0 011.46 1.46 1.913 1.913 0 011.46-1.46 1.913 1.913 0 01-1.46-1.46 4.952 4.952 0 01-.516.944zm2.651-8.14a4.953 4.953 0 01-.943.515 1.914 1.914 0 011.46 1.46 1.913 1.913 0 011.46-1.46 1.913 1.913 0 01-1.46-1.46 4.952 4.952 0 01-.516.944zm7.142 18.702a4.508 4.508 0 01-.86.47 1.741 1.741 0 011.33 1.328 1.741 1.741 0 011.328-1.328 1.741 1.741 0 01-1.329-1.329 4.505 4.505 0 01-.47.86zm-19.928-8.882a4.508 4.508 0 01-.858.47 1.741 1.741 0 011.328 1.329 1.741 1.741 0 011.329-1.329 1.741 1.741 0 01-1.329-1.329 4.508 4.508 0 01-.47.86zm22.602-6.048a6.764 6.764 0 01-1.288.705 6.764 6.764 0 011.288.705 6.764 6.764 0 01.705 1.288 6.764 6.764 0 01.704-1.288 6.764 6.764 0 011.288-.705 6.764 6.764 0 01-1.288-.705 6.764 6.764 0 01-.704-1.288 6.764 6.764 0 01-.705 1.288z" fill="#fff" opacity=".5"/><circle cx="139.317" cy="137.736" r="24.043" transform="rotate(-75.532 139.317 137.736)" fill="url(#N)"/><path d="M115.71 139.148a24.042 24.042 0 0146.795-7.765 24.042 24.042 0 10-45.94 14.118 24.053 24.053 0 01-.856-6.353z" style="mix-blend-mode:screen" fill="url(#O)"/><path d="M162.704 132.167a24.042 24.042 0 01-47.127 9.374 24.042 24.042 0 1047.127-9.374z" style="mix-blend-mode:multiply" opacity=".5" fill="url(#P)"/><circle cx="139.532" cy="138.596" r="19.681" style="mix-blend-mode:screen" fill="url(#Q)"/><circle cx="139.102" cy="136.661" r="19.681" style="mix-blend-mode:multiply" opacity=".5" fill="url(#R)"/><circle cx="139.317" cy="137.736" r="19.681" fill="url(#S)"/><path d="M139.804 131.94a17.716 17.716 0 018.4 2.117c2.211 1.195 4.93 5.178 7.642 4.64 4.084-.81-.23-10.815-3.306-13.985a18.083 18.083 0 00-13.316-5.823c-9.777 0-17.82 7.327-17.82 17.104 0 1.37.945 3.554 2.559 3.65 1.863.11 2.82-2.113 4.114-3.259a17.766 17.766 0 0111.727-4.444z" style="mix-blend-mode:screen" fill="url(#T)"/><path d="M153.08 131.333a15.323 15.323 0 00-2.212-7.955 18.23 18.23 0 00-28.556 7.128c-.015.274-.023.55-.023.827a15.396 15.396 0 0030.791 0z" style="mix-blend-mode:screen" fill="url(#U)"/><path d="M158.369 132.78a19.886 19.886 0 01.117 2.134 19.684 19.684 0 01-38.733 4.956 19.682 19.682 0 1038.616-7.09z" style="mix-blend-mode:multiply" fill="url(#V)"/><path d="M149.952 123.817c-.239.725-2.032.787-4.006.138s-3.38-1.763-3.142-2.488 2.031-.787 4.005-.138 3.38 1.763 3.143 2.488zM140.82 121.32c-.029.545-1.255.925-2.739.848s-2.665-.58-2.636-1.125 1.254-.926 2.738-.849 2.665.58 2.636 1.126z" fill="#fff"/><path d="M135.737 144.411a8.96 8.96 0 00.934 1.708 8.96 8.96 0 001.708.934 8.965 8.965 0 00-1.708.935 8.963 8.963 0 00-.934 1.708 8.968 8.968 0 00-.934-1.708 8.968 8.968 0 00-1.709-.935 8.963 8.963 0 001.709-.934 8.965 8.965 0 00.934-1.708zm1.974-7.314a4.949 4.949 0 01-.944.516 1.913 1.913 0 011.46 1.46 1.913 1.913 0 011.46-1.46 1.913 1.913 0 01-1.46-1.46 4.949 4.949 0 01-.516.944zm2.651-8.14a4.949 4.949 0 01-.943.516 1.913 1.913 0 011.46 1.46 1.913 1.913 0 011.46-1.46 1.913 1.913 0 01-1.46-1.46 4.949 4.949 0 01-.516.943zm7.142 18.702a4.502 4.502 0 01-.86.47 1.741 1.741 0 011.33 1.329 1.741 1.741 0 011.328-1.329 1.741 1.741 0 01-1.329-1.328 4.502 4.502 0 01-.47.858zm-19.928-8.881a4.502 4.502 0 01-.858.47 1.741 1.741 0 011.328 1.328 1.741 1.741 0 011.329-1.329 1.741 1.741 0 01-1.329-1.328 4.508 4.508 0 01-.47.858zm22.602-6.048a6.76 6.76 0 01-1.288.704 6.758 6.758 0 011.288.705 6.76 6.76 0 01.705 1.288 6.76 6.76 0 01.704-1.288 6.758 6.758 0 011.288-.705 6.76 6.76 0 01-1.288-.704 6.76 6.76 0 01-.704-1.288 6.76 6.76 0 01-.705 1.288z" fill="#fff" opacity=".5"/><path d="M151.015 56.169l-11.968-10.2v-.042l-.024.02-.025-.02v.042c14.893 13.386 16.282 41.991-9.97 44.453-18.292 1.715-21.59-5.772-21.623-10.47a181.98 181.98 0 00-9.663 15.825 308.27 308.27 0 0041.28 2.72 308.27 308.27 0 0041.282-2.72c-13.64-25.156-29.29-39.608-29.29-39.608z" style="mix-blend-mode:multiply" opacity=".25" fill="url(#W)"/><path d="M159.21 64.958c.199 15.643-8.807 29.88-30.71 31.932-15.625 1.464-23.91-1.57-28.154-5.745q-1.31 2.252-2.604 4.632a308.27 308.27 0 0041.28 2.72 308.27 308.27 0 0041.282-2.72 180.648 180.648 0 00-21.094-30.82z" style="mix-blend-mode:multiply" opacity=".25" fill="url(#X)"/><path d="M135.29 56.026c1.213.89.077 4.498-2.537 8.06s-5.715 5.726-6.928 4.837-.076-4.499 2.538-8.06 5.715-5.727 6.927-4.837z" style="mix-blend-mode:screen" fill="url(#Y)"/><path d="M121.46 72.791c.772.499.21 2.74-1.254 5.006s-3.276 3.699-4.047 3.2-.21-2.74 1.254-5.005 3.276-3.699 4.047-3.2z" style="mix-blend-mode:screen" fill="url(#Z)"/><path d="M108.552 97.028q6.073.593 12.347.947c4.438-17.192 10.628-33.178 19.066-46.987 0 0-17.339 17.293-31.413 46.04z" style="mix-blend-mode:screen" fill="url(#aa)"/><path d="M137.067 52.658l-7.989 6.81s-14.478 13.365-27.72 36.767q2.247.275 4.526.517a174.281 174.281 0 0123.034-31.093 63.194 63.194 0 018.149-13z" style="mix-blend-mode:screen" fill="url(#ab)"/><path d="M166.941 97.263q6.544-.582 12.85-1.421c-13.58-24.87-29.038-39.145-29.038-39.145l-11.967-10.2v-.042l-.025.02-.024-.02v.042l-.71.605c10.618 9.305 20.78 27.724 28.914 50.161z" style="mix-blend-mode:multiply" opacity=".25" fill="url(#ac)"/><path d="M150.177 55.455l-3.512-2.993c7.764 13.374 13.532 28.652 17.713 45.022q6.276-.505 12.336-1.252a197.739 197.739 0 00-26.537-40.777z" style="mix-blend-mode:multiply" opacity=".25" fill="url(#ad)"/><path d="M92.474 106.32a434.806 434.806 0 0046.549 2.475 434.803 434.803 0 0046.548-2.475 174.704 174.704 0 00-3.944-8.045c-2.006 7.217-26.751 8.048-42.216 7.671-16.943-.413-32.234-.827-39.672-2.48-3.39-.753-4.288-2.106-4.265-3.357q-1.53 3.017-3 6.211z" style="mix-blend-mode:multiply" fill="#f9bd00" opacity=".5"/><path d="M97.66 101.099s3.83 2.609 24.126 3.22 23.579-1.499 23.579-1.499-31.245-.157-47.705-1.721zM102.12 322.625a5.092 5.092 0 00.566.225c.37.135.928.311 1.64.511.708.212 1.585.412 2.587.646 1.013.193 2.148.432 3.4.631 1.244.234 2.61.385 4.047.583 1.446.136 2.965.319 4.544.438 1.578.127 3.209.26 4.872.314l2.508.11 2.532.036c1.689.065 3.38.066 5.044.055l2.474-.004 2.414-.072c1.584-.069 3.12-.048 4.572-.128l4.097-.18c2.538-.114 4.651-.26 6.133-.338l2.33-.114-2.311.308-2.658.331c-1.026.13-2.184.285-3.454.374l-4.097.347c-1.453.14-2.992.194-4.583.267l-2.423.105-2.486.038c-1.672.032-3.372.056-5.072.01l-2.546-.071-2.524-.144c-1.673-.078-3.314-.233-4.902-.382-1.59-.123-3.115-.387-4.563-.58-1.441-.259-2.808-.466-4.053-.752-1.254-.24-2.383-.56-3.385-.823-.993-.302-1.859-.56-2.557-.82a17.003 17.003 0 01-1.602-.647 5.086 5.086 0 01-.544-.274z" style="mix-blend-mode:screen" fill="#f9bd00"/><path d="M107.404 330.886a116.428 116.428 0 0047.249 2.805s-27.02 7.53-47.249-2.805z" style="mix-blend-mode:screen" fill="url(#ae)"/></g></svg>