<svg xmlns="http://www.w3.org/2000/svg" xmlns:xlink="http://www.w3.org/1999/xlink" viewBox="0 0 345.923 346.622"><defs><linearGradient id="a" x1="279.013" y1="364.243" x2="312.346" y2="364.243" gradientUnits="userSpaceOnUse"><stop offset="0" stop-color="#ddf8fd"/><stop offset="1" stop-color="#8290c5"/></linearGradient><linearGradient id="h" x1="313.461" y1="372.452" x2="338.569" y2="372.452" xlink:href="#a"/><linearGradient id="d" x1="284.203" y1="174.417" x2="284.203" y2="122.93" gradientUnits="userSpaceOnUse"><stop offset="0" stop-color="#8ba7fd"/><stop offset="1" stop-color="#95baff"/></linearGradient><linearGradient id="e" x1="313.407" y1="114.692" x2="306.514" y2="64.302" gradientUnits="userSpaceOnUse"><stop offset="0" stop-color="#fdc38b"/><stop offset="1" stop-color="#fda37d"/></linearGradient><linearGradient id="b" x1="312.375" y1="86.849" x2="318.305" y2="86.849" gradientUnits="userSpaceOnUse"><stop offset="0" stop-color="#a43113"/><stop offset="1" stop-color="#6f160d"/></linearGradient><linearGradient id="i" x1="293.296" y1="87.857" x2="297.218" y2="87.857" xlink:href="#b"/><linearGradient id="g" x1="281.181" y1="66.612" x2="342.164" y2="66.612" gradientUnits="userSpaceOnUse"><stop offset="0" stop-color="#7d1831"/><stop offset="1" stop-color="#5c0000"/></linearGradient><linearGradient id="c" x1="313.068" y1="235.657" x2="313.068" y2="119.165" gradientUnits="userSpaceOnUse"><stop offset="0" stop-color="#c4f7fd"/><stop offset="1" stop-color="#a6ddff"/></linearGradient><linearGradient id="j" x1="342.286" y1="181.218" x2="342.286" y2="123.077" xlink:href="#c"/><linearGradient id="k" x1="319.483" y1="176.724" x2="319.483" y2="119.165" xlink:href="#d"/><linearGradient id="l" x1="318.254" y1="229.623" x2="318.254" y2="151.358" xlink:href="#d"/><linearGradient id="m" x1="307.012" y1="212.597" x2="307.012" y2="187.62" xlink:href="#c"/><linearGradient id="n" x1="340.919" y1="201.133" x2="340.919" y2="182.624" xlink:href="#c"/><linearGradient id="o" x1="352.513" y1="247.225" x2="344.714" y2="190.208" xlink:href="#e"/><linearGradient id="p" x1="54.77" y1="367.986" x2="76.434" y2="367.986" gradientTransform="matrix(-1 0 0 1 116.032 0)" xlink:href="#a"/><linearGradient id="q" x1="-14.683" y1="367.818" x2="25.248" y2="367.818" gradientTransform="matrix(-1 0 0 1 116.032 0)" xlink:href="#a"/><linearGradient id="r" x1="12.211" y1="235.144" x2="10.746" y2="224.434" gradientTransform="matrix(-1 0 0 1 116.032 0)" xlink:href="#e"/><linearGradient id="s" x1="49.269" y1="354.98" x2="49.269" y2="201.897" gradientTransform="matrix(-1 0 0 1 116.032 0)" gradientUnits="userSpaceOnUse"><stop offset="0" stop-color="#754a86"/><stop offset="1" stop-color="#3e0033"/></linearGradient><linearGradient id="t" x1="47.155" y1="97.944" x2="39.661" y2="43.165" gradientTransform="matrix(-1 0 0 1 116.032 0)" xlink:href="#e"/><linearGradient id="u" x1="43.583" y1="67.673" x2="49.234" y2="67.673" gradientTransform="scale(-1.00001 1.00001) rotate(-89.998 -11.463 125.201)" xlink:href="#b"/><linearGradient id="v" x1="26.67" y1="70.355" x2="31.791" y2="70.355" gradientTransform="matrix(-1 0 0 1 116.032 0)" xlink:href="#b"/><linearGradient id="w" x1="11.556" y1="51.111" x2="67.779" y2="51.111" gradientTransform="matrix(-1 0 0 1 116.032 0)" xlink:href="#b"/><linearGradient id="f" x1="9.48" y1="133.674" x2="29.434" y2="133.674" gradientTransform="matrix(-1 0 0 1 116.032 0)" gradientUnits="userSpaceOnUse"><stop offset="0" stop-color="#ca0000"/><stop offset="1" stop-color="#a80009"/></linearGradient><linearGradient id="x" x1="53.223" y1="145.879" x2="71.558" y2="145.879" xlink:href="#f"/><linearGradient id="y" x1="60.811" y1="155.292" x2="88.493" y2="155.292" xlink:href="#f"/><linearGradient id="z" x1="55.597" y1="218.327" x2="53.906" y2="205.961" gradientTransform="matrix(-1 0 0 1 116.032 0)" xlink:href="#e"/><linearGradient id="A" x1="129.708" y1="364.98" x2="151.468" y2="364.98" xlink:href="#a"/><linearGradient id="B" x1="162.31" y1="366.649" x2="193.529" y2="366.649" xlink:href="#a"/><linearGradient id="C" x1="190.87" y1="248.102" x2="182.051" y2="183.63" xlink:href="#e"/><linearGradient id="D" x1="161.172" y1="133.202" x2="154.161" y2="81.95" xlink:href="#e"/><linearGradient id="E" x1="146.72" y1="108.796" x2="153.66" y2="108.796" xlink:href="#b"/><linearGradient id="F" x1="168.243" y1="111.874" x2="173.83" y2="111.874" xlink:href="#b"/><linearGradient id="G" x1="149.45" y1="122.486" x2="167.45" y2="122.486" xlink:href="#f"/><linearGradient id="H" x1="149.45" y1="124.692" x2="165.605" y2="124.692" xlink:href="#f"/><linearGradient id="I" x1="181.912" y1="154.65" x2="195.543" y2="154.65" gradientUnits="userSpaceOnUse"><stop offset="0" stop-color="#ff7045"/><stop offset="1" stop-color="#bd3e39"/></linearGradient><linearGradient id="J" x1="110.081" y1="119.941" x2="195.021" y2="119.941" gradientUnits="userSpaceOnUse"><stop offset="0" stop-color="#bd3e39"/><stop offset="1" stop-color="#ff7045"/></linearGradient><linearGradient id="K" x1="129.708" y1="361.793" x2="151.468" y2="361.793" xlink:href="#f"/><linearGradient id="L" x1="162.31" y1="360.988" x2="193.529" y2="360.988" xlink:href="#f"/><linearGradient id="M" x1="101.767" y1="149.272" x2="138.431" y2="149.272" xlink:href="#f"/><linearGradient id="N" x1="141.075" y1="193.584" x2="137.832" y2="169.876" xlink:href="#e"/><linearGradient id="O" x1="260.656" y1="367.234" x2="277.024" y2="367.234" xlink:href="#a"/><linearGradient id="P" x1="221.959" y1="367.568" x2="236.896" y2="367.568" xlink:href="#a"/><linearGradient id="Q" x1="232.485" y1="356.575" x2="219.147" y2="259.066" xlink:href="#e"/><linearGradient id="R" x1="265.26" y1="354.353" x2="252.913" y2="264.093" xlink:href="#e"/><linearGradient id="S" x1="271.127" y1="252.388" x2="258.084" y2="157.042" xlink:href="#e"/><linearGradient id="T" x1="243.483" y1="123.936" x2="236.306" y2="71.467" xlink:href="#e"/><linearGradient id="U" x1="242.955" y1="94.48" x2="249.876" y2="94.48" xlink:href="#b"/><linearGradient id="V" x1="223.481" y1="94.696" x2="229.5" y2="94.696" xlink:href="#b"/><linearGradient id="W" x1="213.459" y1="95.622" x2="274.639" y2="95.622" xlink:href="#g"/><linearGradient id="X" x1="221.96" y1="358.781" x2="235.858" y2="358.781" xlink:href="#f"/><linearGradient id="Y" x1="261.399" y1="358.154" x2="277.023" y2="358.154" xlink:href="#f"/><linearGradient id="Z" x1="223.501" y1="366.475" x2="235.858" y2="366.475" xlink:href="#a"/><linearGradient id="aa" x1="261.04" y1="366.094" x2="275.111" y2="366.094" xlink:href="#a"/><linearGradient id="ab" x1="228.737" y1="131.643" x2="252.146" y2="131.643" xlink:href="#f"/><linearGradient id="ac" x1="260.65" y1="158.611" x2="269.96" y2="158.611" xlink:href="#f"/><linearGradient id="ad" x1="204.37" y1="155.074" x2="223.815" y2="155.074" xlink:href="#f"/><linearGradient id="ae" x1="212.281" y1="261.355" x2="260.974" y2="261.355" xlink:href="#f"/><linearGradient id="af" x1="203.393" y1="157.549" x2="226.415" y2="157.549" xlink:href="#e"/></defs><path d="M321.932 113.328s6.324 22.32 7.739 29.137c2.132 10.28-10.4 35.613-11.196 37.611s-11.283 6.456-14.229 3.722-8.456-29.288-8.354-33.427 11.405-19.668 11.405-19.668z" fill="#590800"/><path d="M319.431 218.61c-1.272.293-3.144-1.67-3.144-1.67l5.903-1.57s-.852 2.8-2.759 3.24z" fill="#e1784e"/><path d="M279.013 364.185v3.42a82.753 82.753 0 0016.686.539c8.458-.692 16.647-5.467 16.647-5.467l-2.984-2.546z" transform="translate(-27.54 -28.988)" fill="url(#a)"/><path d="M313.46 370.758v3.652a54.308 54.308 0 0013.226 1.115c5.998-.461 11.883-4.735 11.883-4.735l-1.175-1.495z" transform="translate(-27.54 -28.988)" fill="url(#h)"/><path d="M280.843 256.496c-1.07 4.77 2.326 23.686 3.091 28.909.757 5.231-1.854 28.604-1.854 28.604l-.056-.01a57.53 57.53 0 00-4.696-.738l-.25-.037a18.152 18.152 0 00-5.462.019c-3.072.766-6.763 1.54-6.763 1.54s-4.152-36.299-4.152-40.755c0-4.457-2.464-12.835-2.307-16.185.009-.12.018-.286.037-.498.415-5.536 4.235-40.516 5.158-44.521a3.653 3.653 0 01.406-1.024c1.928-3.285 8.71-4.051 8.71-4.051l18.011 5.075-3.7 18.14s-5.093 20.761-6.173 25.532z" fill="#fe9300"/><path d="M312.41 316.01c-.194 1.846-.656 8.767-.656 8.767s-14.763-4.153-16.452-3.387a53.168 53.168 0 01-7.077 1.846s4.614-32.904 4.614-35.368-2.612-11.995-2.612-16.609-1.919-33.679-2.999-39.215-2.38-12.3-6.994-15.99-9.227-5.39-12.152-4.771a16.236 16.236 0 00-4.493 1.54l-.231-6.154s.304-.323.877-.876l.009-.01a49.637 49.637 0 0119.192-11.284c14.791-4.41 25.089-2.64 25.089-2.64s3.386 13.703 3.847 17.874c.462 4.161-3.229 46.025-2.61 54.08.608 8.065 1.53 20.669 1.53 25.282 0 4.29-1.162 10.187-.903 12.965a4.472 4.472 0 00.083.572c.516 2.463 2.131 11.534 1.937 13.379z" fill="#fe9300"/><path d="M228.956 170.867s-3.723 5.32-6.369 7.476-5.19 3.54-6.421 4.65-4.005 4.602-4.967 4.982-1.023-1.173-1.023-1.173-.828 1.794-1.763 1.538a1.306 1.306 0 01-.986-1.13s-.325.13-.786-.538 1.684-3.843 2.63-5.205a43.175 43.175 0 014.842-4.608s-4.015 2.738-5.486 3.87-2.553 3.3-3.251 3.908-1.132-.926-.489-2.635 3.509-4.133 4.348-5.172 6.082-3.853 7.53-4.122 12.191-1.84 12.191-1.84z" fill="#e1784e"/><path d="M269.438 150.014s-.361.315-.965.83c-2.293 1.99-8.1 6.898-10.732 8.276-2.665 1.395-17.089 6.169-23.617 8.511-1.556.561-2.663.977-3.05 1.18a.147.147 0 00-.033.017c-1.833.987-4.794 6.449-7.442 6.923s-7.932-.781-7.932-.781a20.554 20.554 0 00-4.751 3.705c-1.528 1.603-5.874 1.66-6.504 1.108-.636-.547 1.374-1.934 2.8-2.406 1.418-.48 2.878-2.721 5.992-5.23 3.114-2.522 9.682-4.58 13.506-6.275 3.824-1.709 5.281-2.368 13.463-9.3 3.706-3.149 7.55-6.125 10.65-8.425a275.55 275.55 0 015.867-4.251c.336-.232.514-.351.514-.351 6.449-.582 12.234 6.469 12.234 6.469z" fill="#e1784e"/><path d="M268.473 150.844c-2.293 1.99-8.1 6.898-10.732 8.276-2.665 1.395-17.089 6.169-23.617 8.511 4.511-1.819 12.594-5.468 14.748-8.866 2.592-4.087 2.137-9.226 1.95-10.618a275.55 275.55 0 015.868-4.251z" fill="#c4552d"/><path d="M291.239 122.93l-.25 11.266-.055 2.63-.046 1.864-.203 8.867-.037 1.836-.193 8.415-.037 1.846-.231 10.316-.046 1.891-.056 2.556h-12.918s.314-1.43.757-3.801c.11-.573.222-1.2.35-1.883.37-2.067.803-4.595 1.2-7.363.083-.59.176-1.283.259-2.04.064-.571.129-1.19.193-1.845.268-2.657.545-5.887.812-9.227.056-.618.102-1.246.157-1.864.323-4.004.655-8.009.997-11.23.074-.654.138-1.272.212-1.845a26.856 26.856 0 01.757-4.392 7.933 7.933 0 013.432-3.681 24.682 24.682 0 014.946-2.316z" transform="translate(-27.54 -28.988)" fill="url(#d)"/><path d="M264.045 160.608s-6.434-4.43-10.438-6.872c-4.48-2.734-6.258-2.454-7.29-3.36-.529-.462 2.06-9.014 2.694-9.325s2.234.17 6.866 1.125c5.838 1.203 8.168 2.819 8.168 2.819z" fill="#460030"/><path d="M297.037 90.795s-2.888 2.132-10.39 3.294a12.987 12.987 0 01-11.681-3.912 31.463 31.463 0 003.543-1.236 8.884 8.884 0 002.602-1.532 3.78 3.78 0 001.006-3.423l9.725-5.924s-.424 6.293-.074 8.101a4.375 4.375 0 001.495 1.984 26.537 26.537 0 003.774 2.648z" fill="#e1784e"/><path d="M293.263 88.147a20.281 20.281 0 01-7.861 1.569 24.402 24.402 0 01-6.893-.775 8.884 8.884 0 002.602-1.532 3.78 3.78 0 001.006-3.423l9.725-5.924s-.424 6.293-.074 8.101a4.375 4.375 0 001.495 1.984z" fill="#c4552d"/><path d="M327.345 99.419c-3.276 7.096-16.48 15.4-23.179 16.535-1.827.304-3.848-.489-5.813-1.845h-.01c-5.037-3.47-9.743-10.575-9.992-12.245-.342-2.307 2.98-8.664 3.063-11.248.074-2.583-1.485-9.052-.83-12.512a.028.028 0 01.009-.018c.674-3.47 10.113-12.208 17.596-13.942 7.502-1.726 19.838 1.162 22.034 5.195s-.83 25.623-2.878 30.08z" transform="translate(-27.54 -28.988)" fill="url(#e)"/><path d="M299.805 70.43c-3.276 7.097-16.48 15.401-23.178 16.536-1.827.304-3.848-.49-5.814-1.845a26.378 26.378 0 0019.091-8.25c8.628-8.913 7.096-28.453 4.476-31.83-2.612-3.386-9.569-3.408-18.455-2.458-8.609.923-12.622 6.192-12.872 6.515.674-3.47 10.113-12.208 17.597-13.942 7.501-1.726 19.838 1.162 22.034 5.195s-.83 25.623-2.879 30.08z" fill="#e1784e"/><path d="M281.538 62.88s1.884-10.534 5.998-10.265 4.23 8.112 4.23 8.112-2.109 2.985-5.114 2.884a22.363 22.363 0 01-5.114-.73zM269.676 63.188s.346-9.013-2.757-8.909-2.989 8.466-2.989 8.466a2.824 2.824 0 002.268.868 18.708 18.708 0 003.478-.425z" fill="#fff"/><path d="M291.15 61.63a22.676 22.676 0 01-4.066 1.115 24.686 24.686 0 01-4.065.558 13.065 13.065 0 004.382.807c1.673-.173 3.75-2.48 3.75-2.48zM264.16 63.188a15.532 15.532 0 002.038.153 22.76 22.76 0 003.478-.153 14.12 14.12 0 01-3.67 1.153 1.673 1.673 0 01-1.845-1.153z" fill="#e1784e"/><path d="M318.305 86.85c0 2.385-1.327 4.318-2.965 4.318s-2.965-1.934-2.965-4.319 1.327-4.319 2.965-4.319 2.965 1.934 2.965 4.32z" transform="translate(-27.54 -28.988)" fill="url(#b)"/><path d="M289.903 57.342c0 1.692-.941 3.063-2.103 3.063s-2.102-1.371-2.102-3.063.941-3.063 2.102-3.063 2.103 1.372 2.103 3.063z" fill="#590800"/><path d="M297.209 90.727c-.037.083-.083.166-.13.25a1.905 1.905 0 01-1.54 1.199c-1.246 0-2.243-1.938-2.243-4.319a5.888 5.888 0 011.07-3.681 1.564 1.564 0 011.173-.637 1.208 1.208 0 01.71.23l.01.01a7.585 7.585 0 01.627 1.938 14.933 14.933 0 01.23 1.725 30.463 30.463 0 01.093 3.285z" transform="translate(-27.54 -28.988)" fill="url(#i)"/><path d="M269.577 58.454a4.718 4.718 0 01-.295 1.689c-.286.775-.757 1.273-1.283 1.273-.886 0-1.596-1.375-1.596-3.063a3.433 3.433 0 011.153-2.944.841.841 0 01.443-.12c.572 0 1.07.572 1.347 1.44a14.933 14.933 0 01.231 1.725z" fill="#590800"/><path d="M269.67 61.739c-.02.618-.047 1.006-.047 1.006s-.028-.286-.083-.757-.138-1.126-.258-1.845c-.314-1.818-.85-4.042-1.726-4.734a.862.862 0 00-.461-.221 1.299 1.299 0 00-.268 0c-2.14.286-2.897 7.557-2.897 7.557s-.766-9.107 3.23-9.089a1.794 1.794 0 011.55 1.126l.009.009a7.585 7.585 0 01.627 1.938 14.933 14.933 0 01.231 1.725 30.463 30.463 0 01.092 3.285z" fill="#590800"/><path d="M286.652 58.824a1.25 1.25 0 11-1.25-1.25 1.25 1.25 0 011.25 1.25zM267.006 59.602a1.25 1.25 0 11-1.249-1.25 1.25 1.25 0 011.25 1.25z" fill="#fff"/><path d="M281.538 62.16s2.153-9.122 6.152-8.353 4.075 6.92 4.075 6.92 1.307-8.77-4.46-8.766c-5.003.004-5.767 10.2-5.767 10.2zM282.038 48.001l.27-3.69.422 1.576.289-1.576s4.594.384 6.709 1.46a10.617 10.617 0 013.267 2.538l-.46 1.884a11.941 11.941 0 00-4.735-2.115 28.267 28.267 0 00-5.762-.077zM271.812 48.386v-3.691l-.577.73-.385-1.114a14.08 14.08 0 00-4.805 2.422 8.788 8.788 0 00-3 3.729v1.96a39.471 39.471 0 014.673-3.075 10.285 10.285 0 014.094-.961zM268.736 74.825s5.944 1.126 9.942-.237c4.195-1.43 6.272-4.653 7.684-6.015.578-.557.766.267.766.267s-3.953 5.458-8.72 6.607a20.907 20.907 0 01-9.599-.283z" fill="#590800"/><path d="M284.527 66.728a3.095 3.095 0 012.65 1.158c1.04 1.348 1.842 2.355 1.842 2.355s-1.848.163-2.645-.884a27.837 27.837 0 00-1.847-2.629z" fill="#590800"/><path d="M270.427 67.686a21.741 21.741 0 005.306.23 11.258 11.258 0 003.768-.922s-.346 1.653-1.154 1.999-2.037-.423-2.037-.423a3.927 3.927 0 01-2.692 1.269c-1.768.115-3.19-2.153-3.19-2.153zM299.57 63.188a46.124 46.124 0 017.112-4.835c3.46-1.778 6.075-2.163 6.92-1.701s.154 7.14-1.999 10.067-8.459 7.282-10.534 6.234-2.307-2.384-2.307-2.384z" fill="#e1784e"/><path d="M300.867 66.994a80.123 80.123 0 017.815-5.882 24.139 24.139 0 013.344-1.788 51.431 51.431 0 01-4.21 4.29c-2.133 1.88-6.949 3.38-6.949 3.38z" fill="#c4552d"/><path d="M304.53 64.793s-.866 2.316 0 3.239 3.056.348 3.056.348-2.68 1.382-4.137.69-.419-3.345-.419-3.345z" fill="#c4552d"/><path d="M334.219 87.34a20.601 20.601 0 00-5.813 5.26l-1.108.738s.573-13.619.554-18.998c-.01-5.389-2.399-7.382-2.399-7.382a20.271 20.271 0 01-6.763 1.762c-3.848.314-4.845-1.3-4.845-1.3s-5.444 2.768-8.378 2.841c-2.925.074-3.921-1.31-3.921-1.31s-4.89 5.13-8.83 5.564c-3.609.397-6.737-.849-7.42-2.657a2.023 2.023 0 01-.129-.517 4.455 4.455 0 01.379-2.925 6.862 6.862 0 01-4.3-5.693c-.462-4.383 1.688-6.146 1.688-6.146s-1.153-6.08 3.304-8.691c4.466-2.612 11.727-2.003 11.727-2.003a26.59 26.59 0 017.484-4.909 13.13 13.13 0 015.111-1.088 10.186 10.186 0 018.868 5.158s3.488-2.538 6.339-.619c2.842 1.92 2.639 4.383 2.639 4.383a9.7 9.7 0 016.043 2.768c2.464 2.612 0 6.46 0 6.46l.074.046c.71.47 6.46 4.392 7.539 8.535 1.153 4.41-7.843 20.724-7.843 20.724z" transform="translate(-27.54 -28.988)" fill="url(#g)"/><path d="M295.764 21.509c-1.228 2.002-6.745 4.927-6.745 4.927s-.942 6.145-4.882 7.382c-3.949 1.227-10.519 0-10.519 0a16.657 16.657 0 01-6.19 6.302c-2.824 1.771-6.903 2.473-9.67 2.75a2.023 2.023 0 01-.13-.517 4.455 4.455 0 01.378-2.925 6.862 6.862 0 01-4.3-5.693c-.461-4.383 1.689-6.146 1.689-6.146s-1.153-6.08 3.303-8.692c4.466-2.61 11.728-2.002 11.728-2.002a26.59 26.59 0 017.483-4.909h.019c8.166-.295 11.09 3.682 11.09 3.682s7.973 3.848 6.746 5.84z" fill="#b26485" opacity=".2"/><path d="M306.68 58.353a20.601 20.601 0 00-5.814 5.259l-1.107.738s.572-13.619.554-18.998c-.01-5.39-2.4-7.382-2.4-7.382a15.62 15.62 0 004.762-2.538c2.159-1.771 4.235-6.385 4.235-6.385l.074.046c.71.471 6.459 4.393 7.538 8.536 1.154 4.41-7.843 20.724-7.843 20.724z" fill="#590800"/><path d="M336.913 220.866s-17.411-.544-28.724 3.488a45.308 45.308 0 00-10.307 5.269 36.159 36.159 0 00-6.985 6.035 3.126 3.126 0 01-1.042-1.384c-.462-1.034.581-3.922.581-5.075 0-.674-.12-2.372-.203-4.153v-.009a98.768 98.768 0 01-.055-2.26c-.01-.471 0-.914.018-1.31.12-2.418.812-4.836.701-6.635-.036-.618-.138-1.716-.249-3.22-.037-.59-.083-1.246-.129-1.956a177.597 177.597 0 01-.323-10.676c0-.379 0-.785-.009-1.218-.019-.582-.037-1.2-.055-1.873-.13-3.211-.397-7.336-.73-11.682-.045-.618-.092-1.236-.147-1.864a866.008 866.008 0 00-.646-7.926c-.092-1.033-.175-2.048-.258-3.036q-.083-1.01-.166-1.965a597.114 597.114 0 01-.637-7.926 30.538 30.538 0 01-.055-2.187c.009-.563.018-1.181.046-1.836.083-2.233.286-4.946.544-7.843.056-.61.11-1.218.175-1.836a458.777 458.777 0 011.228-11.267c.073-.646.157-1.282.23-1.9.803-6.589 1.523-11.691 1.523-11.691l.498-.166 2.215-.739h.009l8.544-2.86s4.9 3.257 9.172 2.953c4.263-.305 11.894-2.953 11.894-2.953 1.873 1.31 12.189 3.912 12.189 3.912s.037.637.092 1.744c.028.535.055 1.172.092 1.901.139 2.796.296 6.911.37 11.322.009.369.009.729.018 1.098 0 .249.01.498.01.756.036 2.842.027 5.74-.056 8.443-.019.655-.046 1.292-.074 1.91-.194 4.272-.61 7.816-1.375 9.44l-.083.193h-.01c-.267.572-.525 1.19-.784 1.837-.369.94-.729 1.956-1.07 2.998a76.236 76.236 0 00-1.55 5.509 51.908 51.908 0 00-.425 1.836 45.985 45.985 0 00-1.153 7.299 12.525 12.525 0 00.065 1.264q.083.803.221 1.91c.305 2.316.821 5.527 1.412 8.96q.18 1.01.36 2.048c.36 1.965.72 3.958 1.08 5.85.12.627.24 1.246.36 1.845.544 2.796 1.042 5.26 1.43 6.94.184.802.332 1.43.452 1.826a2.632 2.632 0 00.156.443c.692 1.2 3.23 3.525 3.34 5.37.12 1.846-1.725 5.047-1.725 5.047z" transform="translate(-27.54 -28.988)" fill="url(#c)"/><path d="M352.673 176.05a28.732 28.732 0 00-4.125.674 46.031 46.031 0 00-6.56 2.03l-6.302 2.463s-.674-4.336-1.467-9.033c-.102-.618-.212-1.246-.323-1.864a310.343 310.343 0 00-1.006-5.6 64.808 64.808 0 00-.627-3.064 19.903 19.903 0 00-.194-.71 5.47 5.47 0 01-.148-1.182 84.565 84.565 0 01.35-8.645c.047-.619.102-1.255.158-1.91a320.434 320.434 0 011.135-11.424c.009-.147.027-.295.046-.442.452-3.876.941-7.54 1.393-10.353q.18-1.108.36-2.021a33.89 33.89 0 01.397-1.892s1.292.342 3.035.895h.01a80.51 80.51 0 013.063 1.034c2.731.996 5.463 2.224 6.044 3.312.397.738.876 4.153 1.356 8.6.074.6.139 1.218.203 1.845.212 2.058.415 4.263.618 6.496.056.619.102 1.237.157 1.855.36 4.17.674 8.277.895 11.423.046.674.083 1.301.12 1.883.102 1.485.166 2.63.185 3.266.055 1.587.23 3.617.424 5.564.065.627.139 1.255.203 1.854.305 2.741.6 4.946.6 4.946z" transform="translate(-27.54 -28.988)" fill="url(#j)"/><path d="M352.673 176.05a28.732 28.732 0 00-4.125.674s-3.33-25.264-6.265-31.04a19.798 19.798 0 00-5.951-6.542 31.625 31.625 0 00-2.722-1.8 44.955 44.955 0 00-20.19-5.72 62.72 62.72 0 00-22.43 2.574c-.47.148-.895.295-1.274.424-1.458.517-2.223.886-2.223.886l-1.2-10.26a24.682 24.682 0 014.946-2.316l11.266-3.765s4.9 3.257 9.172 2.953c4.263-.305 11.894-2.953 11.894-2.953 1.873 1.31 12.189 3.912 12.189 3.912s10.915 2.935 12.152 5.241c1.227 2.307 3.377 30.911 3.534 35.368s1.227 12.364 1.227 12.364z" transform="translate(-27.54 -28.988)" opacity=".5" fill="url(#k)"/><path d="M336.913 220.866s-17.411-.544-28.724 3.488a45.308 45.308 0 00-10.307 5.269h-.018a37.765 37.765 0 0116.212-8.757c9.578-2.214 20.3-3.312 20.189-4.475-.12-1.144-3.47-5.757-11.654-3.608a135.175 135.175 0 00-17.384 6.257 113.64 113.64 0 0112.078-7.142c5.306-2.538 11.424-3.811 12.346-4.152s-1.504-19.959-2.426-20.955c-.923-1.006-6.46 2.73-6.8 2.196-.351-.526 3.69-6.155 6.68-13.749 2.75-6.948 4.475-21.425 4.76-23.88a32.583 32.583 0 00.065 5.638c.323 3.922.96 7.723.96 7.723a67.984 67.984 0 00-3.128 14.644c-.11 3.561 4.844 29.886 5.536 31.086s3.23 3.525 3.34 5.37c.12 1.846-1.725 5.047-1.725 5.047z" transform="translate(-27.54 -28.988)" opacity=".5" fill="url(#l)"/><path d="M273.122 90.793l2.746-1.077a19.94 19.94 0 008.66 1.96c4.661-.115 10.024-2.501 10.024-2.501l2.485 1.62a50.596 50.596 0 01-13.038 2.9 19.814 19.814 0 01-10.877-2.902z" fill="#460030"/><path d="M282.118 93.035a102.598 102.598 0 00-2.617 12.02 68.076 68.076 0 00-.992 10.102h3.03a89.23 89.23 0 01.579-13.33c.843-5.595 1.593-8.709 1.593-8.709z" fill="#460030"/><path d="M321.932 109.775a49.233 49.233 0 00-7.077.886 14.645 14.645 0 01-3.498.35c-.802 0-1.651-.036-2.555-.1a80.295 80.295 0 01-2.99-.277c-1.135-.12-2.316-.268-3.543-.416-.803-.101-1.624-.203-2.464-.295-6.33-.738-23.483-1.061-28.364-.35a30.016 30.016 0 01-8.092.129 14.438 14.438 0 01-1.624-.323 7.27 7.27 0 01-3.147-1.514 10.834 10.834 0 00-4.226-1.688c.074-.655.139-1.274.212-1.846 1.864.416 4.088 1.108 5.26 2.169a5.235 5.235 0 002.122 1.033 12.11 12.11 0 001.449.305 26.711 26.711 0 007.788-.093c5.305-.765 22.975-.341 28.844.342.83.101 1.66.203 2.463.295 1.227.148 2.408.295 3.534.415.96.111 1.882.194 2.75.259a18.924 18.924 0 005.628-.185 49.66 49.66 0 017.327-.941c.074.6.138 1.218.203 1.845zM322.707 118.126c-2.122.461-5.195 1.135-7.88 1.735-1.9.424-3.626.82-5.14 1.172-.35.083-.692.156-1.015.23-1.642.378-2.98.683-3.94.868-.073.009-.138.027-.203.036a7.353 7.353 0 01-1.273.074c-1.67 0-4.66-.212-9.495-.572-4.466-.332-10.02-.738-15.87-1.024a145.004 145.004 0 00-14.782-.24 20.672 20.672 0 00-2.122.222 2.217 2.217 0 01-.443.009 58.937 58.937 0 01-7.345-1.366c.055-.618.101-1.246.157-1.864a60.11 60.11 0 007.308 1.403c.018 0 .037-.01.055-.01a26.693 26.693 0 012.427-.23 147.63 147.63 0 0114.828.23c5.877.287 11.45.702 15.926 1.034a95.194 95.194 0 0010.288.517c.212-.037.443-.083.701-.13a278.42 278.42 0 003.857-.867c.166-.037.35-.083.526-.12 1.513-.35 3.257-.756 5.149-1.172 2.786-.618 5.997-1.32 8.129-1.79.055.619.101 1.237.157 1.855zM323.722 131.431a32.895 32.895 0 01-7.4 1.19c-2.39.084-5.223.13-7.567.13-.858 0-1.651-.01-2.334-.018a49.239 49.239 0 01-1.698-.065 4.32 4.32 0 01-.6-.065c-.775-.138-12.668-.747-22.006-.747a181.352 181.352 0 01-19.239-1.19 59.087 59.087 0 01-2.224-.277 8.295 8.295 0 00-.7-.074c-1.763-.11-5.233-.046-7.76.028.064-.572.128-1.19.193-1.846 2.113-.064 5.628-.138 7.612-.018.37.018.683.046.923.083.406.064 1.089.147 1.993.258a179.908 179.908 0 0019.202 1.19c8.765 0 20.585.545 22.265.766a1.28 1.28 0 01.157.028c.23.046 1.208.074 2.666.092h.01c2.223.028 5.554 0 9.051-.12a31.5 31.5 0 007.336-1.227c.046.674.083 1.301.12 1.882z" fill="#460030" opacity=".5"/><g opacity=".5" fill="#460030"><path d="M303.8 141.24a51.908 51.908 0 00-.424 1.836c-.535-.01-.997-.01-1.347 0-.748.028-2.095.185-3.811.388a157.029 157.029 0 01-18.537 1.282c-.978 0-1.975-.009-2.971-.037a58.444 58.444 0 01-14.109-1.836c-.498-.13-.969-.258-1.411-.378a7.783 7.783 0 00-.379-.102 21.996 21.996 0 00-3.017-.692 33.268 33.268 0 00-7.41-.074c.111-.572.222-1.2.351-1.882a33.866 33.866 0 017.336.13 23.31 23.31 0 012.574.553c.332.092.674.184 1.034.286.313.083.627.175.968.268a56.69 56.69 0 0014.109 1.882 145.4 145.4 0 0021.24-1.237c1.828-.212 3.147-.36 3.96-.396.47-.01 1.097-.01 1.844.009zM324.534 142.116a53.052 53.052 0 01-5.352.979 83.916 83.916 0 01-12.503.101c-.101-.618-.212-1.246-.323-1.864.065 0 .139.01.203.01a84.916 84.916 0 0012.383-.074 51.027 51.027 0 005.389-1.006c.064.627.138 1.255.203 1.854z"/></g><path d="M302.509 153.549a20.813 20.813 0 00-6.173-.194 41.4 41.4 0 00-5.038 1.034 49.56 49.56 0 01-11.654 1.762q-.955.028-1.966.028c-5.72 0-12.502-.619-15.815-.96-.046-.618-.092-1.236-.148-1.864a152.395 152.395 0 0017.873.95 48.214 48.214 0 0011.267-1.707 42.88 42.88 0 015.26-1.08 22.329 22.329 0 016.172.12q.083.804.222 1.91zM304.28 164.557a15.53 15.53 0 00-7.437-.701c-3.303.572-12.032 2.113-21.757 4.216a40.576 40.576 0 01-8.508.85c-1.42 0-2.75-.065-3.93-.148-.019-.582-.037-1.2-.056-1.873a42.556 42.556 0 0012.097-.628 550.439 550.439 0 0121.84-4.235 16.895 16.895 0 017.391.47q.18 1.01.36 2.049zM305.72 172.252c-4.78.111-14.035.582-21.25 2.51a167.779 167.779 0 00-21.361 7.862c-.037-.591-.083-1.246-.13-1.957a167.958 167.958 0 0121.01-7.686c7.336-1.956 16.434-2.454 21.37-2.574.12.627.24 1.246.36 1.845zM307.602 181.018a102.466 102.466 0 00-21.85 2.897c-9.402 2.38-18.915 9.006-23.058 12.134a98.768 98.768 0 01-.056-2.26c4.641-3.433 13.573-9.366 22.662-11.654a104.415 104.415 0 0121.85-2.944c.184.803.332 1.43.452 1.827zM314.329 96.018c-1.366.406-3.719 1.08-5.924 1.716a50.38 50.38 0 01-.941.268c-1.56.442-2.962.84-3.774 1.06a60 60 0 01-13.509 1.228c-2.814 0-5.905-.12-9.162-.425a34.75 34.75 0 01-16.821-6.09l2.214-.738h.01a33.584 33.584 0 0014.772 4.983c11.672 1.107 20.014-.194 22.016-.738.95-.258 2.722-.766 4.613-1.301.167-.046.323-.092.49-.148 1.005-.286 2.02-.572 2.943-.849h.01a80.51 80.51 0 013.063 1.034z" fill="#460030" opacity=".5"/><path d="M311.293 289.095c0 4.29-1.163 10.187-.904 12.965-1.56 3.395-3.553 7.381-3.553 7.381s.35-3.47 1.504-13.96c1.163-10.492-.738-25.449-.738-25.449l-3.377 3.073a232.947 232.947 0 003.377-27.22c.923-14.764 2.464-37.831-5.998-45.25-8.35-7.326-36.677 4.853-37.36 5.149a49.637 49.637 0 0119.192-11.285c14.791-4.41 25.089-2.64 25.089-2.64s3.386 13.703 3.847 17.874c.462 4.161-3.229 46.025-2.61 54.08.608 8.065 1.53 20.669 1.53 25.282z" fill="#f47100"/><path d="M283.934 285.405c.757 5.231 3.958 31.947 3.958 31.947l-.876-.503-9.688-3.588-.25-.037s5.878-23.05 5.196-26.74c-.702-3.69-3.811-22.671-3.811-22.671l-5.878 2.602a22.488 22.488 0 003.912-7.151c1.846-4.964 5.315-24.341 5.537-29.813.24-5.388-2.565-12.309-2.64-12.512a13.274 13.274 0 014.956 4.688c1.734 3.035 2.666 9.337 2.666 9.337s-5.093 20.761-6.173 25.532c-1.07 4.77 2.326 23.686 3.091 28.909z" fill="#f47100"/><path d="M258.387 327.66s3.822-13.61 4.971-14.302 9.568-2.191 13.029-2.191 11.748 6.357 12.506 7.273-1.453 13.94-2.424 14.752-1.663.497-1.663.497-5.054-4.875-10.255-6.952-16.164.923-16.164.923z" fill="#590800"/><path d="M287.016 337.039s-1.633-10.763-1.287-12.262 7.882-5.19 12.687-5.19c6.544 0 15.245 3.343 16.474 5.88.194.402.597 10.311-.23 13.9a4.937 4.937 0 01-2.98 3.332s-7.381-10.806-13.84-10.424c-3.389.2-10.824 4.764-10.824 4.764z" fill="#6f0800"/><path d="M287.016 337.039s-1.575 3.04-1.335 3.885l.24.846a91.932 91.932 0 0012.072.93 36.777 36.777 0 0011.862-2.393s-5.264-8.302-12.1-8.918-10.739 5.65-10.739 5.65zM258.387 327.66s-2.761 1.98-5.184 3.527a3.698 3.698 0 00-1.73 4.01s9.804 1.308 16.725 0a81.002 81.002 0 0013.625-4.054s-5.667-5.79-12.126-5.674a33.154 33.154 0 00-11.31 2.191z" fill="#003363"/><path d="M292.02 267.146s7.314-1.423 10.489-6.96-.286-47.168-1.901-50.457-20.37.143-20.37.143 5.67 6.18 8.09 18.789c2.716 14.148 3.693 38.485 3.693 38.485zM271.155 247.564a24.586 24.586 0 01-12.724 9.78c.415-5.535 4.235-40.515 5.158-44.52a3.653 3.653 0 01.406-1.024c3.617.96 10.556 2.251 12.238 6.25 1.196 2.844.154 21.219-5.078 29.514z" fill="#ffbf10" opacity=".5"/><path fill="#630e41" d="M302.509 223.348l43.414-16.679-4.485-33.217-47.674 10.346 8.745 39.55z"/><path fill="#460030" d="M302.509 223.348h-2.747l-7.741-40.77 48.34-9.625 1.077.499-47.674 10.346 8.745 39.55z"/><path fill="url(#m)" d="M306.03 212.597l-5.496-23.194 9.527-1.783 3.428 21.922-7.459 3.055z"/><path fill="url(#n)" d="M341.438 201.133l1.499-.498-2.422-18.011-1.615.747 2.538 17.762z"/><path d="M359.261 241.203a1.307 1.307 0 01-1.476.913s-.13 1.532-.923 1.754c-1.227.341-1.412-.286-1.412-.286a2.84 2.84 0 01-1.024 2.316 1.325 1.325 0 01-1.605-.028 6.161 6.161 0 01-2.898 1.707 13.642 13.642 0 01-2.952.018s2.528-1.614 2.759-3.238c.323-2.362-1.514-6.376-1.514-6.376a51.968 51.968 0 00-1.245 7.557c-.074 2.565-2.962 1.974-3.359 2.039-.388.065 0-.59.332-2.168s.886-10.363 2.26-14.302c1.385-3.95 3.083-7.724 2.17-10.98-.924-3.267-5.39-14.672-6.072-18.04-.212-1.07-.545-3.257-.84-5.296l-.01-.01c-.156-1.171-.313-2.278-.424-3.118-.12-.877-.193-1.449-.193-1.449l11.69-2.952 1.117-.277s1.209 9.624 1.209 13.628c0 4.014-1.901 17.624-1.901 18.87 0 .562 1.458 4.143 2.98 8.129l.01.009c1.863 4.881 3.829 10.353 3.321 11.58z" transform="translate(-27.54 -28.988)" fill="url(#o)"/><path d="M328.39 200.626a21.198 21.198 0 01-3.256-6.182c-.73-2.889.922-17.92-1.412-21.49-2.335-3.58-9.8-5.15-9.8-5.15l-.009-.008c-.157-1.172-.313-2.28-.424-3.12l11.497-4.4 1.116-.277s1.21 9.624 1.21 13.628c0 4.014-1.902 17.624-1.902 18.87 0 .562 1.458 4.143 2.98 8.129z" fill="#e1784e"/><path d="M311.796 165.897c-1.661.488-3.018-3.542-3.268-6.67-.308-3.845-1.404-7.786-1.23-8.305s4.267-1.913 10.322-3.186 10.441-1.423 10.441-1.02.863 5.571 1.151 8.57.692 5.133.288 5.882-16.724 4.441-17.704 4.73z" fill="#460030"/><path d="M311.105 93.536l2 2.053a134.395 134.395 0 00-4.654 19.568c-1.73 10.89-2.496 23.875-2.496 23.875s-2.228-15.995-1.596-22.333 6.746-23.163 6.746-23.163z" fill="#88271d"/><path d="M304.359 146.517a198.097 198.097 0 01-2.598-29.043c-.197-16.801 1.688-25.415 1.688-25.415l7.656 1.477s-3.087 14.828-4.658 25.4a86.889 86.889 0 00-.492 20.096z" fill="#590800"/><path d="M304.35 146.086s1.07 4.904-1.293 12.517-5.014 9.887-5.014 9.887l5.651 1.917s3.255-10.612 3.28-15.995a12.915 12.915 0 00-2.625-8.326z" fill="#88271d"/><path d="M95.544 204.397h3.538A147.718 147.718 0 00102.698 184c1.153-11.15 1.843-19.166 1.843-19.166l-1.845-1.23z" fill="#006070"/><path d="M69.036 203.128s8.66.846 15.354.769a88.228 88.228 0 0111.154.5 173.254 173.254 0 004.999-22.324c2.306-13.931 2.153-18.468 2.153-18.468a104.66 104.66 0 01-13.61.923c-8.151.077-23.299 1.153-23.299 1.153z" fill="#003370"/><path d="M91.46 164.481s-6.911 10.043-10.14 18.924a49.372 49.372 0 00-2.874 17.071l-9.832 1.268-3.515-11.2 6.763-15.905 10.808-9.926z" fill="#000d36"/><path d="M61.262 368.216v3.46s-8.15 2.615-14.532.616c-5.325-1.668-7.132-9.364-7.132-9.364z" transform="translate(-27.54 -28.988)" fill="url(#p)"/><path d="M130.716 366.025v2.768s-4.73 1.903-15.571 1.73a216.202 216.202 0 01-24.36-2.244l.081-3.177z" transform="translate(-27.54 -28.988)" fill="url(#q)"/><path d="M111.93 232.885s-3.148.423-3.84-.884-.5-6.536-1.576-7.305-1.577 1.823-1.577 1.823-.769-2.285-1.47-2.284c-.645 0-1.529 2.284-1.529 2.284s-.715-1.554-1.434-1.477-1.641 5.152-1.641 5.152-.538-2.98-1.268-3.374-1.156 5.67-.713 6.824 2.176.36 2.176.36a2.149 2.149 0 001.554.69 1.896 1.896 0 001.586-.963 1.62 1.62 0 001.394.73 3.958 3.958 0 001.576-1 3.295 3.295 0 002.422.77 12.544 12.544 0 004.34-1.346z" transform="translate(-27.54 -28.988)" fill="url(#r)"/><path d="M44.642 215.354s7.15 20.3 8.189 32.526-.962 20.53.884 33.602 9.073 28.45 9.535 32.14-3.076 7.229-2 9.69 2.041 2.682 2.041 2.682 7.648.086 11.031-1.299 4.767-2.306 3.845-3.383-4.614-2.153-2.922-4.613 1.384-1.538-.462-3.537-3.614-40.37-2.921-66.205-2.521-57.028-2.521-57.028-22.319 13.891-22.702 16.429-1.997 8.996-1.997 8.996z" fill="#460030"/><path d="M36.657 348.609c.304 1.227 2.768 1.384 2.463 3.23a5.33 5.33 0 00.305 3.072s3.848.157 8.304 0a14.076 14.076 0 003.276-.452c.009 0 .009 0 .018-.01 2.141-.581 3.073-1.633 2.86-2.61-.313-1.385-1.845-2.15-.46-3.692s-.314-4.309-.158-7.225c.157-2.925 10.15-40.599 14.607-60.29 4.466-19.681 8.923-36.29 11.69-42.749 2.713-6.32 16.019-14.127 16.573-14.45a.028.028 0 01.018-.009l.73-4.512-31.705-17.015h-9.301a24.743 24.743 0 01-1.892 7.087 17.153 17.153 0 01-1.568 2.906c-3 4.466-2.224 10.925-2.076 12.31.156 1.383.848 45.978-.305 51.514s-6.763 20.918-6.616 30.911c.157 9.993-.923 25.993-1.384 30.45-.461 4.456-5.684 10.306-5.38 11.534z" transform="translate(-27.54 -28.988)" fill="url(#s)"/><path d="M69.036 76.209s4.671 4.07 4.979 7.325 3.69 50.929 3.69 50.929-6.612-23.068-8.92-30.142.25-28.112.25-28.112z" fill="#910000"/><path d="M52.83 69.634c-2.652-2.375-18.103-6.643-21.623-7.22s-8.102-1.309-8.102-1.309l-6.17.848s.017 4.046-.901 6.233-3.687 5.093-4.264 8.023.384 7.325.384 7.325l39.197-1.512 6.09-4.152zM71.332 181.915l5.143-1.317.77-5.382s5.69-6.113 6.15-17.762c.42-10.604-1.7-12.609-4.848-21.721s-10.991-25.876-10.991-25.876l-5.075 29.988z" fill="#930000"/><path d="M29.998 71.06s2.764 3.753 11.45 4.964a18.998 18.998 0 0011.849-2.15 25.673 25.673 0 01-3.211-1.522h-.01a8.095 8.095 0 01-2.362-1.864c-.249-.332-.443-.618-.609-.858l-.01-.018a3.757 3.757 0 01-.7-1.348l-6.68-4.466-5.436-3.635s.83 4.715.517 6.708c-.175 1.135-2.02 2.491-3.59 3.451z" fill="#e1784e"/><path d="M31.207 70.322a30.787 30.787 0 0010.722 2.473 45.682 45.682 0 008.147-.443 8.095 8.095 0 01-2.362-1.864c-.249-.332-.443-.618-.609-.858l-.01-.018-7.38-5.814-5.436-3.635s.83 4.715.517 6.708c-.175 1.135-2.02 2.491-3.59 3.451z" fill="#c4552d"/><path d="M53.958 66.83s.46 9.006 3.229 14.487c2.768 5.472 8.424 13.629 10.076 15.317 1.467 1.513 7.585 2.52 10.362 1.689 1.91-.582 13.167-10.953 14.007-14.302.849-3.35-.259-7.982-.35-12.43-.056-3.173 1.854-8.894 2.703-12.4l.009-.019a9.853 9.853 0 00.388-2.537.812.812 0 00-.074-.296c-.674-1.384-7.862-13.499-25.32-13.96a18.962 18.962 0 00-5.342.544c-11.765 3.017-10.473 17.78-9.688 23.908z" transform="translate(-27.54 -28.988)" fill="url(#t)"/><path d="M26.418 37.843s.461 9.005 3.23 14.486c2.768 5.472 8.424 13.629 10.075 15.317 1.468 1.513 7.585 2.52 10.363 1.689 0 0-8.573-.692-10.593-4.31-2.03-3.607-7.154-13.721-7.465-23.16-.18-5.469 1.467-17.051 9.135-17.817 7.668-.775 25.282 6.154 25.282 6.154l.01-.018.978-1.91-.591-.627-5.822-6.136-24.914-7.576c-11.764 3.017-10.472 17.78-9.688 23.908z" fill="#e1784e"/><path d="M56.194 44.634c-.215 1.336 5.287 3.075 7.197 1.088.985-3.59-.174-7.587-2.369-8.51s-4.464 5.154-4.828 7.422zM37.144 39.75c.036 1.256.78 2.774 2.942 3.922 2.21 1.172 6.654.432 6.632-1.148-.017-1.232-.52-7.906-3.98-8.887s-5.61 5.537-5.594 6.113z" fill="#fff"/><ellipse cx="68.99" cy="67.329" rx="5.26" ry="2.826" transform="rotate(-85.335 39.495 67.774)" fill="url(#u)"/><path d="M39.27 37.688c-.158 1.945.56 3.59 1.605 3.676s2.02-1.422 2.179-3.367-.56-3.59-1.604-3.675-2.02 1.422-2.18 3.366z" fill="#590800"/><path d="M46.718 42.524s.115-10.098-4.21-10.213-5.364 7.44-5.364 7.44 2.653-6.71 5.421-5.537 4.153 8.31 4.153 8.31z" fill="#590800"/><path d="M84.24 71.324c.029.176.056.342.093.508.35 1.698 1.31 2.906 2.436 2.906 1.44 0 2.593-1.965 2.593-4.383a6.152 6.152 0 00-.794-3.165 2.261 2.261 0 00-1.744-1.218c-1.254 1.19-2.094 3.544-2.583 5.352z" transform="translate(-27.54 -28.988)" fill="url(#v)"/><path d="M57.441 41.365c0 1.67.802 3.024 1.791 3.024s1.79-1.354 1.79-3.024-.801-3.024-1.79-3.024-1.79 1.354-1.79 3.024z" fill="#590800"/><path d="M56.194 44.634c.074-.24.267-.932.6-1.79.175-.471.396-.988.646-1.495a6.552 6.552 0 012.325-2.87 2.249 2.249 0 011.08-.286 1.24 1.24 0 01.184.01c3.395.23 2.436 7.003 2.362 7.52.148-.526 2.38-8.49-1.965-9.43a2.318 2.318 0 00-2.141.691c-1.255 1.19-2.095 3.544-2.584 5.352a25.852 25.852 0 00-.507 2.298zM53.293 58.79a26.58 26.58 0 01-7.104-3.55c-3.003-2.225-6.698-5.593-6.698-5.593s3.245 9.3 5.71 10.263 8.092-1.12 8.092-1.12z" fill="#590800"/><circle cx="43.405" cy="39.577" r="1.474" fill="#fff"/><circle cx="61.822" cy="42.524" r="1.474" fill="#fff"/><path d="M46.064 49.305a10.915 10.915 0 004.073 2.494 16.477 16.477 0 004.263.91s-2.394 1.57-3.64 1.577-3.263-2.805-3.263-2.805a.956.956 0 01-1.34-.037c-.814-.614-.093-2.139-.093-2.139z" fill="#e1784e"/><path d="M56.367 41.767c-.69 4.244 1.044 8.057 3.873 8.518s5.683-2.607 6.373-6.851-1.043-8.058-3.873-8.518-5.682 2.607-6.373 6.85z" fill="#fff" opacity=".5"/><path d="M55.722 41.662c-.777 4.778 1.175 9.072 4.36 9.59s6.399-2.935 7.176-7.713-1.175-9.072-4.36-9.59-6.398 2.935-7.176 7.713zm.645.105c.69-4.244 3.544-7.311 6.373-6.851s4.564 4.274 3.873 8.518-3.544 7.311-6.373 6.85-4.563-4.273-3.873-8.517z" fill="#590800"/><path d="M36.101 38.862c-.472 4.666 2.004 8.738 5.532 9.095s6.77-3.135 7.243-7.801-2.004-8.738-5.531-9.095-6.771 3.135-7.244 7.8z" fill="#fff" opacity=".5"/><path d="M35.297 38.78c-.532 5.254 2.256 9.839 6.228 10.24s7.624-3.53 8.156-8.783-2.257-9.838-6.229-10.24-7.623 3.53-8.155 8.783zm.804.082c.473-4.666 3.716-8.159 7.244-7.801s6.004 4.43 5.531 9.095-3.715 8.158-7.243 7.801-6.004-4.43-5.532-9.095z" fill="#590800"/><path fill="#590800" d="M56.216 40.808l-6.807-1.5-.231 1.192 6.844.867.194-.559zM36.357 34.87l-12.361 1.747.807.8 11.24-.877.314-1.67z"/><path d="M51.351 58.461a13.372 13.372 0 01-4.382-.237c-2.125-.535-6.575-7.503-6.575-7.503s4.96 5.306 10.957 7.74z" fill="#fff"/><path d="M48.217 26.89l.717-5.19-1.524 2.076v-2.538a24.974 24.974 0 00-8.478 2.019 10.544 10.544 0 00-5.536 5.305l1.232 1.643a19.805 19.805 0 015.766-2.854 18.21 18.21 0 017.823-.461zM66.018 34.502a18.441 18.441 0 00-4.196-4.533 27.971 27.971 0 00-3.07-2.08l.51-4.536.527 2.369.355-2.215a13.442 13.442 0 013.951 3.767 12.618 12.618 0 012.67 5.46z" fill="#590800"/><path d="M28.206 41.05s-7.555-10.7-10.9-10.354.404 16.868 5.45 18.353 7.42-.418 7.42-.418z" fill="#e1784e"/><path d="M48.255 49.373c0 .793.028 1.587.074 2.353a29.434 29.434 0 00.323 2.98c.074.49.157.941.23 1.375.13.784.25 1.485.36 2.113.905 5.13 1.181 5.296 1.181 5.296s1.615 2.612 3.055 5.306a221.171 221.171 0 012.205 4.272l.812.166a89.12 89.12 0 010-14.274 22.487 22.487 0 01.729-4.226c.166-.637.36-1.246.572-1.818a20.95 20.95 0 012.39-4.724 13.505 13.505 0 011.384-1.772 132.783 132.783 0 0122.182 5.924 42.016 42.016 0 0116.572 11.515l-4.595-8.664-2.63-4.973 11.377 8.738a47.447 47.447 0 00-9.043-16.166 42.488 42.488 0 00-2.26-2.445 39.733 39.733 0 00-8.194-6.385 15.218 15.218 0 00-.849-.471 34.017 34.017 0 00-4.872-2.215 39.574 39.574 0 00-15.741-2.223 33.735 33.735 0 00-11.451 2.408 2.872 2.872 0 00-.535.304 4.978 4.978 0 00-1.163 2.141 52.534 52.534 0 00-2.113 15.465z" transform="translate(-27.54 -28.988)" fill="url(#w)"/><path d="M25.938 45.75a33.669 33.669 0 00-4.018-7.646c-2.768-3.948-4.268-4.813-4.268-4.813a55.12 55.12 0 014.143 7.047c2.085 4.199 4.143 5.412 4.143 5.412z" fill="#c4552d"/><path d="M23.105 40.73s-.724 2.163-2.022 2.106-2.566-2.105-2.566-2.105 1.163 2.825 3.278 3.143 1.912-1.35 1.912-1.35z" fill="#c4552d"/><path d="M34.058 17.423a112.994 112.994 0 0116.35-3.488 98.333 98.333 0 0117.486-.13 42.488 42.488 0 00-2.26-2.444 81.882 81.882 0 00-15.548 1.07 83.596 83.596 0 00-16.028 4.992zM34.049 17.414c.452-.443 7.76-7.53 15.132-10.436a58.45 58.45 0 017.41-2.473 34.017 34.017 0 00-4.872-2.215 51.248 51.248 0 00-6.838 4.3C40.415 9.875 34.418 16.97 34.05 17.414zM22.829 4.92a193.784 193.784 0 003.11 5.13 21.516 21.516 0 007.962 7.318 17.91 17.91 0 01-6.634-7.391 40.973 40.973 0 01-2.74-7.502 2.872 2.872 0 00-.536.304A4.978 4.978 0 0022.83 4.92zM20.716 20.385c0 .793.027 1.587.073 2.353a12.688 12.688 0 013.202-1.504 66.165 66.165 0 018.655-2.03s-5.545-.692-9.54.378a19.281 19.281 0 00-2.39.803zM21.343 27.093c.13.784.25 1.485.36 2.113a25.777 25.777 0 013.875-2.16 12.923 12.923 0 014.106-1.3c.166-.637.36-1.246.572-1.818a34.442 34.442 0 00-6.265 1.79 18.87 18.87 0 00-2.648 1.375z" fill="#590800" opacity=".59"/><path d="M35.977.067A20.782 20.782 0 0041.45 13.39c5.592 6.2 22.062 11.423 26.74 12.816l-2.63-4.973 11.377 8.738a47.447 47.447 0 00-9.042-16.166 42.488 42.488 0 00-2.26-2.445 39.733 39.733 0 00-8.194-6.385 15.218 15.218 0 00-.85-.471A34.017 34.017 0 0051.72 2.29 39.574 39.574 0 0035.977.067z" fill="#c13c32" opacity=".3"/><path d="M22.653 171.986c-.461 1.541 14.145 1.154 20.032 5.426 5.878 4.263 9.8 13.14 13.14 13.72 3.35.582 16.037-1.614 16.037-1.614s-.351-3.46-.573-8.535c-.24-5.075-1.965-22.837-3.008-32.987-1.033-10.15.812-28.373.812-38.062 0-3.765-.544-9.578-1.2-15.28v-.01c-1.042-8.986-2.38-17.697-2.38-17.697l-8.47-2.399v-.01l-6.127-1.734s-.508 1.606-6.505 1.532c-5.998-.083-13.776-3.663-13.776-3.663l-9.218 1.042s3.23 47.372 4.521 59.054c1.292 11.69-2.823 39.677-3.285 41.217z" fill="#6df2bf"/><path d="M22.653 171.986c-.461 1.541 14.145 1.154 20.032 5.426 5.878 4.263 9.8 13.14 13.14 13.72 3.35.582 16.037-1.614 16.037-1.614s-.351-3.46-.573-8.535c-.24-5.075-1.965-22.837-3.008-32.987-1.033-10.15.812-28.373.812-38.062 0-3.765-.544-9.578-1.2-15.28v-.01l-.46-9.739-1.92-7.958-8.47-2.408-6.127-1.735s-.508 1.606-6.505 1.532c-5.998-.083-13.776-3.663-13.776-3.663l-9.218 1.042s3.23 47.372 4.521 59.054c1.292 11.69-2.823 39.677-3.285 41.217zm8.72-1.845s8.424-1.495 12.696 0c4.263 1.495 9.449 7.732 9.449 7.732a23.181 23.181 0 00-10.491-10.61c-7.723-3.932-9.92-10.501-9.633-16.038s8.018-12.918 8.055-13.61c.037-.692-1.913-5.278-2.46-9.573-1.349-10.61-1.056-22.574 2.654-27.796 2.685-3.784 9.958-4.247 18.899-5.022a22.952 22.952 0 01.785 4.176c.765 9.43 3.614 57.823 7.194 70.741 3.571 12.918-.35 17.07-2.888 17.762s-9.458-.23-16-7.261c-6.532-7.04-18.26-10.501-18.26-10.501z" fill="#57d19c"/><path d="M106.552 165.68s-14.575-29.895-15.717-35.754-2.421-25.72-3.329-26.99l-.908-1.268s8.766 2.445 9.977 3.529.635 24.844 3.403 35.455 6.113 23.068 6.574 25.029z" transform="translate(-27.54 -28.988)" fill="url(#f)"/><path d="M50.645 137.15c.138 3.95.01 8.13-.25 12.346-.285 4.55-.737 9.135-1.199 13.518-.092.886-.193 1.772-.286 2.64q-.124 1.162-.249 2.297c-.101.978-.212 1.937-.304 2.879-.01 0-.01 0-.01.009-.175 1.67-.332 3.275-.47 4.798-.618 6.68-.784 11.847.378 14.034a15.947 15.947 0 005.546 5.998 12.712 12.712 0 002.786 1.384s1.523-12.457 3.599-23.53a184.373 184.373 0 001.412-51.902 67.823 67.823 0 00-1.348-7.474 50.976 50.976 0 00-4.216-11.617c-2.88-5.564-5.666-7.824-5.666-7.824s.24 1.227.37 2.473a5.053 5.053 0 01-.093 2.482c-.545.765-6.607 1.771-6.145 2.131.304.23 2.537 6.588 4.244 16.637a141.172 141.172 0 011.9 18.721z" transform="translate(-27.54 -28.988)" fill="url(#x)"/><path d="M29.05 168.065l-.71 4.844s-4.92-2.768-6.228-4.844-1.399-7.382-1.399-7.382 3.875 5.613 8.336 7.382z" fill="#a00000"/><path d="M27.54 161.76c.12 7.842 7.382 37.72 11.073 40.95s13.804 6.108 13.804 6.108l2.805-3.802a66.482 66.482 0 00-1.421-9.347 37.151 37.151 0 00-2.732-8.074 34.753 34.753 0 01-3.192-11.958c-.203-2.16-3.402-13.05 2.519-26.14a13.636 13.636 0 001.18-4.651c1.127-4.54.112-16.277-1.614-26.353-1.596-9.328-3.792-17.236-5.462-16.7-3.47 1.116-17.07 52.123-16.96 59.966z" transform="translate(-27.54 -28.988)" fill="url(#y)"/><path d="M76.475 180.598l.77-5.382s8.611-12.687 4.228-28.143-17.136-39.707-19.995-45.69-8.647-31.749-8.647-31.749l6.228 3.046s1.548-.526 3.662 11.815 2.509 21.806 8.448 34.32S82.184 140.5 84.087 151.11s-5.766 23.818-6.113 24.279-.865 5.21-.865 5.21z" fill="#e71400"/><path d="M0 132.771c.12 7.843 7.382 37.72 11.073 40.95s13.804 6.109 13.804 6.109v-.766s-8.535-8.157-11.036-11c-2.49-2.841-9.799-30.375-9.642-35.45.148-5.075 7.99-39.824 11.073-42.288 1.024-.82 3.321-1.005 5.933-.885.396.009.802.036 1.218.064a86.916 86.916 0 0110.519 1.596l-.231-5.942-.295-7.64-3.922-3.977-5.278-5.36-.018.009a5.053 5.053 0 01-.093 2.482c-.544.765-6.606 1.771-6.145 2.131C13.49 73.921-.11 124.928 0 132.771z" fill="#930000" opacity=".5"/><path d="M16.935 61.953S28.186 69.412 32.34 88.02s.99 50.373-.129 56.748-3.87 28.141-3.87 28.141l1.658-.923s6.185-32.448 7.416-58.746-2.807-37.493-6.041-43.606a21.999 21.999 0 00-7.723-8.604z" fill="#e71400"/><path d="M9.117 319.62c.305 1.228 2.768 1.385 2.464 3.23a5.33 5.33 0 00.304 3.073s3.848.157 8.305 0a14.076 14.076 0 003.275-.453 19.17 19.17 0 01-3.045-.083c-2.353-.249-6.763-2.768-5.148-3.847 1.614-1.07 8.452-2.538 8.452-2.538s-10.38.692-10.685-.535 1.614-3.23 2.768-4.918c1.153-1.698 2.999-23.686 2.768-30.606s2.999-28.143 4.844-29.066 2.538 8.766 4.263 6.69 2.657-45.444 9.956-52.595c7.188-7.04 30.237-13.333 30.957-13.527a.028.028 0 01.019-.009l-1.062-1.845-16.175-1.36-21.038-15.203-3.893 3.968a17.153 17.153 0 01-1.569 2.906c-2.999 4.466-2.224 10.925-2.076 12.31.157 1.383.849 45.978-.305 51.514s-6.763 20.918-6.615 30.911c.156 9.993-.923 25.993-1.385 30.45-.46 4.456-5.683 10.306-5.379 11.534z" fill="#460030"/><path d="M55.222 205.016a19.896 19.896 0 004.426 1.956c3.152 1.077 10.534 8.228 10.534 8.228s-6.92 1.689-8.997 1.882-6.135 1.23-7.05 0-1.718-8.264-1.718-8.264z" transform="translate(-27.54 -28.988)" fill="url(#z)"/><path d="M32.942 176.028s-1.608 3.57-3.893 7.608-2.947 5.42-2.947 5.42 5.045 6.575 11.042 7.959 12.737.05 13.52-4.844-6.661-10.266-9.391-11.997a81.037 81.037 0 00-8.331-4.146z" fill="#550547"/><path d="M63.326 336.119c.342.858 12.798 1.264 18.4 1.9 1.439.157 2.721.259 3.949.305h.027c3.507.148 6.487-.092 11.017-.305 6.109-.295 6.46-.978 6.46-.978s-3.747-2.888-7.096-3.294c-3.35-.397-14.016-4.383-15.566-5.933-2.713-2.713 4.493-8.544 3.34-9.227-1.154-.701-6.865-.738-7.613 0-.747.729-.7 5.6-1.31 5.85-.609.258-11.09 1.56-11.09 1.56s-.859 9.254-.518 10.122zM11.774 332.188c-.12 1.965 2.03 6.016 3.802 6.643a12.281 12.281 0 002.095.443c.009 0 .018.01.027.01h.01a78.856 78.856 0 0011.247.71c4.688-.074 4.77-.766 4.77-.766s-.156-2.076-3.035-3.81c-1.753-1.053-3.35-3.7-4.327-5.62-.646-1.236-1.025-2.178-1.025-2.178 0-2.002 3.691-5.767 2.62-6.772-1.079-.997-7.925-.84-9.31.461-1.383 1.31 0 4.66 0 4.66l-6.31-.028s-.453 4.29-.564 6.247z" fill="#ffbf10"/><path d="M79.765 205.235s-1.271-.146-1.848-2.453a20.92 20.92 0 01-.577-4.498 17.298 17.298 0 000 4.152c.288 2.038.265 2.714 2.425 2.799zM75.927 205.477s-1.124-.302-1.384-2.205a38.928 38.928 0 01-.202-4.786 23.423 23.423 0 00-.086 5.45 1.804 1.804 0 001.672 1.54zM72.784 205.706s-.663-.42-.922-2.335a26.482 26.482 0 01.11-5.087 14.963 14.963 0 00-.745 4.758c.16 2.028.292 1.974.292 1.974a1.87 1.87 0 001.265.69z" fill="#e1784e"/><path d="M63.326 336.119c.342.858 12.798 1.264 18.4 1.9 1.439.157 2.721.259 3.949.305-1.938-.37-14.198-2.21-11.968-6.785 1.911-3.922 6.81-3.725 6.81-3.725-2.713-2.713 4.493-8.544 3.34-9.227-1.154-.701-6.865-.738-7.613 0-.747.729-.7 5.6-1.31 5.85-.609.258-11.09 1.56-11.09 1.56s-.859 9.254-.518 10.122zM11.774 332.188c-.12 1.965 2.03 6.016 3.802 6.643a12.281 12.281 0 002.095.443 6.06 6.06 0 01-1.477-.461 6.017 6.017 0 01-2.768-4.272c-.106-.93.692-4.928 4.383-4.743s8.554 0 8.554 0c-.646-1.236-1.025-2.178-1.025-2.178 0-2.002 3.691-5.767 2.62-6.772-1.079-.997-7.925-.84-9.31.461-1.383 1.31 0 4.66 0 4.66l-6.31-.028s-.453 4.29-.564 6.247z" fill="#ffa110"/><path d="M151.468 367.22v2.941a36.45 36.45 0 01-11.822.404c-5.767-.923-9.63-8.362-9.63-8.362l-.308-3.134 8.093 5.985z" transform="translate(-27.54 -28.988)" fill="url(#A)"/><path d="M193.529 365.22v2.94a70.097 70.097 0 01-13.526.444c-7.716-.461-17.693-.288-17.693-.288v-3.172s9.977-.808 16.148-.52 15.07.597 15.07.597z" transform="translate(-27.54 -28.988)" fill="url(#B)"/><path fill="#e1784e" d="M135.463 330.158l.469-3.385 6.112-.624 1.723 4.009h-8.304zM102.476 327.928l.231-1.076 5.579-1.248.495 1.786-1 4.075-2.768.231-2.537-3.768z"/><path d="M139.726 158.192a33.383 33.383 0 00.184 3.802c.166.461 4.786 8.996 7.493 14.994s5.591 24.188 4.976 41.736-3.188 35.849-6.285 53.534-3.557 49.91-3.557 51.021.154 2.804.154 2.804l-7.536.769s-9.073-31.988-8.92-39.523 4.614-20.454 5.845-25.836-4.46-35.986-4.46-35.986 2.922-11.762 2.614-19.799-17.803-26.952-17.803-26.952l5.5-10.645.346-8.655z" fill="#003363"/><path d="M199.606 241.934c.028.96-1.282 4.097-1.467 3.958-.867-.59.296-2.675.148-3.487a21.193 21.193 0 00-1.43-3.202 22.962 22.962 0 01.59 3.165c-.018.655-1.495 4.42-2.02 4.696a1.089 1.089 0 01-.914.083s-.775.812-.932.49c-.157-.314.997-3.387.987-4.208a28.898 28.898 0 00-1.375-4.365 11.657 11.657 0 01.48 3.894c-.267 1.237-1.44 4.595-1.836 4.18-.406-.424.342-4.374-.221-6.57-.572-2.205-3.285-5.933-3.285-5.933a3.599 3.599 0 00-.037.812 30.197 30.197 0 01.572 3.765c.028 1.642-1.015 3.543-1.532 3.073s-.092-1.292-.369-3.433c-.277-2.131-1.31-4.946-1.18-6.514a10.729 10.729 0 01.848-2.575.028.028 0 01.01-.018 5.735 5.735 0 00.331-3.156c-.489-2.556-11.404-19.321-11.967-24.387a32.394 32.394 0 01.673-8.13c.997-5.36 2.815-10.776 4.356-10.057.95.443 2.205 2.473 3.866 5.832a147.06 147.06 0 012.187 4.65l1.015 2.261c3.34 7.465 2.546 28.392 3.054 29.028a74.048 74.048 0 015.485 7.871c1.837 3.248 3.945 7.317 3.963 8.277z" transform="translate(-27.54 -28.988)" fill="url(#C)"/><path d="M159.103 200.757a5.735 5.735 0 00.332-3.156c-.489-2.556-11.405-19.321-11.968-24.387a32.394 32.394 0 01.674-8.13l8.221-4.225a147.06 147.06 0 012.187 4.65s-4.17 5.869-4.936 11.553c-.775 5.693 5.176 16.996 6.126 18.841.895 1.754-.498 4.586-.636 4.854z" fill="#e1784e"/><path d="M87.443 153.742s1.192-5.358-.96-9.357-2.054-3.242-3.219-5.85-.204-2.685 1.18-5.568 20.877-19.108 21.108-23.414-.193-31.084-.097-32.42 10.17-18.33 12.4-19.329 39.753-1.922 41.368 5.152-5.075 20.53-3.614 25.951 6.459 10.88 4.652 15.187-4.268 5.92-4.614 9.803 6.805 14.863 8.728 17.639 2.69 2.623 1.883 5.89-7.266 12.957-7.612 16.57-.577 5.46-.577 5.46-11.56-1.571-17.365-2.23-5.549-6.83-30.308-6.108c-7.932.231-22.953 2.624-22.953 2.624z" fill="#94001f"/><path d="M144.616 113.902s-6.736 1.384-11.35 2.417-19.026-.692-19.026-.692-9.688 19.497-10.961 23.64c-1.264 4.143-2.768 11.036-2.768 11.036s-13.601 18.5-14.875 17.578.539-17.652 4.69-28.614 11.775-23.303 14.764-25.37c3.008-2.085 3.919-1.573 6.225-2.117.942-.222 3-.895 5.14-1.661a50.235 50.235 0 006.708-2.722c.397-.397.738-3.414.904-4.974.056-.562.083-.94.083-.94l5.49 1.89 2.778.96s.203 1.91.203 2.99c0 .221.517.637 1.329 1.153 3.118 1.966 10.666 5.426 10.666 5.426z" fill="#e1784e"/><path d="M133.95 108.476a16.212 16.212 0 01-4.91 1.043c-3.736.425-12.585.6-12.585.6a50.235 50.235 0 006.708-2.722c.397-.397.738-3.414.904-4.974l5.574.95 2.777.96s.203 1.91.203 2.99c0 .221.517.637 1.329 1.153z" fill="#c4552d"/><path d="M139.91 111.66s2.363 1.174 4.706 2.242c2.458 1.12 5.149 3.285 6.184 5.959 1.64 4.241 2.797 21.912 3.573 27.03a117.145 117.145 0 003.103 13.257 57.51 57.51 0 01-7.711 4.268l-3.345 1.384s-4.498-14.879-5.19-19.723-1.32-34.416-1.32-34.416z" fill="#b8aaff"/><path d="M176.566 123.734c-2.14 3.636-9.578 8.194-16.572 9.578a.092.092 0 00-.037.01 22.094 22.094 0 01-2.288.34c-5.149.462-14.274-7.04-17.384-12.696-3.119-5.647-4.041-17.116-4.041-17.116s6.459-22.127 16.96-21.647c10.49.47 23.528 9.624 24.1 15.474.572 5.84-.562 8.867-.738 14.348-.184 5.49 2.372 7.677 0 11.71z" transform="translate(-27.54 -28.988)" fill="url(#D)"/><path d="M132.418 104.333a22.094 22.094 0 01-2.288.342c-5.15.461-14.275-7.04-17.384-12.697-3.119-5.647-4.042-17.116-4.042-17.116s6.46-22.127 16.96-21.647c10.49.47 23.529 9.624 24.101 15.474a37.992 37.992 0 00-20.392-6.348c-11.672 0-14.56 9.568-14.21 16.609.35 7.03 1.541 12.189 5.998 17.476s7.483 7.086 8.83 7.594a5.206 5.206 0 002.427.313z" fill="#e1784e"/><path d="M124.148 93.136a31.896 31.896 0 007.278 2.22 23.816 23.816 0 005.28.154s-1.59 3.307-3.752 3.364-7.035-3.23-7.122-3.316-1.684-2.422-1.684-2.422zM139.91 86.765s4.204-9.459 6.38-8.738 1.952 4.493 1.952 4.493-.438 4.417-2.11 5.224-5.753.089-6.222-.98zM129.04 85.413s-1.132-8.132-4.938-9.186a8.83 8.83 0 00-7.016 1.325s-.231 3.849 2.095 6.069 9.634 2.085 9.858 1.792z" fill="#fff"/><path d="M153.66 108.796c0 2.386-1.554 4.32-3.47 4.32s-3.47-1.934-3.47-4.32 1.554-4.319 3.47-4.319 3.47 1.934 3.47 4.32z" transform="translate(-27.54 -28.988)" fill="url(#E)"/><path d="M125.111 79.29a2.52 2.52 0 11-2.46-3.063 2.812 2.812 0 012.46 3.062z" fill="#590800"/><path d="M172.71 108.16a2.002 2.002 0 00-1.099-.564 1.607 1.607 0 00-.47 0c-.213.305-.425.628-.619.97a28.525 28.525 0 00-1.457 2.906c-.314.71-.582 1.393-.822 2.002v.01a5.373 5.373 0 00.139.58 2.698 2.698 0 001.984 2.086c1.531.221 3.045-1.513 3.395-3.876a4.843 4.843 0 00-1.052-4.115z" transform="translate(-27.54 -28.988)" fill="url(#F)"/><path d="M145.484 82.659c-.24 1.67-1.32 2.897-2.4 2.74a1.994 1.994 0 01-1.457-1.67 4.193 4.193 0 01-.102-1.245 28.525 28.525 0 011.458-2.907 1.43 1.43 0 01.987-.24 1.395 1.395 0 01.646.277 3.308 3.308 0 01.868 3.045zM129.12 85.755s.191-8.082-4.345-10.189-7.382.077-8.612-.307a10.108 10.108 0 01-2-.846s1.23 2.971 2.923 3.139 4.324-1.738 7.381-.448 4.652 8.65 4.652 8.65z" fill="#590800"/><path d="M115.625 75.49s1.576-.731 4.536-1.923a14.506 14.506 0 015.498-1.076 11.679 11.679 0 00-3.768 1.23c-1.535.925-2.499 1.46-2.499 1.46zM151.924 79.845c-.323.313-3.082 2.842-3.894 2.685-.849-.176.35-5.195-2.777-3.414a.427.427 0 00-.083.055 3.137 3.137 0 00-.554.443 23.09 23.09 0 00-2.99 4.115c-.285.48-.553.932-.784 1.347-.507.886-.858 1.55-.932 1.689.056-.175.342-1.07.794-2.27v-.01c.24-.608.507-1.291.821-2.001a28.525 28.525 0 011.458-2.907c.194-.341.406-.664.618-.969.978-1.42 2.067-2.399 3.165-2.196 1.9.342 1.67 3.746 2.362 4.208.637.424 2.528-.628 2.796-.775z" fill="#590800"/><path d="M148.266 80.334a31.11 31.11 0 000-3.537 7.088 7.088 0 00-.423-2.384 15.904 15.904 0 011.115 3.652 7.52 7.52 0 01-.231 3.076zM117.24 78.565a7.042 7.042 0 001.73 4.19 8.249 8.249 0 003.979 2.538s-3.095-.461-4.48-1.768-1.23-4.96-1.23-4.96zM141.576 87.773a22.425 22.425 0 003.921-.404c1.23-.346 2.153-2.345 2.153-2.345s-.46 2.422-1.268 3.191-4.806-.442-4.806-.442z" fill="#590800"/><circle cx="125.111" cy="81.929" r="1.485" fill="#fff"/><path d="M146.867 84.013a1.127 1.127 0 11-1.127-1.127 1.127 1.127 0 011.127 1.127z" fill="#fff"/><path d="M130.926 65.395s-2.383.233-5.815.464-4.066-.427-6.949.478a9.537 9.537 0 00-4.498 3.155s3.69-2.482 7.208-2.049 5.94 1.357 7.844 1.184 2.21-3.232 2.21-3.232zM144.08 67.842a18.115 18.115 0 003.763 2.826c2.326 1.326 2.924 2.084 3.248 3.87a8.465 8.465 0 01-.057 2.595 4.254 4.254 0 00-1.5-3.47c-1.672-1.265-3.095-.227-4.92-1.784s-.534-4.037-.534-4.037z" fill="#590800"/><path d="M149.652 119.558s1.24 2.566 6.084 3.316a63.329 63.329 0 0011.714.23 9.106 9.106 0 01-5.428 2.307 22.515 22.515 0 01-9.371-2.422 10.186 10.186 0 01-3.2-3.23z" transform="translate(-27.54 -28.988)" fill="url(#G)"/><path d="M149.45 119.76s.827 1.788 2.48 4.594 4.844 5.344 7.343 5.267 3.383-1.537 4.19-2.845a11.034 11.034 0 012.142-2.383l-1.488.115a8.718 8.718 0 00-1.307 1.423c-.692.922-2.114 1.22-4.168.615-2.642-.78-6.482-3.922-6.482-3.922z" transform="translate(-27.54 -28.988)" fill="url(#H)"/><path d="M125.351 88.907s-1.557.62-4.059 1.472c-1.258.428-1.102 2.757-1.102 2.757a3.007 3.007 0 011.452-1.691c1.134-.577 2.94-1.423 3.71-2.538zM130.263 89.052a19.384 19.384 0 004.031 1.2 17.714 17.714 0 004.665.283s-1.81 1.732-3.674 1.538a3.803 3.803 0 01-2.37-1.268s-.298.364-1.444.23-1.208-1.983-1.208-1.983z" fill="#e1784e"/><path d="M107.072 78.951a20.257 20.257 0 013.324 3.935 13.192 13.192 0 002.153 2.869s-.005-4.286 0-6.466a14.598 14.598 0 01.307-3.332z" fill="#94001f"/><path d="M148.612 143.429c-.97 1.762-4.955 4.724-5.306 4.835-.35.12-3.58 9.928-3.58 9.928s-7.603 1.606-11.645 1.264a66.729 66.729 0 01-8.074-1.264s-6.043-8.692-8.046-14.348a194.208 194.208 0 01-2.362-7.197c-1.19-3.802-2.131-7.022-2.131-7.022a39.401 39.401 0 005.047-6.699 9.752 9.752 0 001.264-3.377 77.258 77.258 0 00.388-8.637l.009.01a58.731 58.731 0 0014.948 2.98c7.612.341 10.786-2.242 10.786-2.242s1.966 6.016 4.41 11.663a52.254 52.254 0 003.332 6.606c3.69 5.878 2.685 10.326.96 13.5z" fill="#dbccff"/><path d="M116.455 121.625c-.01.166-.028.332-.046.498-.646 7.271-2.74 10.695-2.74 10.695s-2.344 2.066-4.07 3.829c-.267.267-.517.535-.738.784-2.639 2.897-5.536 8.738-7.096 12.125h-.009c-.71 1.559-1.144 2.592-1.144 2.592a24.305 24.305 0 00-5.924 3.442c-4.53 3.35-9.448 10.21-9.448 10.21s.858-16.54 4.475-26.533c4.207-11.644 10.15-22.994 15.206-26.223 3.377-2.16 9.246-2.132 9.246-2.132l.009.01a19.021 19.021 0 012.28 10.703z" fill="#dbccff"/><path fill="#e1784e" d="M135.379 140.391l.158 1.635 1.137-.563-.647-.711-.648-.361z"/><path d="M144.32 123.323c-3.244-2.236-8.467-2.778-11.625-2.62-13.85.691-22.517 8.396-25.227 8.922-5.925 1.15-7.88 14.948-8.914 16.858-.996 1.836 2.935 2.99 3.202 3.073-.71 1.559-1.144 2.592-1.144 2.592a24.305 24.305 0 00-5.924 3.442c-4.53 3.35-9.644 10.21-9.644 10.21s1.054-16.54 4.67-26.533c4.208-11.644 10.15-22.994 15.207-26.223 3.377-2.16 9.246-2.132 9.246-2.132l.009.01a58.731 58.731 0 0014.948 2.98c7.612.341 10.786-2.242 10.786-2.242s1.966 6.016 4.41 11.663z" fill="#b8aaff"/><path d="M183.187 142.885s1.153 3.46 5.651 7.036 6.92 7.365 6.69 10.603a15.624 15.624 0 01-1.73 5.89s-1.155-4.763-7.266-8.188c-7.82-4.383-3.345-15.34-3.345-15.34z" transform="translate(-27.54 -28.988)" fill="url(#I)"/><path d="M194.947 125.414c-.572 2.131-7.142 7.668-7.142 7.668s.683-2.427-2.888-6.58-8.6-6.597-6.2-13.388c2.389-6.791 7.076-17.725 5.858-21.213-2.426-6.893-37.859-.221-37.859-.221a30.356 30.356 0 01-1.291 7.049 13.207 13.207 0 01-3.719 6.164c-4.613 3.801-6.68 4.18-6.68 4.18s-1.144 14.901 1.54 21.582c2.677 6.699 1.412 15.225-6.892 22.265s-16.147 8.074-18.344 10.611a3.396 3.396 0 00-.018 4.724c-.23-.11-3.202-1.707 1.015-8.95 4.383-7.539 6.228-24.24 6.228-41.264 0-8.692.858-14.33 2.52-18.583a27.354 27.354 0 016.975-9.864c6.238-6.108 26.805-18.39 41.873-17.956 7.05.203 20.069 21.813 20.76 25.19s-.922 14.053.462 18.925 4.383 7.53 3.802 9.66z" transform="translate(-27.54 -28.988)" fill="url(#J)"/><path d="M119.706 62.59l3.17-.54s12.784-5.524 17.828-6.591a71.027 71.027 0 0114.145-1.814l-.602-.815a54.632 54.632 0 00-12.056 1.38c-8.343 1.71-22.485 8.38-22.485 8.38z" fill="#94001f" opacity=".5"/><path d="M120.22 62.384l-1.04.303s10.538-7.808 15.86-10.957a61.087 61.087 0 0112.963-5.997l1.32 1.268a112.704 112.704 0 00-13.082 5.219c-7.804 3.614-16.02 10.164-16.02 10.164z" fill="#94001f" opacity=".5"/><path d="M123.626 46.74a43.9 43.9 0 00-2.222 8.108c-.37 1.88-1.09 7.64-1.09 7.64l-1.133.199s.51-4.007 1.086-8.477a55.23 55.23 0 011.137-6.54zM119.064 64.056a68.958 68.958 0 01-13.609 2.281c-7.439.464-9.757-.075-9.757-.075l-1.39 2.452a79.552 79.552 0 0012.105-.872 112.932 112.932 0 0012.546-2.95zM117.63 70.472s-8.464 5.743-17.115 11.897-9.496 6.683-9.496 6.683l-.015 2.643s8.032-5.48 14.77-10.93 11.305-8.93 11.305-8.93zM87.04 125.018s4.383-3.247 12.159-14.45 8.175-18.451 8.175-18.451l.091 1.38a46.25 46.25 0 01-8.266 18.094c-6.642 8.708-12.822 15.328-12.822 15.328zM83.799 132.182s6.855-3.579 15.044-12.056a39.575 39.575 0 009.861-19.35l.865 1.472a43.67 43.67 0 01-10.034 17.993 80.216 80.216 0 01-16.34 13.357zM161.86 64.827s-4.021 13.606-4.367 21.938 4.85 15.49 4.85 15.49l1.09-1.016s-6.171-7.218-5.095-16.215a133.612 133.612 0 014.087-19.052z" fill="#94001f" opacity=".5"/><path d="M163.323 70.915s-1.178 5.449-2.14 12.124 5.393 10.097 5.393 10.097l-.471-.96s-5.075-3.932-4.46-9.29a87.15 87.15 0 011.61-9.474zM167.673 133.598s.444-5.608-3.683-9.051c-6.959-5.805-8.996-10.073-8.996-10.073l-.621 2.268s1.305 2.866 8.733 7.997c4.898 3.384 4.021 10.71 4.021 10.71zM118.153 67.443l-.268 2.298a13.207 13.207 0 01-3.718 6.164c-4.614 3.801-6.68 4.18-6.68 4.18s-1.145 14.901 1.54 21.582c2.676 6.699 1.412 15.225-6.893 22.265s-16.147 8.074-18.343 10.611a3.396 3.396 0 00-.019 4.724c-.23-.11-3.201-1.707 1.016-8.95 4.382-7.539 6.228-24.24 6.228-41.264 0-8.692.858-14.33 2.519-18.583 0 0 1.9.637 10.27.443a34.312 34.312 0 0014.348-3.47z" fill="#94001f" opacity=".5"/><path d="M110.396 82.886s-5.46-7.719-9.304-7.397c-2.537.213-2.538 6.46.077 10.266s5.901 6.68 8.285 6.333 2.508-1.75 2.508-1.75z" fill="#e1784e"/><path d="M110.396 88.09a31.23 31.23 0 00-4.23-6.92 15.423 15.423 0 00-5.65-3.604 51.969 51.969 0 014.7 4.363 76.537 76.537 0 015.18 6.162z" fill="#c4552d"/><path d="M108.493 84.947a3.143 3.143 0 01-1.134 1.98c-.942.615-3.557-.884-3.557-.884s2.115 1.827 3.46 2.048 1.763-1.762 1.763-1.762z" fill="#c4552d"/><path d="M130.231 217.513c-.729 4.955-5.352 23.345-10.131 41.3a2001.419 2001.419 0 01-3.857 14.21c-5.85 21.223-7.188 52.41-7.188 52.41l-6.348 1.422s-3.931-20.355-5.168-33.144l-.009-.065a40.327 40.327 0 01-.203-8.627c1.227-7.53 4.761-19.377 5.952-25.984 1.2-6.615-1.034-52.52 0-56.276 1.042-3.746 9.153-24 9.153-24 22.182 15.225 18.722 32.443 17.8 38.754z" fill="#00427f"/><path d="M133.168 359.377s-.461-2.384 0-2.768 3.768-.692 4.075-.77 2.525 3.23 4.377 4.999 8.618 3.306 9.156 3.998a6.024 6.024 0 01.692 2.384s-8.42 1.505-14.186-.571a13.101 13.101 0 01-7.574-7.58l.307-2.153z" transform="translate(-27.54 -28.988)" fill="url(#K)"/><path d="M163.002 359.146l-.692 5.998a97.748 97.748 0 0111.996 0c7.458.384 12.687.769 14.763.538s4.46-.461 4.46-.461a2.744 2.744 0 00-2.076-1.769c-1.692-.384-7.906-.538-11.45-2.307s-7.158-4.92-7.697-4.92-2.076.537-1.845 1.383a3.138 3.138 0 00.692 1.307z" transform="translate(-27.54 -28.988)" fill="url(#L)"/><path d="M106.167 199.594a48.098 48.098 0 009.804-3.131 32.97 32.97 0 007.334-4.452l-.606 2.355a49.344 49.344 0 01-8.619 4.017 65.292 65.292 0 01-7.913 2.374z" fill="#0077a6"/><path d="M108.074 200.285a174.383 174.383 0 00-1.907 22.031c0 9.689.692 30.219 0 35.41s-6.805 23.298-6.46 30.103 3.647 38.878 3.647 38.878l.929-.317s-4.268-37.37-3.653-40.907 6.536-26.22 6.69-28.065-.115-32.91-.115-36.082 2.183-21.423 2.183-21.423zM109.984 198.65s2.296-8.36 3.564-12.82 3.255-10.457 3.255-10.457l2.168-.335a100.546 100.546 0 00-4.235 9.62 128.716 128.716 0 00-3.552 13.991z" fill="#0077a6"/><path d="M138.692 326.49s-8.948-35.932-7.703-44.236 4.628-19.07 5.243-24.298-6.856-35.3-6.856-35.3l.614-2.083s8.01 34.384 7.549 37.268-5.767 22.606-5.767 26.528 7.843 42.028 7.843 42.028z" fill="#0077a6" opacity=".5"/><path d="M134.367 164.147s2.134 17.07 2.307 25.99-7.859 34.277-7.859 34.277 9.124-28.395 9.616-33.009S136.4 165.8 136.4 165.8z" fill="#0077a6"/><path fill="url(#M)" d="M138.431 172.028l-4.814-49.905-31.85 4.796 8.265 49.501 28.399-4.392z"/><path fill="#930000" d="M101.767 126.919l3.016-1.957 31.064-5.067 3.22 51.557-.636.576-4.814-49.905-31.85 4.796z"/><path d="M166.885 175.796s.664 1.028-.105 1.605-1.702 1.316-5.392 1.893-8.382-.423-9.189-.423-16.724 13.61-24.644 15.629-12.918 3.104-14.38 2.369c-2.407-1.212 6.421-12.693 10.746-15.404s24.626-4.388 26.932-5.586 2.884-4.043 4.037-5.12 3.73-1.393 5.575-2.504 2.23-1.956 2.922-1.84-.154 2.114-1.461 3.114a30.982 30.982 0 01-3.307 1.884 3.715 3.715 0 00-.615.538 13.242 13.242 0 004.883-.846c2.076-.923 1.753-2.153 1.753-2.153.577.058 1.823 1.75 1.015 2.73l-.807.98s1.24-.74 1.47-.452a1.586 1.586 0 01.289 1.327 2.38 2.38 0 01-.779.692s.952-.346 1.096-.173.432 1.067.086 1.413a2.93 2.93 0 01-1.04.548z" transform="translate(-27.54 -28.988)" fill="url(#N)"/><path d="M134.367 144.635a20.407 20.407 0 003.09-1.25 3.711 3.711 0 00.884-1.143l.09.934s-.109.282-.82.666a17.65 17.65 0 01-3.244.793zM139.067 144.549a5.755 5.755 0 01-1.24.855 12.429 12.429 0 01-1.98.711 10.68 10.68 0 002.25-.557 1.67 1.67 0 00.97-1.01zM139.233 146.666a12.264 12.264 0 01-1.593.694c-.807.274-.966.346-.966.346s1.413-.245 1.86-.39a1.516 1.516 0 00.85-.65l.087-.185z" fill="#e1784e"/><path d="M120.1 258.777v.037a2001.419 2001.419 0 01-3.857 14.21c-5.85 21.222-7.188 52.41-7.188 52.41l-6.348 1.42s-3.931-20.354-5.168-33.143l-.009-.065-.046-.59s5.25-16.526 11.294-22.644c6.053-6.117 11.322-11.635 11.322-11.635z" fill="#00274a" opacity=".5"/><path d="M178.014 176.43a135.092 135.092 0 00-1.183 24.74c.721 12.304 4.677 17.028 8.564 8.92s3.985-27.715 3.684-28.62-1.76-7.366-1.76-7.366l-2.577 1.23a45.816 45.816 0 011.662 18.147c-1.163 9.843-5.315 14.836-6.007 15.127s-1.845-9.513-1.384-18.164a126.7 126.7 0 011.269-13.324z" fill="#590800"/><path d="M174.054 108.553a123.75 123.75 0 01-2.192 14.218c-1.269 4.813-2.87 26.74-2.435 34.038s4.529 20.097 7.404 20.311 11.41 0 11.41 0l15.533-20.31-.961-21.92-6.538-25.53-9.232-11.987z" fill="#88271d"/><path d="M172.936 117.316s6.175 6.09 11.688 21.668a95.66 95.66 0 015.385 29.453l15.213-17.859-5.988-20.955-13.993-25.629-10.535 3.998-.792 1.887z" fill="#590800"/><path d="M190.009 95.768s-7.882-4.65-9.612-4.698-7.497 4.9-7.728 5.714 6.229 5.08 6.229 5.08l1.422-.346s-4.486-4.694-3.877-5.75 4.588-2.703 5.857-2.296 4.71 5.047 4.71 5.047z" fill="#f47100"/><path d="M193.02 95.575s3.072-1.02-4.318.892c-1.03.266-14.187 7.35-15.225 9.372a10.78 10.78 0 00-.814 4.906s6.145-4.51 9.926-4.906c13.006-1.36 13.006-8.466 13.006-8.466z" fill="#f47100"/><path d="M261.04 366.89l-.384 3.768s7.689 1.845 12.302.307 4.044-8.073 4.044-8.073z" transform="translate(-27.54 -28.988)" fill="url(#O)"/><path d="M221.96 362.892a26.823 26.823 0 00.557 5.997c.615 2.076 5.28 3.578 8.676 3.327a17.855 17.855 0 005.703-1.328l-1.038-3.883z" transform="translate(-27.54 -28.988)" fill="url(#P)"/><path d="M231.193 264.69s-1.06 15.465-1.218 37.647-1.384 53.942-1.384 53.942l-.849.295-.046.01-3.1 1.07s-9.227-41.209-9.67-47.206c-.434-5.998 1.365-19.986 1.974-24.784.406-3.174-.59-13.573-1.31-20.226l-.009-.065c-.369-3.35-.655-5.73-.655-5.73z" transform="translate(-27.54 -28.988)" fill="url(#Q)"/><path d="M273.647 353.206h-4.152s-.858-3.072-2.224-7.834c-3.792-13.24-11.497-39.529-15.455-48.913-3.94-9.328-8.046-21.425-9.965-27.257l-.01-.018a583.81 583.81 0 01-1.116-3.423l18.316-.323s2.15 16.258 3.23 21.48c1.079 5.232 7.076 14.303 9.337 23.991 2.27 9.689 2.04 42.297 2.04 42.297z" transform="translate(-27.54 -28.988)" fill="url(#R)"/><path d="M203.654 235.702s-1.061 15.465-1.218 37.647-1.384 53.942-1.384 53.942l-.85.295-.045.01s-1.643-53.933-1.061-59.008c.572-5.075 2.066-16.148 0-21.684-2.086-5.536-11.045-10.454-11.045-10.454l-.01-.065c-.369-3.35-.655-5.73-.655-5.73zM246.108 324.218l-3.911.85s-1.1-3.923-2.465-8.684c0 0 3.192-18.159 1.92-27.035-1.274-8.886-5.426-23.188-6.23-24.341s-1.383 3.58-1.992 3.23-1.467-19.147-3.774-22.838c-2.316-3.69-15.345-5.186-15.345-5.186l-.01-.018a583.81 583.81 0 01-1.116-3.423l18.316-.323s2.15 16.258 3.23 21.48c1.08 5.232 7.077 14.302 9.338 23.99 2.27 9.69 2.039 42.298 2.039 42.298z" fill="#e1784e"/><path d="M187.997 73.342s.693 8.11.988 12.53a35.278 35.278 0 001.844 8.625s4.156 1.984 12.617 1.271 13.93-1.566 15.961-.976a11.22 11.22 0 013.987 2.581s6.159-9.63 7.117-12.412-.277-14.046-.277-14.046l-24.86-23.993-14.177 5.384s-4.482 17.067-3.2 21.036z" fill="#590800"/><path d="M180.598 125.89s-1.113 6.237-1.922 12.13a57.672 57.672 0 01-2.233 10.005l14.334-1.558 2.028-19.232-8.181-2.595zM239.344 213.797s-1.441 6.17-.807 6.344 2.235-2.714 2.617-4.27.728-2.535.728-2.535-2.595 7.554-2.307 8.131 1.442-.923 2.307-2.595 2.191-4.729 2.191-4.729l-5.132-6.574z" fill="#e1784e"/><path d="M273.647 244.557c.083 1.3-2.999 7.99-3.69 7.99s.101-3.358.673-5.037a11.106 11.106 0 00.923-3.627c-.11-.526-2.934-3.58-3.46-4.558-.342-.637-.462-.858-.499-.932.148.388 1.163 2.934 1.541 4.162.406 1.328 1.209 2.186.868 2.648-.351.461-1.56-.166-3.12-2.418s-4.151-6.514-4.096-7.27c.037-.444.277-3.498.406-6.423a36.594 36.594 0 000-4.992 3.418 3.418 0 00-.055-.323c-.702-3.386-6.57-20.705-6.709-25.743-.156-5.232 0-17.8 0-20.67 0-2.121-1.18-11.948-1.79-16.912-.221-1.744-.369-2.889-.369-2.889s.535-.009 1.366-.009c3.008 0 9.947.074 9.947.794 0 0-.157 6.099-.176 12.133v.028c0 3.386.037 6.745.176 8.987.378 6.238 2.842 14.68 3.146 21.066.305 6.394-2.703 24.203-1.66 26.14s6.504 16.544 6.578 17.855z" transform="translate(-27.54 -28.988)" fill="url(#S)"/><path d="M238.043 129.36s-.157 6.099-.175 12.133v.028s-5.6 9.689-6.985 14.911c-1.384 5.232.018 15.612 2.547 22.726 1.522 4.273 2.011 10.962 2.168 15.631-.701-3.386-6.57-20.705-6.708-25.743-.157-5.232 0-17.8 0-20.67 0-2.121-1.181-11.948-1.79-16.913l.996-2.897c3.008 0 9.947.074 9.947.794z" fill="#e1784e"/><path d="M231.963 130.638l10.457-2.192s-5.844-16.992-7.766-20.146c-1.165-1.91-7.882-4.306-7.882-4.306l-.96 12.226z" fill="#c989ff"/><path d="M223.547 102.869s-.978 4.973-5.97 5.12c-4.991.158-17.734-7.695-17.734-7.695s2.934-.443 5.38-1.052a8.262 8.262 0 003.137-1.208 8.61 8.61 0 001.42-3.405l8.453-6.551s-1.145 7.953-.397 9.568a4.331 4.331 0 00.729 1.006 42.76 42.76 0 004.982 4.217z" fill="#e1784e"/><path d="M218.565 98.652a10.916 10.916 0 01-7.096 1.707 22.627 22.627 0 01-6.247-1.117 8.262 8.262 0 003.138-1.208 8.61 8.61 0 001.42-3.405l8.453-6.551s-1.145 7.953-.397 9.568a4.331 4.331 0 00.729 1.006z" fill="#c4552d"/><path d="M254.07 111.217c-2.725 4.735-13.32 13.002-16.418 13.516a3.03 3.03 0 01-1.372-.169c-4.877-1.566-15.056-12.267-15.551-15.259-.55-3.301.392-9.87.72-12.764a54.353 54.353 0 00.36-9.54 43.208 43.208 0 01-.098-2.683c.009-3.93 8.001-11.506 14.57-12.834 6.575-1.328 20.074 6.762 22.286 12.507s-1.77 22.482-4.496 27.226z" transform="translate(-27.54 -28.988)" fill="url(#T)"/><path d="M226.531 82.229c-2.726 4.735-13.32 13.002-16.419 13.516a3.03 3.03 0 01-1.371-.169 32.827 32.827 0 0014.648-15.055c4.983-10.693 3.904-20.101-1.053-24.916-4.957-4.807-17.11-5.71-21.367-3.479a25.413 25.413 0 00-6.7 5.886 43.208 43.208 0 01-.098-2.682c.01-3.93 8.002-11.506 14.57-12.834 6.576-1.328 20.074 6.762 22.287 12.507s-1.77 22.482-4.497 27.226z" fill="#e1784e"/><path d="M202.545 71.35s-.837-10.85-4.239-10.683-4.397 6.886-4.397 6.886.47 3.377 3.125 4.152a9.66 9.66 0 005.51-.354zM211.629 72.36a15.121 15.121 0 008.556-1.01c3.946-1.932 4.979-4.44 3.946-6.468s-1.975-4.984-4.794-4.647c-3.614.432-7.708 12.124-7.708 12.124z" fill="#fff"/><path d="M249.876 94.48c0 2.783-1.55 5.04-3.46 5.04s-3.46-2.257-3.46-5.04 1.548-5.04 3.46-5.04 3.46 2.256 3.46 5.04z" transform="translate(-27.54 -28.988)" fill="url(#U)"/><path d="M221.477 65.385c0 1.974-1.098 3.574-2.454 3.574s-2.453-1.6-2.453-3.574 1.098-3.574 2.453-3.574 2.454 1.6 2.454 3.574z" fill="#590800"/><path d="M229.5 94.869a7.408 7.408 0 01-.142 1.425c-.407 2-1.54 3.443-2.867 3.443-1.664 0-3.01-2.257-3.01-5.036a7.977 7.977 0 01.133-1.478v-.018c.38-2.063 1.522-3.55 2.877-3.55a2.505 2.505 0 012.027 1.32 21.406 21.406 0 01.982 3.894z" transform="translate(-27.54 -28.988)" fill="url(#V)"/><path d="M201.09 65.708c0 1.974-.956 3.574-2.135 3.574s-2.136-1.6-2.136-3.574.956-3.574 2.136-3.574 2.135 1.6 2.135 3.574zM211.629 72.36s2.508-12.014 6.933-13.452 5.274 3.06 6.122 3.06a2.224 2.224 0 001.439-.59s-1.058 3.29-1.992 3.504c-1.29.295-2.286-4.02-4.905-3.688-3.737.474-7.597 11.165-7.597 11.165z" fill="#590800"/><path d="M202.545 71.35a43.582 43.582 0 00-.726-4.044 22.186 22.186 0 00-.735-2.55v-.017c-.593-1.638-1.38-2.974-2.398-3.186a.703.703 0 00-.133-.027c-.92-.106-1.735 1.24-2.478 2.69v.018a13.463 13.463 0 01-1.833 3.213c-1.16.939-2.328-4.425-2.328-4.425s.558 1.708 1.496 1.602 1.381-5.205 5.196-5.205c1.036 0 1.806 1.063 2.372 2.567a21.406 21.406 0 01.983 3.895 48.46 48.46 0 01.584 5.47z" fill="#590800"/><path d="M194.023 68.09a5.123 5.123 0 002.81 2.442c1.88.553 4.138 1.505 4.138 1.505s-3.283.553-4.537 0-2.41-3.947-2.41-3.947zM213.547 72.645s3.596-1.33 6.178-2.459a44.949 44.949 0 004.406-2.206 6.888 6.888 0 01-2.84 3.504c-2.175 1.327-7.744 1.161-7.744 1.161z" fill="#e1784e"/><path d="M198.069 68.046a1.237 1.237 0 11-1.237-1.237 1.237 1.237 0 011.237 1.237zM217.806 68.31a1.237 1.237 0 11-1.236-1.236 1.237 1.237 0 011.236 1.237z" fill="#fff"/><path d="M215.333 50.093a21.562 21.562 0 017.563 3.91 11.528 11.528 0 013.78 6.206 20.95 20.95 0 00-4.684-4.104c-2.854-1.684-6.477-2.564-6.66-6.012zM202.126 50.268a14.279 14.279 0 00-5.255 3.153c-2.395 2.156-2.544 6.317-2.544 6.317s1.034-3.053 2.923-4.27 4.766-2.268 4.876-5.2z" fill="#590800"/><path d="M211.693 75.109a49.385 49.385 0 01-5.458 1.401 7.207 7.207 0 01-4.076-.313s1.715 2.82 3.412 2.784 3.65-2.286 3.65-2.286a1.668 1.668 0 001.255.366c.811-.065 1.217-1.952 1.217-1.952z" fill="#e1784e"/><path d="M202.813 83.402a19.691 19.691 0 002.231 2.65c.69.513 2.845 1.974 2.845 1.974l4.652-1.77 2.117-3.36 2.643-3.36.05-.827s-6.957 4.121-9.162 4.389-5.376.304-5.376.304z" fill="#590800"/><path d="M217.115 79.132s-3.8 6.259-7.932 7.67c-1.523.52-3.597-.484-4.63-1.648s-1.626-2.002-1.626-2.002l-.747-.55a19.281 19.281 0 002.18 3.316c1.643 2.132 2.223 3.85 4.381 3.76s4.284-1.958 5.792-4.268a62.677 62.677 0 003.537-7.015z" fill="#db595c"/><path d="M203.774 84.08a10.85 10.85 0 003.136 1.365c1.075.093 2.08.14 4.738-1.506a17.088 17.088 0 004.377-4.044z" fill="#fff"/><path d="M201.75 82.346a5.553 5.553 0 003.585 2.116c2.257.248 5.55-1.048 7.34-2.214s5.755-4.12 5.755-4.12l-.284-.184s-8.268 3.802-11.514 4.325a12.78 12.78 0 01-4.881.077z" fill="#ad1834"/><path d="M217.076 75.94a1.907 1.907 0 00.876 1.992 11.356 11.356 0 011.938 1.86 1.583 1.583 0 00.016-1.4c-.376-.66-2.54-1.738-2.83-2.453z" fill="#e1784e"/><path d="M224.506 49.356s-12.716-3.32-21.961-.885-13.007 13.606-13.782 17.48-1.549 20.806-1.549 20.806-.584-6.133-.88-12.253-.208-31.266 5.58-35.106 32.592 9.958 32.592 9.958zM228.151 75.356l3.826-4.005a15.186 15.186 0 00-.305-5.643 31.99 31.99 0 00-3.189-7.084s.387 6.238.387 9.466a49.885 49.885 0 01-.719 7.266z" fill="#590800"/><path d="M252.046 78.344s-22.382-9.626-28.565-9.073-8.948 15.11-9.39 24.096a97.473 97.473 0 000 13.215s-1.28-15.294-.198-25.804 5.73-15.38 8.274-15.822 22.779-2.766 27.709-1.438 12.785 9.072 16.436 14.494 7.524 18.747 8.298 23.259-14.051 22.767-14.051 22.767l2.323-5.781a77.508 77.508 0 01-6.527 7.44l-2.656 2.435-2.766-1.77s7.705-16.486 8.278-24.341-4.59-14.642-5.549-17.5a58.343 58.343 0 01-1.616-6.177z" transform="translate(-27.54 -28.988)" fill="url(#W)"/><path d="M223.667 49s-10.477-9.313-13.882-11.815-4.41-2.415-4.41-2.415l2.595-.214s2.998 1.528 8.97 7.055a86.464 86.464 0 017.566 7.745zM223.667 35.01s.84 1.622.84 5.66v8.686l.402 1.82s.521-5.306.78-8.57a33.999 33.999 0 00-.249-6.668zM225.689 54.144a74.219 74.219 0 0011.166 5.275c6.356 2.444 7.803 3.615 7.803 3.615l.446 1.505s-.689-1.206-7.29-3.872c-5.13-2.071-11.691-5.134-11.691-5.134zM230.39 64.715a52.491 52.491 0 019.157 7.261c4.536 4.523 2.706 10.58 2.706 10.58l-1.112 1.645s1.725-7.279-2.22-11.62a30.248 30.248 0 00-8.045-6.36z" fill="#b26485" opacity=".2"/><path d="M228.151 75.356a15.823 15.823 0 015.053-4.824c3.374-2.025 6.505-2.886 7.45-2.221.921.648.092 6.381-1.955 9.258s-6.952 6.359-8.944 6.139a4.525 4.525 0 01-3.079-2.212z" fill="#e1784e"/><path d="M228.1 78.583a42.386 42.386 0 015.876-4.167 38.6 38.6 0 015.571-2.822s-3.32 2.36-6.011 4.241a22.498 22.498 0 01-5.436 2.748z" fill="#c4552d"/><path d="M231.194 76.647s-.646 1.905 0 2.39 2.63.154 2.63.154-2.326 1.116-3.294.203a1.999 1.999 0 01-.802-1.715z" fill="#c4552d"/><path d="M233.435 236.29a155.376 155.376 0 01-21.555.414l-.01-.009a77.356 77.356 0 01-4.511-.406c-11.534-1.42-22.459-6.736-22.459-6.736s-3.073-42.361-3.073-45.591 14.911-27.69 16.148-31.667c1.227-3.977.618-12.928 0-14.312s-3.386-6.616-4.457-10.15a20.76 20.76 0 01.065-5.767v-.036c.738-7.733 2.952-20.097 3.275-21.887l.037-.222h5.15s5.775 4.688 10.62 5.15 9.872-2.963 9.872-2.963l4.236 1.883s.526 5.342 1.32 9.67a22.817 22.817 0 001.217 4.632c1.43 3.118 4.807 11.893 3.95 14.994a8.596 8.596 0 01-1.006 2.02v.01c-.775 1.255-1.864 2.75-2.88 4.115l-.027.037a35.679 35.679 0 00-2.694 3.857c-.572 1.384-2.538 12.724-2.648 19.11-.12 6.375.922 10.666.922 14.172s-.581 3.396 0 5.813c.572 2.427 5.998 21.684 7.151 32.987s1.357 20.881 1.357 20.881z" fill="#db9fff"/><path d="M224.208 358.586c.388-.932-3.114-7.645-1.96-8.61s7.381-.04 7.958.882-.807 5.281-.692 6.793 6.344 9.354 6.344 9.354-3.115 1.5-8.42.808-4.967-2.653-5.425-4.153 2.195-5.074 2.195-5.074z" transform="translate(-27.54 -28.988)" fill="url(#X)"/><path d="M267.46 356.223c.808-1.718-2.422-7.286-1.614-7.674s6.055-.33 6.459.42-.289 3.949-.116 4.237 1.458 0 1.458 0a62.422 62.422 0 013.156 7.24c.634 2.248-.154 6.17-1.692 7.093s-12.84.307-13.61-.615 3-3 4.306-5.46a17.226 17.226 0 001.654-5.24z" transform="translate(-27.54 -28.988)" fill="url(#Y)"/><path d="M223.5 366.582a13.673 13.673 0 015.927-2.056c3.605-.404 5.3 1.028 5.3 1.028l1.13 1.451s-2.19 1.961-6.948 1.384-5.408-1.807-5.408-1.807z" transform="translate(-27.54 -28.988)" fill="url(#Z)"/><path d="M263.462 364.224a10.013 10.013 0 016.594 0c3.748 1.224 5.055 3.315 5.055 3.315s-1.422 1.101-7.458.957-6.613-1.606-6.613-1.606a3.294 3.294 0 012.422-2.666z" transform="translate(-27.54 -28.988)" fill="url(#aa)"/><path d="M232.254 135.307v.01l-2.88 4.115-.027.037-2.694 3.857s-16.47-2.252-19.027 0c-2.546 2.251-7.05 15.29-8.083 21.167s-.11 11.764-2.306 14.182c-2.196 2.427-7.271 15.465-7.954 23.308-.701 7.843 1.605 17.873 5.647 23.067 3.977 5.103 16.553 11.451 16.94 11.645a77.356 77.356 0 01-4.511-.406c-11.534-1.42-22.459-6.736-22.459-6.736s-3.073-42.361-3.073-45.591 14.911-27.69 16.148-31.667c1.227-3.977.618-12.928 0-14.312s-3.386-6.616-4.457-10.15a20.76 20.76 0 01.065-5.767v-.036l3.275-21.887.037-.222h5.15s5.775 4.688 10.62 5.15 9.872-2.963 9.872-2.963l4.236 1.883 1.328 9.67h-.009c-.443 0-15.261-.028-21.167 2.085-5.997 2.15-5.075 9.218-4.503 13.813.582 4.604 5.537 5.748 12.632 5.748z" fill="#c989ff"/><path d="M224.09 166.713s.634 6.733 0 10.407-2.248 9.028-2.248 9.028a13.348 13.348 0 003.384-4.679c.769-2.367-1.135-14.756-1.135-14.756z" fill="#c989ff"/><path d="M231.793 128.458s4.67 4.047 9.515 3.509a18.638 18.638 0 007.275-2.057l3.563 2.106s-5.612 3.41-11.685 2.719-11.724-5.653-11.724-5.653z" transform="translate(-27.54 -28.988)" fill="url(#ab)"/><path d="M260.65 158.547s2.66-.426 4.933-.998a21.603 21.603 0 003.931-1.398l.446 1.283a25.631 25.631 0 01-5.623 3.002 17.587 17.587 0 01-3.403.635z" transform="translate(-27.54 -28.988)" fill="url(#ac)"/><path d="M196.9 99.918s-5.923.603-8.997 2.462c-4.58 2.768-11.072 23.51-11.072 23.51s7.898-.267 12.225.595 6.881 1.38 6.881 1.38 3.846-25.795.963-27.947z" fill="#c977ff"/><path d="M205.02 152.883a64.04 64.04 0 008.453 1.328 76.942 76.942 0 0010.342.23l-.423 2.823a77.67 77.67 0 01-9.449-.661c-4.59-.645-9.573-1.725-9.573-1.725z" transform="translate(-27.54 -28.988)" fill="url(#ad)"/><path d="M212.281 256.352a79.43 79.43 0 0024.721 7.168 116.72 116.72 0 0023.92 0l.052 1.757a105.726 105.726 0 01-24.895.632 72.085 72.085 0 01-23.798-6.685z" transform="translate(-27.54 -28.988)" fill="url(#ae)"/><path d="M190.324 103.273a74.485 74.485 0 014.349 18.515c.846 9.689-3.255 23.299-3.255 23.299v4.206s6.033-15.971 7.95-25.429-3.474-25.367-3.474-25.367z" fill="#590800"/><path d="M193.66 93.71a6.2 6.2 0 012.374-.904c.923 0 0 2.35 0 2.35s-2.327-.195-2.374-1.445z" fill="#c4552d"/><path d="M226.09 131.524a1.182 1.182 0 01-1.19-.812c-.415-1.485.231-3.617-.498-3.192a2.735 2.735 0 00-.48.387s-.009 0-.018.019a22.942 22.942 0 00-2.768 3.285c-.462.775-.157 4.078-.462 6.228-.313 2.16-1.614 4.383-1.771 5.075s-.35 35.57-.923 39.723-6.57 13.527-10.611 13.794c-1.661.111-2.75-2.177-3.368-5.315-.978-5.028-.72-12.225.37-15.04 1.77-4.558 11.22-31.003 10.573-34.85-.655-3.848-5.268-10.898-4.964-11.368.314-.471 4.54-8.397 5.924-9.09a27.1 27.1 0 017.225-1.29c.332.082-.545.673-1.606 1.254l-.037.028c-.682.378-1.448.747-2.02.996a5.49 5.49 0 00-2.335 2.169s2.52-1.33 3.442-1.21c.923.111.793 1.21.793 1.21a2.216 2.216 0 011.993.12 1.523 1.523 0 01.693 1.19 5.975 5.975 0 012.039.415c.738.388-.019 6.238 0 6.274z" transform="translate(-27.54 -28.988)" fill="url(#af)"/><path d="M196.364 98.938a22.942 22.942 0 00-2.768 3.285c-.461.775-.157 4.078-.461 6.228-.314 2.16-1.615 4.383-1.772 5.075s-.35 35.57-.922 39.723-6.57 13.527-10.612 13.794c-1.66.111-2.75-2.177-3.368-5.315l-.018-.452s10.076-3.146 10.962-8.147c.876-5.001 2.039-37.444 2.27-38.136s.84-1.845 1.762-4.005c.923-2.15.498-8.267.49-8.84 0-.562 4.114-3.026 4.437-3.21zM197.306 95.921l-5.135 2.114 4.193-2.503.942.389zM194.432 94.38l-3.376 1.694 2.767-1.836.609.142zM193.984 91.344l-.037.028c-.683.378-1.449.747-2.02.996a5.49 5.49 0 00-2.335 2.169l-2.187 1.54a24.795 24.795 0 013.036-3.506 15.42 15.42 0 013.543-1.227zM190.778 259.302a23.062 23.062 0 001.5 5.882 17.208 17.208 0 002.421 3.575s-2.999-.115-3.921-2.191 0-7.266 0-7.266z" fill="#e1784e"/></svg>